<svg xmlns="http://www.w3.org/2000/svg" width="20" height="20" viewBox="0 0 20 20">
    <path fill="#9B9B9B" fill-rule="nonzero" stroke="#979797" stroke-width="2" d="M18.237 18.425l-5.05-5.252a7.114 7.114 0 0 0 2.086-5.036A7.144 7.144 0 0 0 8.137 1 7.144 7.144 0 0 0 1 8.137a7.144 7.144 0 0 0 7.137 7.136 7.104 7.104 0 0 0 4.548-1.642l5.062 5.265a.337.337 0 0 0 .48.01.34.34 0 0 0 .01-.481zm-10.1-3.831A6.464 6.464 0 0 1 1.68 8.137 6.464 6.464 0 0 1 8.137 1.68a6.464 6.464 0 0 1 6.457 6.457 6.464 6.464 0 0 1-6.457 6.457z"/>
</svg>
