<svg xmlns="http://www.w3.org/2000/svg" width="32" height="32" viewBox="0 0 32 32"><defs><style>.a{fill:#4077a7;}.b{fill:#ff5969;}</style></defs><g transform="translate(-33.197 0)"><g transform="translate(33.197 0)"><g transform="translate(0 0)"><path class="a" d="M64.914,6.537a2.044,2.044,0,0,0-1.368-1.527L50.06.15a2.552,2.552,0,0,0-1.726,0L34.849,5.011a2.044,2.044,0,0,0-1.368,1.527,22.794,22.794,0,0,0,.945,10.955,22.1,22.1,0,0,0,4.41,7.47A29.53,29.53,0,0,0,48.1,31.753a2.561,2.561,0,0,0,2.192,0,29.53,29.53,0,0,0,9.266-6.791,22.1,22.1,0,0,0,4.409-7.47,22.794,22.794,0,0,0,.945-10.955ZM62.939,17.222c-2.023,5.835-6.454,10.449-13.17,13.714a1.335,1.335,0,0,1-1.143,0c-6.717-3.265-11.148-7.879-13.171-13.714a21.944,21.944,0,0,1-.91-10.547,1.069,1.069,0,0,1,.716-.8l13.486-4.86a1.333,1.333,0,0,1,.9,0l13.486,4.86a1.069,1.069,0,0,1,.716.8A21.943,21.943,0,0,1,62.939,17.222Z" transform="translate(-33.197 0)"/><path class="a" d="M99.693,55.556l-5.184-1.763a.57.57,0,0,0-.69.242.419.419,0,0,0,.29.575l5.184,1.763a.719.719,0,0,1,.5.524,15.39,15.39,0,0,1-.715,7.818c-1.589,4.325-5.072,7.746-10.352,10.168a.994.994,0,0,1-.807,0c-5.28-2.422-8.763-5.843-10.352-10.168A15.389,15.389,0,0,1,76.85,56.9a.719.719,0,0,1,.5-.524L88,52.75a1.01,1.01,0,0,1,.638,0l3.2,1.088a.57.57,0,0,0,.69-.242.419.419,0,0,0-.29-.575l-3.2-1.088a2.245,2.245,0,0,0-1.438,0L76.95,55.556A1.653,1.653,0,0,0,75.8,56.766a16.158,16.158,0,0,0,.75,8.208,16.388,16.388,0,0,0,3.5,5.6,23.4,23.4,0,0,0,7.352,5.084,2.25,2.25,0,0,0,1.828,0,23.4,23.4,0,0,0,7.352-5.084,16.39,16.39,0,0,0,3.5-5.6,16.157,16.157,0,0,0,.75-8.208,1.652,1.652,0,0,0-1.146-1.209Z" transform="translate(-72.321 -47.833)"/><path class="b" d="M170.4,179.149h2.3a1.488,1.488,0,0,0,1.49-1.483V175.12a.335.335,0,0,1,.339-.332h2.565a1.488,1.488,0,0,0,1.49-1.483v-2.277a1.488,1.488,0,0,0-1.49-1.483h-2.565a.335.335,0,0,1-.339-.331v-2.546a1.488,1.488,0,0,0-1.49-1.483h-2.3a1.488,1.488,0,0,0-1.49,1.483v2.546a.335.335,0,0,1-.339.331H166a1.488,1.488,0,0,0-1.49,1.483v2.277a1.489,1.489,0,0,0,1.3,1.471.576.576,0,0,0,.149-1.142.334.334,0,0,1-.293-.328v-2.277A.335.335,0,0,1,166,170.7h2.565a1.488,1.488,0,0,0,1.49-1.483v-2.546a.335.335,0,0,1,.339-.331h2.3a.335.335,0,0,1,.339.331v2.546a1.488,1.488,0,0,0,1.49,1.483h2.565a.335.335,0,0,1,.339.332v2.277a.335.335,0,0,1-.339.331h-2.565a1.488,1.488,0,0,0-1.49,1.483v2.545a.335.335,0,0,1-.339.332h-2.3a.335.335,0,0,1-.339-.332V175.12a1.488,1.488,0,0,0-1.49-1.483.576.576,0,0,0,0,1.152.335.335,0,0,1,.339.332v2.545A1.488,1.488,0,0,0,170.4,179.149Z" transform="translate(-155.544 -156.166)"/></g></g></g></svg>