<svg xmlns="http://www.w3.org/2000/svg" width="18" height="18" viewBox="0 0 18 18">
    <path fill="#CCC" fill-rule="nonzero" d="M16.638 1.362a4.65 4.65 0 0 0-6.575 0l-9.041 9.04a3.487 3.487 0 0 0 0 4.933 3.477 3.477 0 0 0 4.14.575.576.576 0 0 0 .38-.164l9.041-9.04a2.324 2.324 0 1 0-3.287-3.288l-7.397 7.397a.582.582 0 0 0 .821.822l7.398-7.397a1.161 1.161 0 1 1 1.643 1.643l-8.63 8.631a2.324 2.324 0 1 1-3.287-3.287l9.04-9.043a3.487 3.487 0 1 1 4.932 4.932l-8.219 8.219a.582.582 0 0 0 .822.821l8.22-8.219a4.65 4.65 0 0 0 0-6.575z"/>
</svg>
