<svg xmlns="http://www.w3.org/2000/svg" width="28" height="32" viewBox="0 0 28 32">
    <g fill="none" fill-rule="evenodd">
        <path fill="#FB8181" fill-rule="nonzero" d="M14.316 18.75a.747.747 0 0 0-.75-.75H10.75a.747.747 0 0 0-.75.75v2.816c0 .417.333.75.75.75h2.816c.417 0 .75-.333.75-.75V18.75z"/>
        <g fill="#999">
            <path fill-rule="nonzero" d="M3.175 29.05h12.82a6.91 6.91 0 0 1-.328-2.046H3.175a.601.601 0 0 1-.6-.6V14.33h20.1v5.618c.711.005 1.4.111 2.045.317V10.1c0-1.462-1.19-2.65-2.65-2.65h-2.968V5.814a.968.968 0 0 0-.967-.967h-1.506a.968.968 0 0 0-.967.967v1.64h-6.08v-1.64a.968.968 0 0 0-.966-.967H7.11a.968.968 0 0 0-.967.967v1.64H3.175a2.654 2.654 0 0 0-2.65 2.65v16.3a2.653 2.653 0 0 0 2.65 2.644z"/>
            <path xmlns="http://www.w3.org/2000/svg" fill="#FB8181" d="M27.71 26.926a5.063 5.063 0 0 1-10.125 0 5.063 5.063 0 0 1 10.124 0zm-2.507-1.311a.607.607 0 0 0-1.04-.428l-2.2 2.2-.844-.844a.607.607 0 1 0-.861.856l1.272 1.272a.607.607 0 0 0 .861 0l2.629-2.628a.572.572 0 0 0 .183-.428z"/>
        </g>
    </g>
</svg>