<svg xmlns="http://www.w3.org/2000/svg" width="32" height="32" viewBox="0 0 32 32">
    <g fill="#FB8181" fill-rule="nonzero">
        <path d="M3.601 18.654a12.335 12.335 0 0 0 1.786 4.225.56.56 0 0 1-.035.668l-1.973 2.38 2.705 2.699 2.38-1.973a.561.561 0 0 1 .66-.038 12.787 12.787 0 0 0 4.237 1.786c.24.053.418.255.441.5l.3 3.099h3.838l.3-3.1a.573.573 0 0 1 .44-.505 12.34 12.34 0 0 0 4.232-1.779.56.56 0 0 1 .666.036l2.38 1.973 2.706-2.7-1.973-2.379a.56.56 0 0 1-.037-.662 12.853 12.853 0 0 0 1.79-4.233.564.564 0 0 1 .496-.436l3.06-.299v-3.832l-3.102-.299a.568.568 0 0 1-.499-.438 12.331 12.331 0 0 0-1.786-4.226.56.56 0 0 1 .035-.667l1.975-2.382-2.668-2.696-2.377 1.971a.56.56 0 0 1-.66.038A12.787 12.787 0 0 0 18.68 3.6a.566.566 0 0 1-.44-.5L17.94 0h-3.839l-.299 3.1a.573.573 0 0 1-.44.505A12.34 12.34 0 0 0 9.13 5.384a.56.56 0 0 1-.666-.036l-2.38-1.973-2.706 2.7 1.973 2.379a.56.56 0 0 1 .037.662 12.848 12.848 0 0 0-1.79 4.233.565.565 0 0 1-.497.436l-3.101.3v3.83l3.102.3c.243.023.444.2.499.439zM16.003 5.87c5.594 0 10.145 4.545 10.145 10.13 0 5.585-4.55 10.13-10.145 10.13C10.41 26.13 5.86 21.586 5.86 16c0-5.585 4.55-10.13 10.143-10.13z"/>
        <path d="M16.003 25.01c4.977 0 9.024-4.042 9.024-9.01s-4.047-9.01-9.024-9.01c-4.976 0-9.023 4.042-9.023 9.01s4.048 9.01 9.023 9.01zm-.563-13.97a.56.56 0 1 1 1.12 0v4.4h4a.56.56 0 1 1 0 1.12H16a.56.56 0 0 1-.56-.56v-4.96z"/>
    </g>
</svg>
