<svg xmlns="http://www.w3.org/2000/svg" width="32" height="32" viewBox="0 0 32 32">
    <g fill="none" fill-rule="evenodd">
        <circle cx="16" cy="16" r="16" fill="#999"/>
        <g fill="#E6E9EE">
            <path d="M16.076 22.89c-.026 0-.05.04-.101.04-.025 0-.05-.04-.101-.04h.202z"/>
            <path d="M28.876 25.449C25.978 29.405 21.266 32 15.975 32c-5.292 0-9.978-2.57-12.901-6.551 2.268-2.42 5.342-3.704 7.912-4.36-.227 1.84.73 4.31.756 4.234.957-2.217 4.208-2.42 4.208-2.42s3.25.177 4.233 2.42c.025.05.982-2.394.756-4.233 2.595.655 5.669 1.94 7.937 4.359z"/>
        </g>
        <path fill="#EEE" d="M19.956 19.402c0 .327-.202 2.066-3.88 3.477h-.202c-3.679-1.411-3.88-3.15-3.88-3.477.025-.656.176-1.31.453-1.915 1.008 1.133 2.218 1.89 3.528 1.89 1.285 0 2.52-.731 3.527-1.89.278.604.454 1.26.454 1.915z"/>
        <path fill="#F1543F" d="M18.167 23.458l-.806 1.613h-2.772l-.806-1.613c1.108-.478 2.192-.554 2.192-.554s1.108.076 2.192.554z"/>
        <path fill="#FF7058" d="M13.732 31.849a17.14 17.14 0 0 0 4.535 0l-.881-6.753h-2.772l-.882 6.753z"/>
        <path fill="#FFF" d="M19.956 19.351s.176 2.016-3.981 3.553c0 0 3.25.176 4.233 2.419.025.1 1.915-4.788-.252-5.972z"/>
        <path fill="#FFF" d="M11.994 19.351c-2.142 1.184-.277 6.047-.227 5.972.957-2.217 4.233-2.42 4.233-2.42-4.183-1.536-4.006-3.552-4.006-3.552zM19.704 17.99c-1.058 1.134-2.318 1.865-3.73 1.865-1.41 0-2.67-.73-3.728-1.864.05-.177.126-.353.201-.504 1.008 1.133 2.218 1.89 3.528 1.89s2.52-.731 3.527-1.89c.076.15.152.327.202.504z"/>
        <path fill="#FFF" d="M22.854 14.135c-.53.882-1.336 1.411-1.94 1.31-1.21 2.243-2.974 3.906-4.94 3.906-1.965 0-3.728-1.688-4.938-3.905-.605.075-1.41-.429-1.94-1.31-.63-1.034-.655-2.167-.05-2.545.15-.076.302-.126.478-.101.404 1.033.958 1.663.958 1.663-.58-3.2 1.789-3.553 1.386-6.627 0 0 1.486 3.3 5.745.983l-.328.63c5.946-1.336 3.956 5.669 3.906 5.845a7.943 7.943 0 0 0 1.36-2.494c.101 0 .227.05.303.1.655.353.63 1.512 0 2.545z"/>
        <path fill="#7F7F7F" d="M19.402 3.2c.478-.05 1.26.378 1.26.378-2.142-2.444-5.645-.882-5.645-.882 1.185-1.008 2.243-.907 2.243-.907-5.014-.756-5.871 2.242-5.871 2.242-.227-.352-.227-.856-.202-1.108-.352.605.026 1.814.026 1.814-.353-.882-1.588-.73-1.588-.73 1.058.176 1.235.83 1.235.83-2.646.983-2.192 3.73-2.192 3.73l.63-.756c-.781 2.998 1.21 5.317 1.21 5.317-.58-3.2 1.788-3.553 1.385-6.627 0 0 1.487 3.3 5.745.982l-.328.63c6.022-1.36 3.906 5.871 3.906 5.871 2.141-2.721 1.814-5.518 1.814-5.518l.252 1.008c.68-4.535-3.88-6.274-3.88-6.274z"/>
    </g>
</svg>
