<?xml version="1.0" encoding="utf-8"?>
<!-- Generator: Adobe Illustrator 23.0.1, SVG Export Plug-In . SVG Version: 6.00 Build 0)  -->
<svg version="1.1" id="Layer_1" xmlns="http://www.w3.org/2000/svg" xmlns:xlink="http://www.w3.org/1999/xlink" x="0px" y="0px"
	 viewBox="0 0 32 32" style="enable-background:new 0 0 32 32;" xml:space="preserve">
<style type="text/css">
	.st0{fill:#FB8181;}
</style>
<g>
	<path class="st0" d="M30.4,14.4h-1.7C27.9,8.6,23.4,4.1,17.6,3.3V1.6C17.6,0.7,16.9,0,16,0s-1.6,0.7-1.6,1.6v3.2
		c0,0.9,0.7,1.6,1.6,1.6c5.3,0,9.6,4.3,9.6,9.6c0,5.3-4.3,9.6-9.6,9.6S6.4,21.3,6.4,16c0-3.7,2.1-7.1,5.4-8.6C12.7,7,13,6,12.6,5.2
		c-0.4-0.8-1.3-1.1-2.1-0.8c-2.1,1-4,2.6-5.2,4.6c-1,1.6-1.7,3.4-1.9,5.3H1.6C0.7,14.4,0,15.1,0,16c0,0.9,0.7,1.6,1.6,1.6h1.7
		c0.7,5.8,5.3,10.3,11.1,11.1v1.7c0,0.9,0.7,1.6,1.6,1.6s1.6-0.7,1.6-1.6v-1.7c5.8-0.7,10.3-5.3,11.1-11.1h1.7
		c0.9,0,1.6-0.7,1.6-1.6C32,15.1,31.3,14.4,30.4,14.4z"/>
	<circle class="st0" cx="16.4" cy="16" r="2.8"/>
</g>
</svg>
