<svg id="Layer_1" data-name="Layer 1" xmlns="http://www.w3.org/2000/svg" viewBox="0 0 32 32"><defs><style>.cls-1{fill:#fb8181;}</style></defs><title>01</title><path class="cls-1" d="M16.05,0A16,16,0,1,0,16,32,16.15,16.15,0,0,0,32,16.07,16.06,16.06,0,0,0,16.05,0Zm-.14,5.73a5.1,5.1,0,0,1,5.16,5.14,5.1,5.1,0,1,1-10.2.1A5.07,5.07,0,0,1,15.91,5.73Zm5.77,20.51c-1.94.06-9.47,0-11.29,0-2.23,0-3.2-1.35-2.66-3.53a11.15,11.15,0,0,1,3.6-5.91,1.6,1.6,0,0,1,2-.33,5.76,5.76,0,0,0,5.27,0,1.58,1.58,0,0,1,1.88.21,11.19,11.19,0,0,1,3.91,6.8C24.67,25,23.44,26.19,21.68,26.24Z"/></svg>