<?xml version="1.0" encoding="utf-8"?>
<!-- Generator: Adobe Illustrator 23.0.1, SVG Export Plug-In . SVG Version: 6.00 Build 0)  -->
<svg version="1.1" id="Layer_1" xmlns="http://www.w3.org/2000/svg" xmlns:xlink="http://www.w3.org/1999/xlink" x="0px" y="0px"
	 viewBox="0 0 32 32" style="enable-background:new 0 0 32 32;" xml:space="preserve">
<style type="text/css">
	.st0{fill-rule:evenodd;clip-rule:evenodd;fill:#FB8181;}
</style>
<path class="st0" d="M31.3,16.3c0,3.5-2.9,6.4-6.4,6.4c-1.7,0-3.1-1.4-3.1-3.1V13c0-1.2,0.7-2.3,1.8-2.8c-0.9-3.5-4.2-6.1-8-6.1
	c-3.8,0-7,2.6-8,6.1c1.1,0.5,1.8,1.6,1.8,2.8v6.6c0,1.4-1,2.6-2.3,3c1.2,2.2,3.2,3.9,5.6,4.6c0.5-1.2,1.6-2,2.9-2
	c1.7,0,3.1,1.4,3.1,3.1c0,1.7-1.4,3.1-3.1,3.1c-1.6,0-3-1.3-3.1-2.9c-3-0.9-5.5-3.1-6.9-5.9c-3.2-0.4-5.6-3.1-5.6-6.3
	c0-2.4,1.3-4.5,3.4-5.6C4.3,4.7,9.5,0,15.7,0C22,0,27.1,4.7,27.9,10.7C30,11.8,31.3,14,31.3,16.3z"/>
</svg>
