<?xml version="1.0" encoding="UTF-8"?>
<svg width="36px" height="35px" viewBox="0 0 36 35" version="1.1" xmlns="http://www.w3.org/2000/svg" xmlns:xlink="http://www.w3.org/1999/xlink">
    <!-- Generator: Sketch 54.1 (76490) - https://sketchapp.com -->
    <title>Group 40</title>
    <desc>Created with Sketch.</desc>
    <g id="Symbols" stroke="none" stroke-width="1" fill="none" fill-rule="evenodd">
        <g id="Group-40" transform="translate(2.000000, 2.000000)">
            <g id="Group-23">
                <path d="M31.1787096,15.3840321 C31.2671613,15.4490643 31.3740645,15.4841611 31.4838709,15.4840321 C31.5649677,15.483774 31.6449032,15.4648063 31.7174193,15.4285482 C31.8907742,15.3403547 31.9999354,15.1623547 32,14.967903 L32,11.8711289 C32.0000645,11.7066773 31.9217419,11.5520966 31.7890322,11.4549999 L16.3051614,0.100161289 C16.1236131,-0.0333870964 15.8763872,-0.0333870964 15.6948389,0.100161289 L0.210968077,11.4549999 C0.0782584016,11.5520966 -6.41780749e-05,11.7066773 3.38053407e-07,11.8711289 L3.38053407e-07,14.967903 C-0.000322242588,15.2527418 0.2302584,15.483903 0.515097106,15.4842901 C0.625226137,15.4844192 0.732580975,15.4493224 0.821290651,15.3840321 L3.0967745,13.715645 L3.0967745,29.9356448 L0.516129364,29.9356448 C0.23109711,29.9356448 3.38053408e-07,30.1667416 3.38053408e-07,30.4517738 C3.38053408e-07,30.7368061 0.23109711,30.9679029 0.516129364,30.9679029 L31.4838709,30.9679029 C31.7689032,30.9679029 32,30.7368061 32,30.4517738 C32,30.1667416 31.7689032,29.9356448 31.4838709,29.9356448 L28.9032258,29.9356448 L28.9032258,13.715645 L31.1787096,15.3840321 Z" id="Path" stroke="#FB8181" stroke-width="2.3" fill-rule="nonzero"></path>
                <g id="leave-hover" transform="translate(7.677419, 11.935484)" fill="#FB8181">
                    <g id="Group">
                        <path d="M10.625,3.11111111 C10.234,3.11111111 9.91666667,2.80138272 9.91666667,2.41975309 L9.91666667,1.38271605 L7.08333333,1.38271605 L7.08333333,2.41975309 C7.08333333,2.80138272 6.766,3.11111111 6.375,3.11111111 C5.984,3.11111111 5.66666667,2.80138272 5.66666667,2.41975309 L5.66666667,1.38271605 C5.66666667,0.620148148 6.30204167,0 7.08333333,0 L9.91666667,0 C10.6979583,0 11.3333333,0.620148148 11.3333333,1.38271605 L11.3333333,2.41975309 C11.3333333,2.80138272 11.016,3.11111111 10.625,3.11111111 Z" id="Path" fill-rule="nonzero"></path>
                        <path d="M12.75,7.25925926 L12.75,7.89530864 C12.75,8.17876543 12.5091667,8.41382716 12.21875,8.41382716 C11.9283333,8.41382716 11.6875,8.17876543 11.6875,7.89530864 L11.6875,7.25925926 L5.3125,7.25925926 L5.3125,7.89530864 C5.3125,8.17876543 5.07166667,8.41382716 4.78125,8.41382716 C4.49083333,8.41382716 4.25,8.17876543 4.25,7.89530864 L4.25,7.25925926 L0,7.25925926 L0,11.9259259 C0,12.9767901 0.87125,13.8271605 1.94791667,13.8271605 L15.0520833,13.8271605 C16.12875,13.8271605 17,12.9767901 17,11.9259259 L17,7.25925926 L12.75,7.25925926 Z M15.0520833,2.07407407 L1.94791667,2.07407407 C0.87125,2.07407407 0,2.92444444 0,3.97530864 L0,6.22222222 L4.25,6.22222222 L4.25,5.35802469 C4.25,5.0745679 4.49083333,4.83950617 4.78125,4.83950617 C5.07166667,4.83950617 5.3125,5.0745679 5.3125,5.35802469 L5.3125,6.22222222 L11.6875,6.22222222 L11.6875,5.35802469 C11.6875,5.0745679 11.9283333,4.83950617 12.21875,4.83950617 C12.5091667,4.83950617 12.75,5.0745679 12.75,5.35802469 L12.75,6.22222222 L17,6.22222222 L17,3.97530864 C17,2.92444444 16.12875,2.07407407 15.0520833,2.07407407 Z" id="Shape" fill-rule="nonzero"></path>
                    </g>
                </g>
            </g>
        </g>
    </g>
</svg>