<?xml version="1.0" encoding="utf-8"?>
<!-- Generator: Adobe Illustrator 23.0.1, SVG Export Plug-In . SVG Version: 6.00 Build 0)  -->
<svg version="1.1" id="Layer_1" xmlns="http://www.w3.org/2000/svg" xmlns:xlink="http://www.w3.org/1999/xlink" x="0px" y="0px"
	 viewBox="0 0 31 32" style="enable-background:new 0 0 31 32;" xml:space="preserve">
<style type="text/css">
	.st0{fill-rule:evenodd;clip-rule:evenodd;fill:#FB8181;}
</style>
<g>
	<path class="st0" d="M17.2,25.3c0-4.2,3.4-7.6,7.6-7.6c0.9,0,1.5,0.1,2.1,0.3c0.4,0.2,0.6-0.2,0.6-0.3c0.3-1,0.4-2.1,0.4-3.1l0-9.2
		c0-0.9-0.5-0.9-0.7-0.9c-1.6,0-3.3,0-5.1-0.5C18.4,2.9,15.2,0,14,0c-1.2,0-3.6,2.9-7.2,3.9c-2.1,0.6-4,0.5-5.9,0.4
		C0.6,4.3,0.3,4.2,0.2,5c0,0.2-0.2,9.4-0.2,9.5C0,23.5,11.2,32,14,32c0.9,0,2.3-0.7,4.3-2.2c0.3-0.2,0.1-0.4,0-0.5
		C17.5,28.1,17.2,26.7,17.2,25.3L17.2,25.3z"/>
	<path class="st0" d="M24.9,29.2c-0.3,0.3-0.7,0.3-1,0.1L19,25.7c-0.3-0.2-0.4-0.7-0.1-1c0,0,0,0,0,0l0.6-0.8c0.2-0.3,0.7-0.4,1-0.1
		l3.1,2.3c0.3,0.2,0.8,0.2,1-0.1l4.4-4.6c0.3-0.3,0.7-0.3,1,0l0.8,0.7c0.3,0.3,0.3,0.7,0,1L24.9,29.2L24.9,29.2z"/>
</g>
</svg>
