<?xml version="1.0" encoding="utf-8"?>
<!-- Generator: Adobe Illustrator 23.0.1, SVG Export Plug-In . SVG Version: 6.00 Build 0)  -->
<svg version="1.1" id="Layer_1" xmlns="http://www.w3.org/2000/svg" xmlns:xlink="http://www.w3.org/1999/xlink" x="0px" y="0px"
	 viewBox="0 0 31 32" style="enable-background:new 0 0 31 32;" xml:space="preserve">
<style type="text/css">
	.st0{fill:#FB8181;}
</style>
<path class="st0" d="M27.2,25.3l-1.5-1.5c1.6-2.1,2.6-4.8,2.6-7.7c0-3.2-1.2-6.1-3.1-8.4l2.1-2.1c1,0.3,2.1,0.1,2.9-0.7
	c1.1-1.1,1.1-2.9,0-4.1c-1.1-1.1-2.9-1.1-4.1,0c-0.8,0.8-1,1.9-0.7,2.9l-2.1,2.1c-2.1-1.6-4.8-2.6-7.7-2.6c-2.9,0-5.6,1-7.7,2.6
	L5.6,3.7c0.3-1,0.1-2.1-0.7-2.9C3.8-0.3,2-0.3,0.9,0.8c-1.1,1.1-1.1,2.9,0,4.1c0.8,0.8,1.9,1,2.9,0.7l2.1,2.1
	c-2,2.2-3.1,5.2-3.1,8.4c0,2.9,1,5.5,2.6,7.7l-1.5,1.5c-1-0.3-2.1-0.1-2.9,0.7c-1.1,1.1-1.1,2.9,0,4.1c1.1,1.1,2.9,1.1,4.1,0
	c0.8-0.8,1-1.9,0.7-2.9l1.5-1.5c2.2,2,5.2,3.2,8.4,3.2c3.2,0,6.1-1.2,8.4-3.1l1.5,1.5c-0.3,1-0.1,2.1,0.7,2.9c1.1,1.1,2.9,1.1,4.1,0
	c1.1-1.1,1.1-2.9,0-4.1C29.3,25.2,28.2,25,27.2,25.3z M23.8,24.1c-2.1,2.1-5.1,3.5-8.3,3.5c-3.4,0-6.4-1.4-8.5-3.7
	c-0.4-1-0.1-1.9,0.6-2.7c1.2-1.3,3.3-2.1,4.9-2.7c1.3-0.5,0.9-0.6,0.1-1.7c-1.2-1.5-1.6-3.3-1.1-5.2c0.6-2,2.4-3.2,4.4-2.9
	c2.1,0.3,3.6,1.8,3.7,4c0.1,1.6-0.4,3-1.4,4.2c-0.6,0.8-1.1,1-0.2,1.4c1.3,0.6,3.1,1.2,4.3,1.9c0.5,0.3,0.9,0.8,1.3,1.3
	C24.2,22.4,24.3,23.3,23.8,24.1z"/>
</svg>
