<svg id="Layer_1" data-name="Layer 1" xmlns="http://www.w3.org/2000/svg" viewBox="0 0 32 32"><defs><style>.cls-1,.cls-2{fill:#fb8181;}.cls-1{fill-rule:evenodd;}</style></defs><title>r&amp;amp;r</title><path class="cls-1" d="M10.52,14.86h.7l.36-.6a2.73,2.73,0,0,1,.66-.77l3-5.5L11.66,1.41A1.41,1.41,0,0,0,9.93.75L4.28,2.86a1.39,1.39,0,0,0-.84.87,1.38,1.38,0,0,0,.14,1.2l6.33,10A4.07,4.07,0,0,1,10.52,14.86Zm18-11.13a1.39,1.39,0,0,0-.84-.87L22.07.75a1.41,1.41,0,0,0-1.73.66L14.17,12.87a2.88,2.88,0,0,1,1.22.36l.61.35.61-.35A2.81,2.81,0,0,1,18,12.86a2.85,2.85,0,0,1,2.43,1.4l.35.6h.7a3.09,3.09,0,0,1,.61.08l6.33-10A1.38,1.38,0,0,0,28.56,3.73Z"/><path class="cls-2" d="M24.17,19.92l-1.3-.75v-1.5a1.4,1.4,0,0,0-1.39-1.4H20L19.21,15a1.41,1.41,0,0,0-1.91-.51L16,15.2l-1.3-.75a1.41,1.41,0,0,0-1.91.51L12,16.26h-1.5a1.4,1.4,0,0,0-1.39,1.4v1.5l-1.3.75a1.41,1.41,0,0,0-.51,1.91l.74,1.3-.74,1.31a1.41,1.41,0,0,0,.51,1.91l1.3.75v1.5A1.4,1.4,0,0,0,10.53,30H12l.76,1.29a1.39,1.39,0,0,0,1.91.51l1.3-.74,1.3.74A1.37,1.37,0,0,0,18,32a1.4,1.4,0,0,0,1.21-.7L20,30h1.5a1.4,1.4,0,0,0,1.39-1.4V27.1l1.3-.75a1.41,1.41,0,0,0,.51-1.91l-.74-1.31.74-1.3A1.41,1.41,0,0,0,24.17,19.92Zm-2.82,2.15L18.67,24l1,3.15a.65.65,0,0,1-.24.73.61.61,0,0,1-.39.13.65.65,0,0,1-.39-.13L16,26l-2.67,1.94a.66.66,0,0,1-.78,0,.65.65,0,0,1-.24-.73l1-3.15-2.67-1.94a.66.66,0,0,1,.38-1.2h3.31l1-3.14a.66.66,0,0,1,1.26,0l1,3.14H21a.67.67,0,0,1,.39,1.2Z"/></svg>