<svg xmlns="http://www.w3.org/2000/svg" viewBox="0 0 32 32"><defs><style>.cls-1{fill:#fb8181;}</style></defs><title>Asset 1ldpi</title><g id="Layer_2" data-name="Layer 2"><g id="Layer_1-2" data-name="Layer 1"><path class="cls-1" d="M31,26.17l-3.92-3.92a16.35,16.35,0,0,1-4.83,4.83L26.17,31A3.42,3.42,0,0,0,31,26.17Z"/><path class="cls-1" d="M2.54,13.43A5.75,5.75,0,0,1,7,15.58l4.32-2.48a5.23,5.23,0,0,1-.1-1,5.78,5.78,0,1,1,11.55,0,5.88,5.88,0,0,1-.15,1.27L27.11,16a13.52,13.52,0,0,0,.22-2.32A13.67,13.67,0,0,0,0,13.66c0,.13,0,.25,0,.37A5.74,5.74,0,0,1,2.54,13.43Z"/><circle class="cls-1" cx="16.99" cy="12.13" r="2.89"/><path class="cls-1" d="M21.8,15.32a5.75,5.75,0,0,1-9.75-.25L8,17.4a5.68,5.68,0,0,1,.32,1.8,5.77,5.77,0,0,1-3.17,5.13,13.63,13.63,0,0,0,21.44-6.26Z"/><path class="cls-1" d="M2.54,16.31a2.85,2.85,0,0,0-2.06.88A13.42,13.42,0,0,0,2.87,22,2.86,2.86,0,0,0,5.42,19.2,2.89,2.89,0,0,0,2.54,16.31Z"/></g></g></svg>