<?xml version="1.0" encoding="utf-8"?>
<!-- Generator: Adobe Illustrator 23.0.1, SVG Export Plug-In . SVG Version: 6.00 Build 0)  -->
<svg version="1.1" id="Layer_1" xmlns="http://www.w3.org/2000/svg" xmlns:xlink="http://www.w3.org/1999/xlink" x="0px" y="0px"
	 viewBox="0 0 32 32" style="enable-background:new 0 0 32 32;" xml:space="preserve">
<style type="text/css">
	.st0{fill:#FB8181;}
</style>
<g>
	<path class="st0" d="M3.6,18.7c0.3,1.5,0.9,2.9,1.8,4.2c0.1,0.2,0.1,0.5,0,0.7l-2,2.4l2.7,2.7l2.4-2c0.2-0.2,0.5-0.2,0.7,0
		c1.3,0.8,2.7,1.5,4.2,1.8c0.2,0.1,0.4,0.3,0.4,0.5l0.3,3.1h3.8l0.3-3.1c0-0.2,0.2-0.4,0.4-0.5c1.5-0.3,2.9-0.9,4.2-1.8
		c0.2-0.1,0.5-0.1,0.7,0l2.4,2l2.7-2.7l-2-2.4c-0.2-0.2-0.2-0.5,0-0.7c0.8-1.3,1.5-2.7,1.8-4.2c0.1-0.2,0.3-0.4,0.5-0.4l3.1-0.3
		v-3.8l-3.1-0.3c-0.2,0-0.4-0.2-0.5-0.4c-0.3-1.5-0.9-2.9-1.8-4.2c-0.1-0.2-0.1-0.5,0-0.7l2-2.4L26,3.4l-2.4,2
		c-0.2,0.2-0.5,0.2-0.7,0c-1.3-0.8-2.7-1.5-4.2-1.8c-0.2-0.1-0.4-0.3-0.4-0.5L17.9,0h-3.8l-0.3,3.1c0,0.2-0.2,0.4-0.4,0.5
		c-1.5,0.3-2.9,0.9-4.2,1.8c-0.2,0.1-0.5,0.1-0.7,0l-2.4-2L3.4,6.1l2,2.4c0.2,0.2,0.2,0.5,0,0.7c-0.8,1.3-1.5,2.7-1.8,4.2
		c-0.1,0.2-0.3,0.4-0.5,0.4L0,14.1v3.8l3.1,0.3C3.3,18.2,3.5,18.4,3.6,18.7L3.6,18.7z M16,5.9c5.6,0,10.1,4.5,10.1,10.1
		S21.6,26.1,16,26.1c-5.6,0-10.1-4.5-10.1-10.1S10.4,5.9,16,5.9z"/>
	<path class="st0" d="M16,25c5,0,9-4,9-9s-4-9-9-9s-9,4-9,9S11,25,16,25z M15.4,11c0-0.3,0.3-0.6,0.6-0.6s0.6,0.3,0.6,0.6v4.4h4
		c0.3,0,0.6,0.3,0.6,0.6s-0.3,0.6-0.6,0.6H16c-0.3,0-0.6-0.3-0.6-0.6V11z"/>
</g>
</svg>
