<svg xmlns="http://www.w3.org/2000/svg" width="32" height="32" viewBox="0 0 32 32"><defs><style>.a{fill:#fff;}.b{fill:#4077a7;}.c{fill:#f16051;}</style></defs><rect class="a" width="27.9" height="30.789" rx="3" transform="translate(0.609 0.609)"/><g transform="translate(2.039 5.183)"><path class="a" d="M96.43,257.164l-3.393,2.125-2.791,7.218,7.218-2.791,2.125-3.456Z" transform="translate(-90.246 -243.932)"/><rect class="a" width="6.609" height="13.04" transform="translate(14.681 5.634) rotate(45)"/><path class="a" d="M240.563,68.027l-5.638-5.638,8.372-8.372a3.947,3.947,0,0,1,5.638,0h0a3.947,3.947,0,0,1,0,5.638Z" transform="translate(-220.731 -52.832)"/></g><path class="b" d="M30.9,4.9a3.776,3.776,0,0,0-2.7-1.1,3.967,3.967,0,0,0-2.7,1.1L24,6.452V0H0V32H24V17.15l6.9-6.9a3.806,3.806,0,0,0,0-5.349ZM23,31H1V1H23V7.451l-4.7,4.7.4.4-7.65,7.6.549.549L9.3,22.1a.5.5,0,0,0-.2.251l-2.248,5.9a.723.723,0,0,0,.1.549.465.465,0,0,0,.549.1l5.9-2.248a.528.528,0,0,0,.251-.2l1.4-2.3.549.549L23,17.349V31H23ZM12.5,20.152l6.9-6.9L22.552,16.4l-6.9,6.9Zm1.846,3.3L12.9,25.8,8.2,27.6,10,22.9l2.348-1.448L14.2,23.3ZM30.2,9.548,23.65,16.1,19.7,12.152,26.248,5.6a2.808,2.808,0,0,1,3.948,0A2.892,2.892,0,0,1,30.2,9.548Z"/><rect class="c" width="0.97" height="1.211" transform="matrix(0.707, 0.707, -0.707, 0.707, 19.773, 15.342)"/><rect class="c" width="1.211" height="0.97" transform="matrix(-0.707, 0.707, -0.707, -0.707, 18.894, 17.541)"/><rect class="c" width="1.211" height="0.97" transform="matrix(-0.707, 0.707, -0.707, -0.707, 17.362, 19.091)"/><rect class="b" width="17.042" height="1.211" transform="translate(4.166 6.006)"/><rect class="b" width="17.042" height="1.211" transform="translate(4.166 8.241)"/><rect class="b" width="6.304" height="1.211" transform="translate(4.792 11.523)"/><path class="c" d="M278.378,77.947h0a1.543,1.543,0,0,0-2.182,0l-6.685,6.685,2.182,2.182,6.678-6.678A1.545,1.545,0,0,0,278.378,77.947Z" transform="translate(-249.886 -71.649)"/></svg>