<?xml version="1.0" encoding="utf-8"?>
<!-- Generator: Adobe Illustrator 23.0.1, SVG Export Plug-In . SVG Version: 6.00 Build 0)  -->
<svg version="1.1" id="Layer_1" xmlns="http://www.w3.org/2000/svg" xmlns:xlink="http://www.w3.org/1999/xlink" x="0px" y="0px"
	 viewBox="0 0 32 32" style="enable-background:new 0 0 32 32;" xml:space="preserve">
<style type="text/css">
	.st0{fill:#FB8181;}
</style>
<g>
	<rect x="12.86" y="17.75" class="st0" width="4.15" height="9.47"/>
	<rect x="18.7" y="13.99" class="st0" width="4.15" height="13.23"/>
	<rect x="24.66" y="11.14" class="st0" width="4.15" height="16.08"/>
	<path class="st0" d="M7.33,27.22h3.84v-5.97H8.66C8.89,21.9,9,22.53,9,23.33c0,1.35-0.36,2.46-1.05,3.28
		C7.76,26.82,7.56,26.96,7.33,27.22z"/>
	<path class="st0" d="M8.68,17.6c0,0.15-0.01,0.37-0.03,0.66l-0.03,0.34L25.87,7.99l0.98,1.6l3.17-5.68l-6.5,0.27l0.98,1.6
		L8.33,15.75C8.56,16.28,8.68,16.9,8.68,17.6z"/>
	<path class="st0" d="M4.82,28.26v-1.12c1.04-0.15,1.88-0.54,2.42-1.18c0.54-0.64,0.8-1.51,0.8-2.63c0-0.7-0.1-1.28-0.3-1.75
		c-0.2-0.47-0.44-0.83-0.73-1.08c-0.29-0.26-0.83-0.62-1.63-1.1c-0.94-0.57-1.5-0.95-1.69-1.15c-0.2-0.2-0.29-0.54-0.29-1.03
		c0-0.29,0.05-0.52,0.14-0.66c0.1-0.15,0.24-0.22,0.43-0.22c0.24,0,0.4,0.09,0.47,0.26c0.07,0.17,0.12,0.53,0.12,1.08v0.47h3.11
		c0.02-0.26,0.03-0.43,0.03-0.56c0-0.92-0.24-1.64-0.72-2.16c-0.48-0.52-1.26-0.84-2.17-0.96v-0.99H3.39v0.99
		C2.35,14.58,1.53,14.91,1,15.44c-0.53,0.53-0.8,1.27-0.8,2.2c0,0.65,0.12,1.22,0.37,1.74c0.25,0.51,0.55,0.91,0.89,1.19
		c0.34,0.28,0.99,0.72,1.95,1.32c0.57,0.36,0.91,0.69,1.01,0.99c0.1,0.3,0.15,0.8,0.15,1.51c0,0.28-0.05,0.49-0.15,0.63
		c-0.1,0.14-0.26,0.21-0.47,0.21c-0.25,0-0.39-0.1-0.46-0.31c-0.06-0.2-0.09-0.73-0.09-1.57v-0.8H0.28v0.65
		c0,1.39,0.3,2.37,0.93,2.93c0.62,0.56,1.28,0.88,2.18,0.96v1.16H4.82z"/>
	<rect x="3.52" y="1.93" class="st0" width="0.91" height="10.51"/>
	<polygon class="st0" points="3.52,29.17 3.52,30.07 4.49,30.07 31.8,30.07 31.8,29.17 	"/>
</g>
</svg>
