<?xml version="1.0" encoding="utf-8"?>
<!-- Generator: Adobe Illustrator 23.0.1, SVG Export Plug-In . SVG Version: 6.00 Build 0)  -->
<svg version="1.1" id="Layer_1" xmlns="http://www.w3.org/2000/svg" xmlns:xlink="http://www.w3.org/1999/xlink" x="0px" y="0px"
	 viewBox="0 0 32 32" style="enable-background:new 0 0 32 32;" xml:space="preserve">
<style type="text/css">
	.st0{fill:#FB8181;}
</style>
<g>
	<g>
		<path class="st0" d="M31.49,26.47L17.65,3.53C17.3,2.95,16.68,2.6,16,2.6c-0.68,0-1.31,0.35-1.65,0.93L0.51,26.47
			c-0.36,0.6-0.37,1.34-0.03,1.95c0.34,0.61,0.99,0.98,1.68,0.98h27.67c0.7,0,1.34-0.38,1.68-0.98
			C31.86,27.82,31.85,27.07,31.49,26.47z M16.01,10.53c0.79,0,1.47,0.45,1.47,1.24c0,2.42-0.29,5.91-0.29,8.33
			c0,0.63-0.69,0.9-1.18,0.9c-0.65,0-1.2-0.26-1.2-0.9c0-2.42-0.29-5.91-0.29-8.33C14.52,10.98,15.17,10.53,16.01,10.53z
			 M16.03,25.55c-0.9,0-1.57-0.73-1.57-1.57c0-0.86,0.67-1.57,1.57-1.57c0.84,0,1.55,0.71,1.55,1.57
			C17.58,24.81,16.87,25.55,16.03,25.55z"/>
	</g>
</g>
</svg>
