<?xml version="1.0" encoding="utf-8"?>
<!-- Generator: Adobe Illustrator 23.0.1, SVG Export Plug-In . SVG Version: 6.00 Build 0)  -->
<svg version="1.1" id="Layer_1" xmlns="http://www.w3.org/2000/svg" xmlns:xlink="http://www.w3.org/1999/xlink" x="0px" y="0px"
	 viewBox="0 0 32 32" style="enable-background:new 0 0 32 32;" xml:space="preserve">
<style type="text/css">
	.st0{fill:#FB8181;}
</style>
<g>
	<g>
		<g>
			<g>
				<path class="st0" d="M31.94,27.83l-1.99-7.95c-0.03-0.12-0.08-0.24-0.14-0.35c0.11-0.32,0.18-0.65,0.18-1.01V5.05
					c0-1.44-1.17-2.6-2.6-2.6H4.61c-1.44,0-2.6,1.17-2.6,2.6v13.48c0,0.35,0.06,0.69,0.18,1.01c-0.06,0.11-0.11,0.22-0.14,0.35
					l-2,8.01c-0.1,0.4-0.01,0.82,0.24,1.15c0.25,0.32,0.64,0.51,1.05,0.51h29.33c0,0,0,0,0,0c0.74,0,1.34-0.6,1.34-1.34
					C32,28.09,31.98,27.96,31.94,27.83z M19.38,27.47C19.38,27.47,19.38,27.47,19.38,27.47h-6.77c-0.08,0-0.15-0.03-0.2-0.09
					c-0.05-0.06-0.07-0.14-0.06-0.22l0.53-2.93c0.02-0.13,0.13-0.22,0.26-0.22h5.71c0.13,0,0.24,0.09,0.26,0.22l0.52,2.9
					c0.01,0.02,0.01,0.05,0.01,0.07C19.65,27.35,19.53,27.47,19.38,27.47z M27.39,18.53c0,0.15-0.09,0.28-0.22,0.34H4.83
					c-0.13-0.06-0.22-0.19-0.22-0.34V5.05c0,0,0,0,0,0h22.78L27.39,18.53L27.39,18.53z"/>
			</g>
		</g>
	</g>
	<g>
		<path id="XMLID_10_" class="st0" d="M8.56,12.67l-0.21,0.35l-0.21,0.35c-0.05,0.09-0.04,0.2,0.04,0.27l0,0
			c0.26,0.27,0.41,0.64,0.4,1.02c0,0.03,0,0.06,0,0.09s0,0.06,0,0.09c0.01,0.38-0.13,0.75-0.4,1.02l0,0
			c-0.07,0.07-0.08,0.18-0.04,0.27l0.21,0.35l0.21,0.34c0.04,0.07,0.12,0.11,0.2,0.11c0.01,0,0.04,0,0.06-0.01l0,0
			c0.37-0.1,0.77-0.04,1.09,0.17c0.05,0.03,0.1,0.06,0.15,0.09c0.34,0.18,0.58,0.49,0.68,0.85c0.03,0.1,0.12,0.16,0.22,0.16h0.81
			c0.1,0,0.19-0.07,0.22-0.16c0.1-0.37,0.35-0.68,0.68-0.85c0.05-0.03,0.1-0.06,0.15-0.09c0.32-0.2,0.71-0.26,1.09-0.17l0,0
			c0.02,0.01,0.04,0.01,0.06,0.01c0.08,0,0.15-0.04,0.2-0.11l0.21-0.35l0.21-0.35c0.05-0.09,0.04-0.2-0.04-0.27l0,0
			c-0.26-0.27-0.41-0.64-0.4-1.02c0-0.03,0-0.06,0-0.09c0-0.03,0-0.06,0-0.09c-0.01-0.38,0.13-0.75,0.4-1.02l0,0
			c0.07-0.07,0.08-0.18,0.04-0.27l-0.21-0.35l-0.21-0.35c-0.04-0.07-0.12-0.11-0.2-0.11c-0.02,0-0.04,0-0.06,0.01l0,0
			c-0.37,0.1-0.77,0.04-1.09-0.17c-0.05-0.03-0.1-0.06-0.15-0.09c-0.34-0.18-0.58-0.49-0.68-0.85c-0.03-0.1-0.12-0.16-0.22-0.16
			h-0.81c-0.1,0-0.19,0.07-0.22,0.16c-0.1,0.37-0.35,0.68-0.68,0.85c-0.05,0.03-0.1,0.06-0.15,0.09c-0.32,0.2-0.71,0.26-1.09,0.17
			l0,0c-0.02-0.01-0.04-0.01-0.06-0.01C8.67,12.55,8.6,12.6,8.56,12.67z M9.56,14.7c0.03-0.94,0.79-1.71,1.74-1.74
			c1.04-0.04,1.89,0.82,1.85,1.85c-0.03,0.94-0.79,1.71-1.74,1.74C10.38,16.58,9.53,15.73,9.56,14.7z"/>
		<path id="XMLID_18_" class="st0" d="M13.8,9.69c-0.03,0.01-0.05,0.01-0.08,0.03c-0.1,0.05-0.18,0.16-0.18,0.29l-0.03,0.6
			l-0.03,0.6c-0.01,0.15,0.09,0.29,0.23,0.34l0,0c0.54,0.18,0.98,0.58,1.22,1.1c0.02,0.04,0.04,0.08,0.06,0.12
			c0.02,0.04,0.04,0.08,0.06,0.12c0.27,0.5,0.33,1.09,0.16,1.63l0,0c-0.04,0.15,0.01,0.3,0.14,0.38l0.51,0.33l0.51,0.33
			c0.1,0.07,0.24,0.07,0.34,0.01c0.02-0.01,0.04-0.03,0.07-0.04l0,0c0.43-0.38,0.99-0.56,1.56-0.52c0.09,0.01,0.18,0.01,0.26,0.01
			c0.57,0.01,1.11,0.26,1.49,0.68c0.1,0.11,0.26,0.14,0.4,0.07l1.08-0.54c0.13-0.07,0.21-0.22,0.18-0.37
			c-0.11-0.56,0.01-1.14,0.34-1.6c0.05-0.07,0.1-0.15,0.14-0.22c0.29-0.49,0.78-0.83,1.34-0.96l0,0c0.03-0.01,0.05-0.01,0.08-0.03
			c0.1-0.05,0.18-0.16,0.18-0.29l0.03-0.6l0.03-0.6c0.01-0.15-0.09-0.29-0.23-0.34l0,0c-0.54-0.18-0.98-0.58-1.22-1.1
			c-0.02-0.04-0.04-0.08-0.06-0.12c-0.02-0.04-0.04-0.08-0.06-0.12c-0.27-0.5-0.33-1.09-0.16-1.63l0,0c0.04-0.15-0.01-0.3-0.14-0.38
			l-0.51-0.33L21,6.22c-0.1-0.07-0.24-0.07-0.34-0.01c-0.02,0.01-0.05,0.03-0.07,0.04l0,0c-0.43,0.38-0.99,0.56-1.56,0.52
			c-0.09-0.01-0.18-0.01-0.26-0.01c-0.57-0.01-1.11-0.26-1.49-0.68c-0.1-0.11-0.26-0.14-0.4-0.07l-1.08,0.54
			c-0.13,0.07-0.21,0.22-0.18,0.37c0.11,0.56-0.01,1.14-0.34,1.6c-0.05,0.07-0.1,0.15-0.14,0.22C14.83,9.22,14.35,9.57,13.8,9.69
			L13.8,9.69z M17.38,8.54c1.36-0.75,3.08-0.18,3.73,1.22c0.6,1.28,0.1,2.81-1.14,3.49c-1.36,0.75-3.08,0.18-3.73-1.22
			C15.64,10.75,16.14,9.21,17.38,8.54z"/>
	</g>
</g>
</svg>
