<svg id="Layer_1" data-name="Layer 1" xmlns="http://www.w3.org/2000/svg" viewBox="0 0 32 32"><defs><style>.cls-1{fill:#fb8181;}</style></defs><title>01</title><path class="cls-1" d="M31,26.17l-3.92-3.92a16.24,16.24,0,0,1-4.83,4.83L26.17,31A3.42,3.42,0,0,0,31,26.17Z"/><path class="cls-1" d="M13.66,0A13.67,13.67,0,1,0,27.33,13.66,13.67,13.67,0,0,0,13.66,0Zm8.69,21.7a12.13,12.13,0,0,1-17.5-.24,2.51,2.51,0,0,1,.62-2.78c1.26-1.38,3.38-2.14,5.11-2.75,1.34-.47.93-.67.08-1.75a5.72,5.72,0,0,1-1.1-5.37,4.15,4.15,0,0,1,4.56-3A4.29,4.29,0,0,1,18,10a5.92,5.92,0,0,1-1.46,4.39c-.66.79-1.11,1.09-.17,1.5,1.33.59,3.23,1.23,4.49,2a4.68,4.68,0,0,1,1.33,1.33A2.23,2.23,0,0,1,22.35,21.7Z"/></svg>