<svg xmlns="http://www.w3.org/2000/svg" xmlns:xlink="http://www.w3.org/1999/xlink" width="101" height="101" viewBox="0 0 101 101"><defs><filter id="a" x="0" y="0" width="101" height="101" filterUnits="userSpaceOnUse"><feOffset input="SourceAlpha"/><feGaussianBlur stdDeviation="3" result="b"/><feFlood flood-opacity="0.161"/><feComposite operator="in" in2="b"/><feComposite in="SourceGraphic"/></filter></defs><g transform="translate(-3477 -3669)"><g transform="matrix(1, 0, 0, 1, 3477, 3669)" filter="url(#a)"><g transform="translate(9 9)" fill="#fff" stroke="#bacfe8" stroke-width="1"><circle cx="41.5" cy="41.5" r="41.5" stroke="none"/><circle cx="41.5" cy="41.5" r="41" fill="none"/></g></g><g transform="translate(3495 3655.053)"><path d="M54.774,45.407H53.538a3.948,3.948,0,0,0-.824-4.706,2.962,2.962,0,0,0-4.247.312l-3,3.378-6.884-4.179a.74.74,0,0,0-.953.158L35.351,42.94a.977.977,0,0,0-.235.688.954.954,0,0,0,.294.658l1.215,1.12h-25.4A3.453,3.453,0,0,0,8,49.043V78.13a3.453,3.453,0,0,0,3.226,3.636H27.849L26.773,85.4H24.935a.862.862,0,0,0-.806.909v1.818H13.645a.915.915,0,0,0,0,1.818H49.129a.915.915,0,0,0,0-1.818H41.871V86.311a.862.862,0,0,0-.806-.909H39.227l-1.076-3.636H54.774A3.453,3.453,0,0,0,58,78.13V49.043A3.453,3.453,0,0,0,54.774,45.407ZM38.348,42.132l6.885,4.179a.739.739,0,0,0,.953-.158L49.607,42.3a1.488,1.488,0,0,1,2.281,0,1.985,1.985,0,0,1,0,2.571l-3.421,3.856a1,1,0,0,0-.14,1.074l3.708,7.76-1.227,1.383-4.569-6.294a.78.78,0,0,0-.584-.332.759.759,0,0,0-.61.265L40.54,57.659a.994.994,0,0,0-.176.986l1.451,4L40.643,63.97l-2.89-5.43a.882.882,0,0,0-.276-.311l-4.818-3.258,1.172-1.32,3.552,1.635a.741.741,0,0,0,.875-.2l4.505-5.078A.975.975,0,0,0,43,49.322a.953.953,0,0,0-.294-.658l-5.584-5.149Zm1.91,45.088v.909H25.742V87.22ZM28.474,85.4l1.076-3.636h6.9L37.526,85.4ZM56.387,78.13a1.727,1.727,0,0,1-1.613,1.818H11.226A1.727,1.727,0,0,1,9.613,78.13V76.312H56.387Zm0-3.636H9.613V49.043a1.727,1.727,0,0,1,1.613-1.818H38.6l2.4,2.21-3.5,3.94L33.945,51.74a.741.741,0,0,0-.875.2l-2.281,2.57a.982.982,0,0,0-.23.754.925.925,0,0,0,.385.669l5.53,3.739L39.791,65.9a.807.807,0,0,0,.593.434.734.734,0,0,0,.1.007.763.763,0,0,0,.571-.266l2.28-2.571a.994.994,0,0,0,.176-.986l-1.451-4,3.5-3.94,4.568,6.292a.78.78,0,0,0,.584.332.76.76,0,0,0,.61-.265L53.6,58.365a1,1,0,0,0,.14-1.074l-3.708-7.759,2.084-2.349a.733.733,0,0,0,.24.041h2.419a1.727,1.727,0,0,1,1.613,1.818Z" transform="translate(0 0)" fill="#4077a7"/><path d="M36.839,368H32.806a.915.915,0,0,0,0,1.818h4.032a.915.915,0,0,0,0-1.818Z" transform="translate(-21.581 -290.779)" fill="#4077a7"/><path d="M36.839,368H32.806a.915.915,0,0,0,0,1.818h4.032a.915.915,0,0,0,0-1.818Z" transform="translate(-17.49 -314.558)" fill="#ff5969"/><path d="M36.839,368H32.806a.915.915,0,0,0,0,1.818h4.032a.915.915,0,0,0,0-1.818Z" transform="translate(-17.49 -310.992)" fill="#ff5969"/><path d="M36.839,368H32.806a.915.915,0,0,0,0,1.818h4.032a.915.915,0,0,0,0-1.818Z" transform="translate(-17.49 -307.425)" fill="#ff5969"/><path d="M97.613,368h-.806a.915.915,0,0,0,0,1.818h.806a.915.915,0,0,0,0-1.818Z" transform="translate(-79.129 -290.779)" fill="#4077a7"/><path d="M97.613,368h-.806a.915.915,0,0,0,0,1.818h.806a.915.915,0,0,0,0-1.818Z" transform="translate(-75.038 -314.558)" fill="#ff5969"/><path d="M97.613,368h-.806a.915.915,0,0,0,0,1.818h.806a.915.915,0,0,0,0-1.818Z" transform="translate(-75.038 -310.992)" fill="#ff5969"/><path d="M97.613,368h-.806a.915.915,0,0,0,0,1.818h.806a.915.915,0,0,0,0-1.818Z" transform="translate(-75.038 -307.425)" fill="#ff5969"/><path d="M32.669,133.132H47.391a.716.716,0,0,0,.669-.755V112.755a.716.716,0,0,0-.669-.755H32.669a.716.716,0,0,0-.669.755v19.622A.716.716,0,0,0,32.669,133.132Zm.669-19.622H46.722v18.113H33.338Z" transform="translate(-19.877 -61.9)" fill="#ff5969"/><path d="M232.806,297.818h3.226a.915.915,0,0,0,0-1.818h-3.226a.915.915,0,0,0,0,1.818Z" transform="translate(-201.419 -226.96)" fill="#4077a7"/><path d="M232.806,321.818h9.677a.915.915,0,0,0,0-1.818h-9.677a.915.915,0,0,0,0,1.818Z" transform="translate(-201.419 -248.233)" fill="#4077a7"/><path d="M82.484,272H72.806a.916.916,0,0,0,0,1.818h9.677a.916.916,0,0,0,0-1.818Z" transform="translate(-57.677 -208.065)" fill="#ff5969"/><path d="M433.613,464h-.806a.916.916,0,0,0,0,1.818h.806a.916.916,0,0,0,0-1.818Z" transform="translate(-381.258 -375.871)" fill="#4077a7"/></g></g></svg>