<svg xmlns="http://www.w3.org/2000/svg" xmlns:xlink="http://www.w3.org/1999/xlink" width="101" height="101" viewBox="0 0 101 101"><defs><filter id="a" x="0" y="0" width="101" height="101" filterUnits="userSpaceOnUse"><feOffset input="SourceAlpha"/><feGaussianBlur stdDeviation="3" result="b"/><feFlood flood-opacity="0.161"/><feComposite operator="in" in2="b"/><feComposite in="SourceGraphic"/></filter></defs><g transform="translate(-3373 -3669)"><g transform="matrix(1, 0, 0, 1, 3373, 3669)" filter="url(#a)"><g transform="translate(9 9)" fill="#fff" stroke="#bacfe8" stroke-width="1"><circle cx="41.5" cy="41.5" r="41.5" stroke="none"/><circle cx="41.5" cy="41.5" r="41" fill="none"/></g></g><g transform="translate(3151 3000)"><g transform="translate(248 708.372)"><g transform="translate(0 0)"><path d="M49.023,155.979h-6.01a5.767,5.767,0,0,0-3.483-2.317l-4.293-.939a6.589,6.589,0,0,0,2.915-5.468v-3.736a6.59,6.59,0,1,0-13.181,0v3.736a6.589,6.589,0,0,0,2.908,5.463l-4.291.941c-.183.04-.363.09-.541.147v-8.082a.977.977,0,0,0-.977-.977H15.43a.977.977,0,0,0,0,1.953h5.664v13.672H14.453v-4.883a2.93,2.93,0,0,0-5.859,0v4.883H1.953V146.7H7.617a.977.977,0,0,0,0-1.953H.977a.977.977,0,0,0-.977.977V161.35a.977.977,0,0,0,.977.977H8.594v1.855H8.5a3.031,3.031,0,0,0-3.027,3.027v.488H.977a.977.977,0,0,0-.977.977v3.906a.977.977,0,0,0,.977.977H49.023A.977.977,0,0,0,50,172.58V156.955A.977.977,0,0,0,49.023,155.979ZM43.084,167.7H37.5v-1.953H48.047V167.7Zm4.963-3.906H37.5v-1.953H48.047Zm0-3.906H37.5v-1.953H48.047ZM26.923,143.519a4.637,4.637,0,0,1,9.261-.363l-2.27-1.334a.976.976,0,0,0-1.243.215,5.179,5.179,0,0,1-3.979,1.857H26.923v-.375Zm0,2.328h1.768a7.125,7.125,0,0,0,4.9-1.947l2.6,1.53v1.826a4.637,4.637,0,1,1-9.275,0v-1.408Zm6.167,7.817-1.544,4.13L30,153.657a6.557,6.557,0,0,0,3.092.007Zm-11.02,8.662a.977.977,0,0,0,.977-.977v-5.432a3.8,3.8,0,0,1,.959-.35l4.271-.937,2.354,6.295a.976.976,0,0,0,1.829,0l2.354-6.3,4.3.94a3.8,3.8,0,0,1,1.065.409H36.523a.977.977,0,0,0-.977.977V167.7H21.014v-5.371H22.07Zm-3.01,0V167.7H17.578v-.488a3.031,3.031,0,0,0-3.027-3.027h-.1v-1.855Zm-8.514-6.836a.977.977,0,1,1,1.953,0v8.691H10.547ZM7.422,167.209A1.075,1.075,0,0,1,8.5,166.135h6.055a1.075,1.075,0,0,1,1.074,1.074v.488h-8.2ZM48.047,171.6H1.953v-1.953H48.047Z" transform="translate(0 -136.929)" fill="#4077a7"/><path d="M108.286,217.286a.976.976,0,1,0,.69-.286A.984.984,0,0,0,108.286,217.286Z" transform="translate(-97.453 -209.181)" fill="#4077a7"/></g></g><path d="M9.038,18.075A9.038,9.038,0,1,0,0,9.038,9.048,9.048,0,0,0,9.038,18.075Zm0-16.122A7.084,7.084,0,1,1,1.953,9.038,7.093,7.093,0,0,1,9.038,1.953Z" transform="translate(248 695)" fill="#ff5969"/><path d="M84.36,41.864a.977.977,0,1,0,1.379-1.383l-1.173-1.169V34.977a.977.977,0,0,0-1.953,0v4.741a.977.977,0,0,0,.287.692Z" transform="translate(173.455 664.32)" fill="#ff5969"/></g></g></svg>