<svg xmlns="http://www.w3.org/2000/svg" width="13.136" height="13.137" viewBox="0 0 13.136 13.137"><defs><style>.a{fill:#7d7d7d;}</style></defs><g transform="translate(-0.003 13.137) rotate(-90)"><path class="a" d="M12.8.593a.494.494,0,0,0-.6.12l-1.112,1.1A6.638,6.638,0,0,0,9,.478,6.48,6.48,0,0,0,4.02.525a6.489,6.489,0,0,0-3.5,3.5,6.486,6.486,0,0,0,0,5.1,6.488,6.488,0,0,0,3.5,3.5,6.39,6.39,0,0,0,2.549.522,6.522,6.522,0,0,0,2.8-.62,6.421,6.421,0,0,0,2.258-1.749.281.281,0,0,0,.064-.192.237.237,0,0,0-.081-.175l-1.171-1.18a.329.329,0,0,0-.214-.077.266.266,0,0,0-.2.1A4.351,4.351,0,0,1,4.871,10.6,4.336,4.336,0,0,1,2.536,8.269a4.333,4.333,0,0,1,0-3.4A4.337,4.337,0,0,1,4.871,2.539a4.266,4.266,0,0,1,1.7-.346A4.249,4.249,0,0,1,9.553,3.364L8.373,4.544a.487.487,0,0,0-.12.59.512.512,0,0,0,.5.342h3.831a.555.555,0,0,0,.547-.547V1.1A.512.512,0,0,0,12.8.593Z"/></g></svg>