<?xml version="1.0" encoding="UTF-8"?>
<svg width="14px" height="14px" viewBox="0 0 14 14" version="1.1" xmlns="http://www.w3.org/2000/svg" xmlns:xlink="http://www.w3.org/1999/xlink">
    <!-- Generator: Sketch 54.1 (76490) - https://sketchapp.com -->
    <title>Path Copy</title>
    <desc>Created with Sketch.</desc>
    <g id="Page-1" stroke="none" stroke-width="1" fill="none" fill-rule="evenodd">
        <path d="M12.8069508,0.589904743 C12.6032683,0.486319683 12.355125,0.535948341 12.2069508,0.709904743 L11.0949508,1.80990474 C10.4889293,1.23777261 9.7805863,0.784880902 9.00695075,0.474904743 C7.40696333,-0.173420089 5.6144168,-0.156502481 4.02695075,0.521904743 C2.44367045,1.18030804 1.18535405,2.43862444 0.526950752,4.02190474 C-0.169451673,5.65058469 -0.169451673,7.49322479 0.526950752,9.12190474 C1.18526166,10.7052469 2.44360862,11.9635938 4.02695075,12.6219047 C4.83182568,12.968879 5.69947617,13.1465618 6.57595075,13.1439047 C7.54372424,13.1475396 8.50017723,12.9357536 9.37595075,12.5239047 C10.2503796,12.1178192 11.0221367,11.5200322 11.6339508,10.7749047 C11.6783911,10.7210754 11.7012054,10.6526324 11.6979508,10.5829047 C11.6969756,10.5157273 11.6675347,10.4521204 11.6169508,10.4079047 L10.4459508,9.22790474 C10.3860391,9.17761455 10.3101695,9.15031567 10.2319508,9.15090474 C10.1538306,9.15323785 10.0806893,9.18980848 10.0319508,9.25090474 C8.82144294,10.8216922 6.70194013,11.3752139 4.87795075,10.5969047 C3.82285891,10.1579584 2.98370548,9.32024245 2.54295075,8.26590474 C2.07973095,7.1799036 2.07973095,5.95190589 2.54295075,4.86590474 C2.9840141,3.81200611 3.82310907,2.97470792 4.87795075,2.53590474 C5.41493706,2.30534947 5.99356678,2.1875813 6.57795075,2.18990474 C7.68666496,2.1762021 8.75681515,2.59643881 9.55995075,3.36090474 L8.37995075,4.54090474 C8.20861017,4.68632605 8.15902745,4.93010773 8.25995075,5.13090474 C8.33406551,5.3418487 8.53648806,5.48030573 8.75995075,5.47290474 L12.5909508,5.47290474 C12.8912521,5.46860639 13.1336524,5.22620605 13.1379508,4.92590474 L13.1379508,1.09690474 C13.1500731,0.873782355 13.0160977,0.668569258 12.8069508,0.589904743 Z" id="Path-Copy" fill="#7ED321" fill-rule="nonzero" transform="translate(6.571680, 6.572271) rotate(-90.000000) translate(-6.571680, -6.572271) "></path>
    </g>
</svg>