<svg xmlns="http://www.w3.org/2000/svg" width="15.697" height="16.744" viewBox="0 0 15.697 16.744"><defs><style>.a{fill:#484848;}</style></defs><g transform="translate(-25.939 -10.668)"><g transform="translate(29.601 10.668)"><path class="a" d="M136.323,7.632a.522.522,0,0,0-.476-.307h-2.093V.523A.523.523,0,0,0,133.23,0h-2.093a.523.523,0,0,0-.523.523v6.8h-2.093a.523.523,0,0,0-.393.868l3.663,4.186a.522.522,0,0,0,.787,0l3.663-4.186A.522.522,0,0,0,136.323,7.632Z" transform="translate(-127.998)"/></g><g transform="translate(25.939 22.179)"><path class="a" d="M29.6,352v3.139H18.093V352H16v4.186a1.046,1.046,0,0,0,1.046,1.047h13.6a1.046,1.046,0,0,0,1.046-1.047V352Z" transform="translate(-16 -352)"/></g></g></svg>