<svg xmlns="http://www.w3.org/2000/svg" width="20.492" height="13.972" viewBox="0 0 20.492 13.972"><defs><style>.a{fill:#484848;}</style></defs><g transform="translate(0 -74.667)"><g transform="translate(0 74.667)"><path class="a" d="M173.461,170.667a2.794,2.794,0,1,0,2.794,2.794A2.8,2.8,0,0,0,173.461,170.667Z" transform="translate(-163.215 -166.475)"/><path class="a" d="M10.246,74.667A11.016,11.016,0,0,0,0,81.653a11.007,11.007,0,0,0,20.492,0A11.012,11.012,0,0,0,10.246,74.667Zm0,11.643A4.657,4.657,0,1,1,14.9,81.653,4.659,4.659,0,0,1,10.246,86.31Z" transform="translate(0 -74.667)"/></g></g></svg>