<?xml version="1.0" encoding="UTF-8"?>
<svg width="36px" height="35px" viewBox="0 0 36 35" version="1.1" xmlns="http://www.w3.org/2000/svg" xmlns:xlink="http://www.w3.org/1999/xlink">
    <!-- Generator: Sketch 54.1 (76490) - https://sketchapp.com -->
    <title>Group 41</title>
    <desc>Created with Sketch.</desc>
    <g id="Symbols" stroke="none" stroke-width="1" fill="none" fill-rule="evenodd">
        <g id="Group-41" transform="translate(2.000000, 2.000000)" fill-rule="nonzero">
            <path d="M31.1787096,15.3840321 C31.2671613,15.4490643 31.3740645,15.4841611 31.4838709,15.4840321 C31.5649677,15.483774 31.6449032,15.4648063 31.7174193,15.4285482 C31.8907742,15.3403547 31.9999354,15.1623547 32,14.967903 L32,11.8711289 C32.0000645,11.7066773 31.9217419,11.5520966 31.7890322,11.4549999 L16.3051614,0.100161289 C16.1236131,-0.0333870964 15.8763872,-0.0333870964 15.6948389,0.100161289 L0.210968077,11.4549999 C0.0782584016,11.5520966 -6.41780749e-05,11.7066773 3.38053407e-07,11.8711289 L3.38053407e-07,14.967903 C-0.000322242588,15.2527418 0.2302584,15.483903 0.515097106,15.4842901 C0.625226137,15.4844192 0.732580975,15.4493224 0.821290651,15.3840321 L3.0967745,13.715645 L3.0967745,29.9356448 L0.516129364,29.9356448 C0.23109711,29.9356448 3.38053408e-07,30.1667416 3.38053408e-07,30.4517738 C3.38053408e-07,30.7368061 0.23109711,30.9679029 0.516129364,30.9679029 L31.4838709,30.9679029 C31.7689032,30.9679029 32,30.7368061 32,30.4517738 C32,30.1667416 31.7689032,29.9356448 31.4838709,29.9356448 L28.9032258,29.9356448 L28.9032258,13.715645 L31.1787096,15.3840321 Z" id="Path" stroke="#CCCCCC" stroke-width="2.3"></path>
            <path d="M18.25,15 C17.836,15 17.5,14.7013333 17.5,14.3333333 L17.5,13.3333333 L14.5,13.3333333 L14.5,14.3333333 C14.5,14.7013333 14.164,15 13.75,15 C13.336,15 13,14.7013333 13,14.3333333 L13,13.3333333 C13,12.598 13.67275,12 14.5,12 L17.5,12 C18.32725,12 19,12.598 19,13.3333333 L19,14.3333333 C19,14.7013333 18.664,15 18.25,15 Z" id="Path" fill="#CCCCCC"></path>
            <path d="M20,19 L20,19.5810526 C20,19.84 19.7733333,20.0547368 19.5,20.0547368 C19.2266667,20.0547368 19,19.84 19,19.5810526 L19,19 L13,19 L13,19.5810526 C13,19.84 12.7733333,20.0547368 12.5,20.0547368 C12.2266667,20.0547368 12,19.84 12,19.5810526 L12,19 L8,19 L8,23.2631579 C8,24.2231579 8.82,25 9.83333333,25 L22.1666667,25 C23.18,25 24,24.2231579 24,23.2631579 L24,19 L20,19 Z M22.1666667,14 L9.83333333,14 C8.82,14 8,14.82 8,15.8333333 L8,18 L12,18 L12,17.1666667 C12,16.8933333 12.2266667,16.6666667 12.5,16.6666667 C12.7733333,16.6666667 13,16.8933333 13,17.1666667 L13,18 L19,18 L19,17.1666667 C19,16.8933333 19.2266667,16.6666667 19.5,16.6666667 C19.7733333,16.6666667 20,16.8933333 20,17.1666667 L20,18 L24,18 L24,15.8333333 C24,14.82 23.18,14 22.1666667,14 Z" id="Shape" fill="#CCCCCC"></path>
        </g>
    </g>
</svg>