<svg xmlns="http://www.w3.org/2000/svg" width="32" height="32" viewBox="0 0 32 32">
  <g fill="#CCC">
    <path d="M3.601,18.6535 C3.927,20.16125 4.53249997,21.5945 5.387,22.879 C5.52375002,23.085 5.50950003,23.35625 5.35150003,23.5465 L3.37875002,25.92625 L6.08375002,28.626 L8.464,26.653 C8.65224998,26.498 8.91950003,26.4825 9.12449997,26.61475 C10.41725,27.46125 11.85275,28.0665 13.3615,28.401 C13.60125,28.4545 13.779,28.656 13.80225,28.90025 L14.1015,32 L17.94025,32 L18.2395,28.90025 C18.2625,28.65475 18.4395,28.4515 18.6795,28.39525 C20.189,28.07225 21.6245,27.4685 22.9115,26.616 C23.11725,26.47975 23.38775,26.4945 23.57775,26.652 L25.958,28.62525 L28.6635,25.9255 L26.691,23.54625 C26.53475,23.3575 26.5195,23.08875 26.65375,22.8835 C27.5,21.592 28.107,20.158 28.44475,18.65125 C28.4985,18.41475 28.698,18.23875 28.93975,18.21525 L32,17.91625 L32,14.0845 L28.8985,13.785 C28.655,13.762 28.45375,13.585 28.399,13.3465 C28.073,11.83875 27.4675,10.4055 26.613,9.12124998 C26.47625,8.91524998 26.4905,8.64375002 26.6485,8.45350003 L28.623,6.07150003 L25.9555,3.376 L23.57775,5.347 C23.38975,5.50224998 23.1225,5.51775002 22.9175,5.38524998 C21.62475,4.53875002 20.189,3.93350003 18.68,3.599 C18.44025,3.54550003 18.2625,3.344 18.2395,3.09975002 L17.94025,1.77635684e-15 L14.1015,1.77635684e-15 L13.80225,3.09975002 C13.7795,3.34524998 13.60225,3.54849997 13.36225,3.60475002 C11.85275,3.92775002 10.41725,4.53150003 9.13024998,5.384 C8.92475002,5.52024998 8.654,5.50550003 8.464,5.348 L6.08375002,3.37475002 L3.37849997,6.07449997 L5.351,8.45375002 C5.50724998,8.64249997 5.52249997,8.91124998 5.38849997,9.11649997 C4.542,10.408 3.935,11.842 3.59724998,13.34875 C3.543,13.5855 3.343,13.7615 3.10124998,13.78475 L2.48689958e-14,14.0845 L2.48689958e-14,17.9155 L3.10150003,18.215 C3.345,18.238 3.54624998,18.415 3.601,18.6535 L3.601,18.6535 Z M16.0035,5.87024998 C21.597,5.87024998 26.1475,10.4145 26.1475,16 C26.1475,21.5855 21.59725,26.12975 16.0035,26.12975 C10.41,26.12975 5.85950003,21.5855 5.85950003,16 C5.85950003,10.4145 10.41025,5.87024998 16.0035,5.87024998 Z"/>
    <path d="M16.0035,25.00975 C20.9795,25.00975 25.0275,20.96775 25.0275,16 C25.0275,11.03225 20.9795,6.99024998 16.0035,6.99024998 C11.0275,6.99024998 6.97975002,11.032 6.97975002,16 C6.97975002,20.968 11.02775,25.00975 16.0035,25.00975 Z M15.44,11.04 C15.44,10.7305 15.6905,10.48 16,10.48 C16.3095,10.48 16.56,10.7305 16.56,11.04 L16.56,15.44 L20.56,15.44 C20.8695,15.44 21.12,15.6905 21.12,16 C21.12,16.3095 20.8695,16.56 20.56,16.56 L16,16.56 C15.6905,16.56 15.44,16.3095 15.44,16 L15.44,11.04 Z"/>
  </g>
</svg>
