<svg xmlns="http://www.w3.org/2000/svg" width="32" height="32" viewBox="0 0 32 32"><defs><style>.a{fill:#4077a7;}.b{fill:#ff5969;}</style></defs><g transform="translate(-8 -39.947)"><path class="a" d="M37.935,43.441h-.791a2.527,2.527,0,0,0-.528-3.012,1.9,1.9,0,0,0-2.718.2L31.98,42.79l-4.406-2.675a.473.473,0,0,0-.61.1L25.5,41.862a.625.625,0,0,0-.15.44.611.611,0,0,0,.188.421l.777.717H10.065A2.21,2.21,0,0,0,8,45.768V64.384a2.21,2.21,0,0,0,2.065,2.327H20.7l-.688,2.327H18.839a.552.552,0,0,0-.516.582v1.163h-6.71a.586.586,0,0,0,0,1.163h22.71a.586.586,0,0,0,0-1.163H29.677V69.619a.552.552,0,0,0-.516-.582H27.985L27.3,66.711H37.935A2.21,2.21,0,0,0,40,64.384V45.768A2.21,2.21,0,0,0,37.935,43.441Zm-10.513-2.1,4.406,2.675a.473.473,0,0,0,.61-.1l2.19-2.468a.952.952,0,0,1,1.46,0,1.271,1.271,0,0,1,0,1.646L33.9,45.564a.637.637,0,0,0-.09.687l2.373,4.967L35.4,52.1l-2.924-4.028a.5.5,0,0,0-.373-.212.486.486,0,0,0-.39.169l-2.883,3.25a.636.636,0,0,0-.113.631l.928,2.563-.75.846-1.85-3.475a.565.565,0,0,0-.177-.2l-3.083-2.085.75-.845,2.274,1.046a.474.474,0,0,0,.56-.127l2.883-3.25a.624.624,0,0,0,.15-.44.61.61,0,0,0-.188-.421l-3.574-3.3ZM28.645,70.2v.582h-9.29V70.2ZM21.1,69.038l.688-2.327h4.417l.688,2.327Zm17.865-4.654a1.105,1.105,0,0,1-1.032,1.163H10.065a1.105,1.105,0,0,1-1.032-1.163V63.22H38.968Zm0-2.327H9.032V45.768A1.105,1.105,0,0,1,10.065,44.6H27.582l1.534,1.414-2.237,2.522L24.6,47.494a.474.474,0,0,0-.56.127l-1.46,1.645a.629.629,0,0,0-.147.482.592.592,0,0,0,.247.428l3.539,2.393,2.123,3.989a.517.517,0,0,0,.379.278.469.469,0,0,0,.063,0,.488.488,0,0,0,.365-.17l1.459-1.646a.636.636,0,0,0,.113-.631L29.8,51.832l2.237-2.522,2.923,4.027a.5.5,0,0,0,.374.212.486.486,0,0,0,.391-.169l1.46-1.646a.638.638,0,0,0,.09-.687L34.9,46.081l1.334-1.5a.469.469,0,0,0,.154.026h1.548a1.105,1.105,0,0,1,1.032,1.163Z" transform="translate(0 0)"/><path class="a" d="M35.49,368H32.582a.582.582,0,1,0,0,1.163H35.49a.582.582,0,1,0,0-1.163Z" transform="translate(-22.255 -304.198)"/><path class="b" d="M35.49,368H32.582a.582.582,0,1,0,0,1.163H35.49a.582.582,0,1,0,0-1.163Z" transform="translate(-19.304 -319.417)"/><path class="b" d="M35.49,368H32.582a.582.582,0,1,0,0,1.163H35.49a.582.582,0,1,0,0-1.163Z" transform="translate(-19.304 -317.134)"/><path class="b" d="M35.49,368H32.582a.582.582,0,1,0,0,1.163H35.49a.582.582,0,1,0,0-1.163Z" transform="translate(-19.304 -314.851)"/><path class="a" d="M97.163,368h-.582a.582.582,0,1,0,0,1.163h.582a.582.582,0,1,0,0-1.163Z" transform="translate(-82.359 -304.198)"/><path class="b" d="M97.163,368h-.582a.582.582,0,1,0,0,1.163h.582a.582.582,0,1,0,0-1.163Z" transform="translate(-78.336 -319.417)"/><path class="b" d="M97.163,368h-.582a.582.582,0,1,0,0,1.163h.582a.582.582,0,1,0,0-1.163Z" transform="translate(-78.336 -317.134)"/><path class="b" d="M97.163,368h-.582a.582.582,0,1,0,0,1.163h.582a.582.582,0,1,0,0-1.163Z" transform="translate(-78.336 -314.851)"/><path class="b" d="M32.438,125.524h9.635a.462.462,0,0,0,.438-.483V112.483a.462.462,0,0,0-.438-.483H32.438a.462.462,0,0,0-.438.483v12.558A.462.462,0,0,0,32.438,125.524Zm.438-12.558h8.759v11.592H32.876Z" transform="translate(-21.026 -65.555)"/><path class="b" d="M78.359,272H72.489a.591.591,0,0,0,0,1.164h5.869a.591.591,0,0,0,0-1.164Z" transform="translate(-59.439 -216.701)"/><path class="a" d="M433.163,464h-.582a.582.582,0,1,0,0,1.164h.582a.582.582,0,1,0,0-1.164Z" transform="translate(-397.236 -393.217)"/></g></svg>