<svg xmlns="http://www.w3.org/2000/svg" width="19" height="19" viewBox="0 0 19 19">
    <g fill="none" fill-rule="evenodd">
        <g fill="#626466" fill-rule="nonzero">
            <g>
                <g>
                    <g>
                        <g>
                            <path d="M16.252 15.49c3.144-3.625 2.05-9.262-2.225-11.46C12.792 1.637 10.297 0 7.425 0 3.331 0 0 3.33 0 7.425c0 1.802.638 3.507 1.808 4.856l-1.65 1.628c-.335.33-.103.904.369.906l3.984.019c1.373 1.998 3.642 3.226 6.124 3.226l6.898-.035c.47-.003.704-.575.369-.906l-1.65-1.628zM2.92 11.924c-1.2-1.202-1.86-2.8-1.86-4.498 0-3.51 2.856-6.367 6.366-6.367s6.367 2.856 6.367 6.367c0 3.364-2.663 6.394-6.573 6.363l-5.406-.025 1.103-1.09c.21-.206.21-.542.003-.75zm7.716 5.079c-1.857 0-3.582-.793-4.782-2.162l1.572.01c4.776 0 8.342-4.48 7.22-9.157 2.927 2.39 3.166 6.764.496 9.44-.208.207-.206.544.002.75l1.104 1.09-5.612.029z" transform="translate(-1299.000000, -1020.000000) translate(102.000000, 836.000000) translate(1167.000000, 51.000000) translate(26.000000, 127.000000) translate(4.870000, 6.225000)"/>
                            <path d="M4.377 5.805h6.081c.28 0 .507-.289.507-.645 0-.356-.227-.645-.507-.645H4.377c-.28 0-.507.289-.507.645 0 .356.227.645.507.645zM4.377 8.385h6.081c.28 0 .507-.289.507-.645 0-.356-.227-.645-.507-.645H4.377c-.28 0-.507.289-.507.645 0 .356.227.645.507.645zM4.377 10.32h6.081c.28 0 .507-.289.507-.645 0-.356-.227-.645-.507-.645H4.377c-.28 0-.507.289-.507.645 0 .356.227.645.507.645z" transform="translate(-1299.000000, -1020.000000) translate(102.000000, 836.000000) translate(1167.000000, 51.000000) translate(26.000000, 127.000000) translate(4.870000, 6.225000)"/>
                        </g>
                    </g>
                </g>
            </g>
        </g>
    </g>
</svg>
