<svg xmlns="http://www.w3.org/2000/svg" width="28" height="32" viewBox="0 0 28 32">
    <g fill="none" fill-rule="evenodd">
        <path fill="#999" fill-rule="nonzero" d="M10.405 18.057c0 .25-.2.45-.45.45h-1.69c-.25 0-.45-.2-.45-.45v-1.689c0-.25.2-.45.45-.45h1.69c.25 0 .45.2.45.45v1.69zm3.529-1.683c0-.25-.2-.45-.45-.45h-1.69c-.25 0-.45.2-.45.45v1.689c0 .25.2.45.45.45h1.69c.25 0 .45-.2.45-.45v-1.69zm3.528 0c0-.25-.2-.45-.45-.45h-1.69c-.25 0-.45.2-.45.45v1.689c0 .25.2.45.45.45h1.69c.25 0 .45-.2.45-.45v-1.69zm-7.057 3.434c0-.25-.2-.45-.45-.45h-1.69c-.25 0-.45.2-.45.45v1.69c0 .25.2.45.45.45h1.69c.25 0 .45-.2.45-.45v-1.69zm3.529 0c0-.25-.2-.45-.45-.45h-1.69c-.25 0-.45.2-.45.45v1.69c0 .25.2.45.45.45h1.69c.25 0 .45-.2.45-.45v-1.69zm3.078-.45h-1.69c-.25 0-.45.2-.45.45v1.69c0 .25.2.45.45.45h1.69c.25 0 .45-.2.45-.45v-1.69c0-.25-.2-.45-.45-.45zM6.421 22.792H4.737c-.25 0-.45.2-.45.45v1.69c0 .25.2.45.45.45h1.69c.25 0 .45-.2.45-.45v-1.69c0-.25-.206-.45-.456-.45zm.455-2.984c0-.25-.2-.45-.45-.45h-1.69c-.25 0-.45.2-.45.45v1.69c0 .25.2.45.45.45h1.69c.25 0 .45-.2.45-.45v-1.69zm6.608 2.984h-1.69c-.25 0-.45.2-.45.45v1.69c0 .25.2.45.45.45h1.69c.25 0 .45-.2.45-.45v-1.69c0-.25-.2-.45-.45-.45zm-3.53 0H8.267c-.25 0-.45.2-.45.45v1.69c0 .25.2.45.45.45h1.689c.25 0 .45-.2.45-.45v-1.69c0-.25-.2-.45-.45-.45zm10.587-4.279c.25 0 .45-.2.45-.45v-1.69c0-.25-.2-.45-.45-.45h-1.69c-.25 0-.45.2-.45.45v1.69c0 .25.2.45.45.45h1.69zM3.175 29.05h12.82a6.91 6.91 0 0 1-.328-2.045H3.175a.601.601 0 0 1-.6-.6V14.33h20.1v5.618c.711.005 1.4.111 2.045.317V10.1c0-1.462-1.19-2.65-2.65-2.65h-2.968V5.814a.968.968 0 0 0-.967-.967h-1.506a.968.968 0 0 0-.967.967v1.64h-6.08v-1.64a.968.968 0 0 0-.966-.967H7.11a.968.968 0 0 0-.967.967v1.64H3.175a2.654 2.654 0 0 0-2.65 2.65v16.3a2.653 2.653 0 0 0 2.65 2.644z"/>
        <path fill="#999" d="M27.71 26.926a5.063 5.063 0 0 1-10.125 0 5.063 5.063 0 0 1 10.124 0zm-2.507-1.311a.607.607 0 0 0-1.04-.428l-2.2 2.2-.844-.844a.607.607 0 1 0-.861.856l1.272 1.272a.607.607 0 0 0 .861 0l2.629-2.628a.572.572 0 0 0 .183-.428z"/>
    </g>
</svg>
