<svg xmlns="http://www.w3.org/2000/svg" width="32" height="32" viewBox="0 0 32 32">
    <g fill="#CCC" fill-rule="evenodd">
        <path d="M4.433 10.944h2.216v1.108H4.433z"/>
        <path fill-rule="nonzero" d="M31.03 14.823c0-.919-.744-1.663-1.662-1.663H1.662C.744 13.16 0 13.904 0 14.823v15.515C0 31.256.744 32 1.662 32h27.706c.918 0 1.662-.744 1.662-1.662V14.823zM7.758 29.783a6.65 6.65 0 1 1 6.649-6.649 6.657 6.657 0 0 1-6.65 6.65zm22.164-1.662c0 .918-.744 1.663-1.662 1.663h-9.974a1.662 1.662 0 0 1-1.663-1.663v-9.974c0-.918.745-1.662 1.663-1.662h9.974c.918 0 1.662.744 1.662 1.662v9.974z"/>
        <path fill-rule="nonzero" d="M28.26 17.593h-9.974a.554.554 0 0 0-.554.554v9.974c0 .306.248.554.554.554h9.974a.554.554 0 0 0 .554-.554v-9.974a.554.554 0 0 0-.554-.554zm-.554 9.42H18.84v-1.108h8.866v1.108zm0-3.325H18.84V22.58h8.866v1.108zm0-3.324H18.84v-1.109h8.866v1.109z"/>
        <path d="M13.299 23.134a5.541 5.541 0 1 1-11.082 0 5.541 5.541 0 0 1 11.082 0zM9.974 10.944h2.216v1.108H9.974zM24.381 10.944h3.325v1.108H24.38zM24.242 9.835h3.394V1.524c0-.306-.76-1.235-1.697-1.235s-1.697.929-1.697 1.235v8.311zM15.515 10.944h2.217v1.108h-2.217z"/>
    </g>
</svg>
