<svg xmlns="http://www.w3.org/2000/svg" width="30" height="32" viewBox="0 0 30 32">
    <path fill="#999" fill-rule="evenodd" d="M11.182 27.964H2.971c-.042 0-.084-.001-.125-.003-1.397.061-2.539-.98-2.752-2.332h.021a2.913 2.913 0 0 1 2.856-3.492h.04a2.29 2.29 0 0 0 1.647-2.198V14.1c0-4.723 3.243-8.686 7.624-9.787a2.863 2.863 0 1 1 4.936 0c4.38 1.1 7.624 5.064 7.624 9.787v5.84a2.29 2.29 0 0 0 1.647 2.198h.04a2.913 2.913 0 0 1 2.855 3.492h.022c-.214 1.351-1.356 2.393-2.752 2.332a2.963 2.963 0 0 1-.125.003h-8.212a3.595 3.595 0 1 1-7.135 0zM14.75 4.007a1.145 1.145 0 1 0 0-2.29 1.145 1.145 0 0 0 0 2.29z"/>
</svg>
