<svg xmlns="http://www.w3.org/2000/svg" width="32" height="32" viewBox="0 0 32 32">
    <g fill="#FB8181" fill-rule="evenodd">
        <path d="M11.96 10.851l-1.946-1.84c.227-.411.367-.878.367-1.38a2.886 2.886 0 0 0-2.887-2.887 2.887 2.887 0 1 0 0 5.774c.563 0 1.083-.168 1.527-.445l1.943 1.837c.295-.389.626-.745.997-1.059zM20.194 10.621l2.587-4.352c.254.072.518.125.796.125a2.887 2.887 0 1 0 0-5.774 2.885 2.885 0 0 0-2.051 4.916l-2.579 4.34c.444.201.862.452 1.247.745zM29.115 14.265c-1.242 0-2.294.79-2.702 1.89l-3.594-.355c0 .027.004.053.004.08 0 .468-.051.925-.145 1.367l3.593.355a2.882 2.882 0 0 0 5.729-.45 2.885 2.885 0 0 0-2.885-2.887zM19.198 25.616l-.803-3.51a6.578 6.578 0 0 1-1.418.327l.805 3.512a2.877 2.877 0 0 0-1.56 2.55 2.884 2.884 0 0 0 2.89 2.885 2.884 2.884 0 0 0 2.885-2.885 2.88 2.88 0 0 0-2.799-2.879zM9.775 17.273l-4.473 1.499A2.884 2.884 0 0 0 0 20.347a2.888 2.888 0 0 0 5.774 0c0-.067-.014-.128-.02-.194l4.488-1.502a6.592 6.592 0 0 1-.467-1.378z"/>
        <circle cx="16.225" cy="15.879" r="4.95"/>
    </g>
</svg>