<svg xmlns="http://www.w3.org/2000/svg" width="31" height="32" viewBox="0 0 31 32">
    <g fill="#CCC" fill-rule="evenodd">
        <path d="M16.919 26.079a.38.38 0 0 0-.424-.278c-6.619.99-12.68-4.165-12.68-10.935 0-6.095 4.959-11.054 11.054-11.054 7.451 0 12.814 7.282 10.53 14.415a.381.381 0 0 0 .263.485l2.506.672c.13.035.255.079.375.132a.382.382 0 0 0 .52-.233C32.053 9.673 24.813 0 14.868 0 6.672 0 .003 6.669.003 14.866c0 9.448 8.604 16.22 17.41 14.656.22-.039.36-.258.302-.474l-.796-2.97z"/>
        <path d="M14.92 10.88c.91 0 1.38.623 1.37 1.229-.01.645.514 1.17 1.159 1.162.65-.009 1.142-.577 1.127-1.227a3.54 3.54 0 0 0-2.564-3.315v-.506c0-.616-.473-1.145-1.088-1.174a1.143 1.143 0 0 0-1.199 1.142v.6c-1.518.51-2.595 1.926-2.564 3.582a3.727 3.727 0 0 0 3.708 3.636c.57 0 1.068.344 1.293.835a.376.376 0 0 0 .513.171c.41-.21.867-.307 1.32-.288a.386.386 0 0 0 .373-.518c-.509-1.438-1.885-2.479-3.482-2.487a1.448 1.448 0 0 1-1.382-1.026c-.276-.944.49-1.816 1.415-1.816zM15.74 22.28a.373.373 0 0 0 .07-.337c-.529-1.975-.614-2.143-.584-2.69.012-.204-.14-.401-.408-.401-.91 0-1.38-.624-1.37-1.23a1.144 1.144 0 0 0-1.16-1.162c-.65.009-1.142.577-1.126 1.227a3.54 3.54 0 0 0 2.563 3.315v.507c0 1.092 1.325 1.583 2.014.771zM30.162 27.268l-3.186-3.187 1.31-1.311a1.144 1.144 0 0 0-.512-1.913l-9.589-2.57a1.144 1.144 0 0 0-1.4 1.401l2.527 9.428c.31 1.16 1.4 1.23 1.956.674l1.31-1.311 3.187 3.186c.447.447 1.17.447 1.617 0l2.78-2.78a1.143 1.143 0 0 0 0-1.617z"/>
    </g>
</svg>
