<svg xmlns="http://www.w3.org/2000/svg" width="29" height="32" viewBox="0 0 29 32">
    <g fill="#FB8181" fill-rule="evenodd">
        <path d="M14.153 21.605a4.702 4.702 0 0 0 4.696-4.697 4.702 4.702 0 0 0-4.696-4.697 4.702 4.702 0 0 0-4.697 4.697 4.702 4.702 0 0 0 4.697 4.697zM14.153 5.636a2.821 2.821 0 0 0 2.818-2.818A2.821 2.821 0 0 0 14.153 0a2.821 2.821 0 0 0-2.818 2.818 2.821 2.821 0 0 0 2.818 2.818zM6.638 9.393a2.821 2.821 0 0 0 2.818-2.818 2.821 2.821 0 0 0-2.818-2.818A2.821 2.821 0 0 0 3.82 6.575a2.821 2.821 0 0 0 2.818 2.818zM21.667 9.393a2.821 2.821 0 0 0 2.818-2.818 2.821 2.821 0 0 0-2.818-2.818 2.821 2.821 0 0 0-2.818 2.818 2.821 2.821 0 0 0 2.818 2.818zM6.223 14.242a2.821 2.821 0 0 0-2.779-3.283 2.822 2.822 0 0 0-2.776 2.34 4.683 4.683 0 0 1 5.555.944z"/>
        <path d="M25.487 14.654a2.821 2.821 0 0 0-2.818 2.818v.062a2.194 2.194 0 0 1-2.191 2.192h-.385a6.584 6.584 0 0 1-5.94 3.757 6.583 6.583 0 0 1-5.94-3.757h-.385a2.194 2.194 0 0 1-2.192-2.192v-.062a2.821 2.821 0 0 0-2.818-2.818A2.821 2.821 0 0 0 0 17.472v.062c0 4.317 3.511 7.828 7.828 7.828h.376V32h11.898v-6.638h.376c4.316 0 7.827-3.511 7.827-7.828v-.062a2.821 2.821 0 0 0-2.818-2.818z"/>
    </g>
</svg>