<svg xmlns="http://www.w3.org/2000/svg" width="31" height="32" viewBox="0 0 31 32">
    <g fill="#CCC" fill-rule="evenodd">
        <path d="M17.153 25.334a7.65 7.65 0 0 1 7.65-7.65c.89 0 1.465.106 2.068.284.406.173.561-.167.604-.325.276-1.032.431-2.085.431-3.145l-.04-9.212c0-.89-.51-.888-.738-.887-1.634.008-3.3.008-5.053-.497C18.435 2.852 15.197 0 13.967 0 12.775 0 10.37 2.852 6.73 3.902c-2.053.592-4.022.482-5.864.397-.217-.01-.561-.068-.67.683-.028.189-.169 9.414-.169 9.516 0 9.012 11.15 17.477 13.94 17.477.892 0 2.33-.717 4.266-2.157.258-.223.12-.37.043-.495a7.61 7.61 0 0 1-1.123-3.99z"/>
        <path d="M24.851 29.234a.79.79 0 0 1-1.022.096l-4.845-3.582a.684.684 0 0 1-.139-.96l.622-.825a.701.701 0 0 1 .969-.143l3.107 2.28a.793.793 0 0 0 1.023-.098l4.385-4.59a.69.69 0 0 1 .972-.035l.756.704a.692.692 0 0 1 .036.974l-5.864 6.18z"/>
    </g>
</svg>
