<svg xmlns="http://www.w3.org/2000/svg" width="34" height="34" viewBox="0 0 34 34">
    <path fill="#CCC" fill-rule="nonzero" stroke="#CCC" d="M28.314 21.686a15.939 15.939 0 0 0-6.08-3.813 9.247 9.247 0 0 0 4.016-7.623C26.25 5.15 22.1 1 17 1s-9.25 4.15-9.25 9.25a9.247 9.247 0 0 0 4.016 7.623 15.939 15.939 0 0 0-6.08 3.813A15.895 15.895 0 0 0 1 33h2.5c0-7.444 6.056-13.5 13.5-13.5S30.5 25.556 30.5 33H33c0-4.274-1.664-8.292-4.686-11.314zM17 17a6.758 6.758 0 0 1-6.75-6.75A6.758 6.758 0 0 1 17 3.5a6.758 6.758 0 0 1 6.75 6.75A6.758 6.758 0 0 1 17 17z"/>
</svg>
