<svg xmlns="http://www.w3.org/2000/svg" width="22" height="22" viewBox="0 0 22 22">
    <g fill="none" fill-rule="evenodd">
        <rect width="21" height="21" x=".5" y=".5" fill="#FFF" stroke="#FAFAFA" rx="3"/>
        <path fill="#9B9B9B" fill-rule="nonzero" d="M16.94 11.116a.65.65 0 0 0-.162-.24l-3.894-3.65A.858.858 0 0 0 12.3 7c-.21 0-.39.09-.519.225a.722.722 0 0 0 0 1.051l2.563 2.374h-8.55c-.437 0-.794.316-.794.736s.34.736.795.736h8.565l-2.579 2.328a.698.698 0 0 0-.227.526c0 .21.065.39.227.526a.86.86 0 0 0 .568.225h.016c.21 0 .39-.09.52-.225l3.893-3.605c.016-.015.032-.045.048-.06 0-.015.016-.015.033-.045a.644.644 0 0 0 .08-.676z"/>
    </g>
</svg>
