<svg xmlns="http://www.w3.org/2000/svg" width="18" height="18" viewBox="0 0 18 18">
    <path fill="#DCAEAE" fill-rule="nonzero" stroke="#DCAEAE" d="M16.826 16.093l-5.009-5.013a6.144 6.144 0 0 0 1.44-3.947C13.256 3.756 10.502 1 7.127 1 3.753 1 1 3.756 1 7.133c0 3.378 2.753 6.134 6.128 6.134a6.072 6.072 0 0 0 3.943-1.44l5.01 5.013c.213.213.55.213.745 0a.516.516 0 0 0 0-.747zM7.128 12.2a5.074 5.074 0 0 1-5.062-5.067 5.074 5.074 0 0 1 5.062-5.066 5.074 5.074 0 0 1 5.062 5.066A5.074 5.074 0 0 1 7.128 12.2z"/>
</svg>
