<svg xmlns="http://www.w3.org/2000/svg" width="32" height="32" viewBox="0 0 32 32">
    <g fill="#3E3E3E" fill-rule="evenodd">
        <path d="M23.652 16.527h-3.054a9.54 9.54 0 0 0 .965-4.195c0-5.239-4.198-9.486-9.375-9.486-5.178 0-9.376 4.247-9.376 9.486 0 5.24 4.198 9.486 9.376 9.486a9.247 9.247 0 0 0 4.064-.935v3.079a12.04 12.04 0 0 1-4.064.702C5.457 24.664 0 19.143 0 12.332 0 5.522 5.457 0 12.188 0c6.73 0 12.187 5.521 12.187 12.332a12.44 12.44 0 0 1-.723 4.195z"/>
        <path d="M10.84 5.502h2.67v6.121l3.376 2.247-1.448 2.322-4.599-3.078zM19.282 25.546l6.292 6.435L32 25.566l-1.894-1.954-3.053 3.098v-7.6h-2.754v7.6l-3.162-3.098z"/>
    </g>
</svg>
