<svg xmlns="http://www.w3.org/2000/svg" width="32" height="32" viewBox="0 0 32 32"><defs><style>.a{fill:#4077a7;}.b{fill:#ff5969;}</style></defs><g transform="translate(-593.433 -100.095)"><g transform="translate(593.433 100.095)"><g transform="translate(0 0)"><g transform="translate(0 10.25)"><g transform="translate(0 0)"><path class="a" d="M31.375,148.241H27.528a3.718,3.718,0,0,0-2.229-1.376l-2.748-.557a3.846,3.846,0,0,0,1.865-3.247v-2.218a4.079,4.079,0,0,0-4.218-3.913,4.079,4.079,0,0,0-4.218,3.913v2.218a3.846,3.846,0,0,0,1.861,3.244l-2.746.559c-.117.024-.233.053-.346.087v-4.8a.6.6,0,0,0-.625-.58H9.875a.582.582,0,1,0,0,1.16H13.5v8.118H9.25v-2.9a1.813,1.813,0,0,0-1.875-1.74,1.813,1.813,0,0,0-1.875,1.74v2.9H1.25v-8.118H4.875a.582.582,0,1,0,0-1.16H.625a.6.6,0,0,0-.625.58v9.278a.6.6,0,0,0,.625.58H5.5v1.1H5.438a1.874,1.874,0,0,0-1.937,1.8v.29H.625a.6.6,0,0,0-.625.58v2.32a.6.6,0,0,0,.625.58h30.75A.6.6,0,0,0,32,158.1v-9.278A.6.6,0,0,0,31.375,148.241Zm-3.8,6.959H24v-1.16h6.75v1.16Zm3.176-2.32H24v-1.16h6.75Zm0-2.32H24V149.4h6.75Zm-13.519-9.718a2.985,2.985,0,0,1,5.927-.216l-1.453-.792a.659.659,0,0,0-.8.128,3.424,3.424,0,0,1-2.547,1.1H17.231v-.223Zm0,1.382h1.132a4.757,4.757,0,0,0,3.138-1.156l1.666.908v1.084a2.976,2.976,0,0,1-5.936,0v-.836Zm3.947,4.642-.988,2.453-.99-2.457a4.514,4.514,0,0,0,1.979,0Zm-7.053,5.143a.6.6,0,0,0,.625-.58V148.2a2.555,2.555,0,0,1,.614-.208l2.734-.556,1.506,3.738a.643.643,0,0,0,1.171,0l1.506-3.738,2.751.558a2.55,2.55,0,0,1,.681.243H23.375a.6.6,0,0,0-.625.58V155.2h-9.3V152.01h.676Zm-1.926,0V155.2H11.25v-.29a1.874,1.874,0,0,0-1.938-1.8H9.25v-1.1ZM6.75,147.951a.627.627,0,0,1,1.25,0v5.161H6.75Zm-2,6.959a.665.665,0,0,1,.688-.638H9.312a.665.665,0,0,1,.688.638v.29H4.75Zm26,2.609H1.25v-1.16h29.5Z" transform="translate(0 -136.929)"/><path class="a" d="M108.219,217.219a.748.748,0,1,0,.529-.219A.754.754,0,0,0,108.219,217.219Z" transform="translate(-101.304 -212.433)"/></g></g><path class="b" d="M6.928,13.855A6.928,6.928,0,1,0,0,6.928,6.936,6.936,0,0,0,6.928,13.855Zm0-12.358A5.43,5.43,0,1,1,1.5,6.928,5.437,5.437,0,0,1,6.928,1.5Z" transform="translate(0 0)"/><path class="b" d="M83.952,40.028a.749.749,0,0,0,1.057-1.06l-.9-.9V34.749a.749.749,0,0,0-1.5,0v3.634a.749.749,0,0,0,.22.53Z" transform="translate(-77.524 -31.455)"/></g></g></g></svg>