<?xml version="1.0" encoding="UTF-8"?>
<svg width="21px" height="14px" viewBox="0 0 21 14" version="1.1" xmlns="http://www.w3.org/2000/svg" xmlns:xlink="http://www.w3.org/1999/xlink">
    <!-- Generator: Sketch 54.1 (76490) - https://sketchapp.com -->
    <title>Group</title>
    <desc>Created with Sketch.</desc>
    <g id="Page-1" stroke="none" stroke-width="1" fill="none" fill-rule="evenodd">
        <g id="Group" transform="translate(0.000000, 0.000000)" fill="#FFFFFF" fill-rule="nonzero">
            <path d="M10.246,4.192 C8.70291641,4.192 7.452,5.44291641 7.452,6.986 C7.452,8.52908359 8.70291641,9.78 10.246,9.78 C11.7890836,9.78 13.04,8.52908359 13.04,6.986 C13.0366999,5.44428544 11.7877146,4.19530015 10.246,4.192 Z" id="Path"></path>
            <path d="M10.246,0 C5.71980118,0.00262289057 1.6558257,2.77355132 0,6.986 C1.65396622,11.1998448 5.71918077,13.9713669 10.246,13.9713669 C14.7728192,13.9713669 18.8380338,11.1998448 20.492,6.986 C18.8370902,2.7728206 14.7725445,0.00150331614 10.246,0 Z M10.246,11.643 C8.3621468,11.6442136 6.6631151,10.5103417 5.94135465,8.77023645 C5.21959419,7.03013123 5.6172865,5.02658064 6.94894289,3.69406586 C8.28059927,2.36155108 10.2838932,1.96256777 12.0244631,2.68320675 C13.7650331,3.40384573 14.8999996,5.10214641 14.9,6.986 C14.8988981,9.55636238 12.8163611,11.6402417 10.246,11.643 Z" id="Shape"></path>
        </g>
    </g>
</svg>