<?xml version="1.0" encoding="UTF-8"?>
<svg width="10px" height="13px" viewBox="0 0 10 13" version="1.1" xmlns="http://www.w3.org/2000/svg" xmlns:xlink="http://www.w3.org/1999/xlink">
    <!-- Generator: Sketch 54.1 (76490) - https://sketchapp.com -->
    <title>Combined Shape</title>
    <desc>Created with Sketch.</desc>
    <g id="Symbols" stroke="none" stroke-width="1" fill="none" fill-rule="evenodd">
        <g id="Associates-on-Leave" transform="translate(-171.000000, -9.000000)" fill="#E06969" fill-rule="nonzero">
            <g id="Group-2">
                <path d="M173.954011,14.1940825 C173.367018,13.6464727 173,12.8660972 173,12 C173,10.3431458 174.343146,9 176,9 C177.656854,9 179,10.3431458 179,12 C179,12.8660913 178.632987,13.646462 178.046001,14.1940713 C179.767571,14.6583947 181,15.9043397 181,17.3684211 L181,22 L171,22 L171,17.3684211 C171,15.9043515 172.232494,14.6584148 173.954011,14.1940825 Z M175.542402,14.965322 L174.662634,15.5051546 L175.489247,16.3505155 L174.387097,16.9845361 L176.040323,21.4226804 L177.693548,16.9845361 L176.591398,16.3505155 L177.418011,15.5051546 L176.521227,14.9548809 C176.351944,14.9845364 176.177778,15 176,15 C175.844417,15 175.6916,14.9881565 175.542402,14.965322 Z" id="Combined-Shape"></path>
            </g>
        </g>
    </g>
</svg>