<svg xmlns="http://www.w3.org/2000/svg" width="21" height="21" viewBox="0 0 21 21">
    <g fill="none" fill-rule="evenodd">
        <path d="M0 0H24V24H0z" transform="translate(-2 -3)"/>
        <g fill="#999">
            <path fill-rule="nonzero" d="M10.737 14.063c0-.313-.25-.563-.563-.563H8.063c-.313 0-.563.25-.563.563v2.111c0 .313.25.563.563.563h2.111c.313 0 .563-.25.563-.563v-2.111z" transform="translate(-2 -3) translate(2)"/>
            <g>
                <path fill-rule="nonzero" d="M1.988 18.15h9.615c-.154-.483-.242-1-.246-1.533H1.988c-.25 0-.45-.204-.45-.45V7.11h15.075v4.214c.533.004 1.05.083 1.533.237V3.94c0-1.097-.891-1.988-1.988-1.988h-2.225V.725c0-.4-.325-.725-.725-.725h-1.13c-.4 0-.725.325-.725.725v1.23h-4.56V.725c0-.4-.325-.725-.725-.725h-1.13c-.4 0-.724.325-.724.725v1.23H1.988C.892 1.955 0 2.847 0 3.943v12.224c0 1.092.892 1.984 1.988 1.984z" transform="translate(-2 -3) translate(2) translate(.393 3.636)"/>
                <path d="M20.389 16.558c0 2.097-1.7 3.797-3.797 3.797-2.097 0-3.797-1.7-3.797-3.797 0-2.096 1.7-3.796 3.797-3.796 2.096 0 3.797 1.7 3.797 3.796zm-1.88-.983c0-.121-.046-.238-.133-.321-.18-.18-.467-.18-.646 0l-1.65 1.65-.634-.633c-.18-.18-.467-.18-.646 0-.088.087-.134.2-.134.32 0 .122.046.238.134.322l.954.954c.18.18.467.18.646 0l1.971-1.971c.092-.084.138-.2.138-.321z" transform="translate(-2 -3) translate(2) translate(.393 3.636)"/>
            </g>
        </g>
    </g>
</svg>
