<svg xmlns="http://www.w3.org/2000/svg" xmlns:xlink="http://www.w3.org/1999/xlink" width="35" height="35" viewBox="0 0 35 35"><defs><clipPath id="b"><rect width="35" height="35"/></clipPath></defs><g id="a" clip-path="url(#b)"><g transform="translate(5.85 5.829)"><path d="M-.4.026,12.611-.541,23.1.026l.455,4.531L-.4,5.122l-.54-.36V3.008Z" transform="translate(1.403 3.118)" fill="#fb8181"/><path d="M.018,0H23.073l.3,4.192H-.374Z" transform="translate(1.421 10.479)" fill="#fb8181"/><g transform="translate(0)"><path d="M0,0H25a0,0,0,0,1,0,0V16a2,2,0,0,1-2,2H2a2,2,0,0,1-2-2V0A0,0,0,0,1,0,0Z" transform="translate(0.151 7.171)" fill="#fcf7e2"/><g transform="translate(0 2.096)"><path d="M22.531,25.055H2.62A2.623,2.623,0,0,1,0,22.435V4.62A2.623,2.623,0,0,1,2.62,2H22.531a2.623,2.623,0,0,1,2.62,2.62V22.435A2.623,2.623,0,0,1,22.531,25.055ZM2.62,3.048A1.574,1.574,0,0,0,1.048,4.62V22.435A1.574,1.574,0,0,0,2.62,24.007H22.531A1.574,1.574,0,0,0,24.1,22.435V4.62a1.574,1.574,0,0,0-1.572-1.572Z" transform="translate(0 -2)" fill="#fb8181"/></g><g transform="translate(5.24)"><path d="M5.524,5.24A.524.524,0,0,1,5,4.716V.524a.524.524,0,1,1,1.048,0V4.716A.524.524,0,0,1,5.524,5.24Z" transform="translate(-5)" fill="#b57a6a"/></g><g transform="translate(18.863)"><path d="M18.524,5.24A.524.524,0,0,1,18,4.716V.524a.524.524,0,0,1,1.048,0V4.716A.524.524,0,0,1,18.524,5.24Z" transform="translate(-18)" fill="#b57a6a"/></g><g transform="translate(7.488 10.493)"><g transform="translate(0 0)"><ellipse cx="5.821" cy="5.821" rx="5.821" ry="5.821" fill="#73ca7a"/></g></g><g transform="matrix(0.695, -0.719, 0.719, 0.695, 10.439, 16.188)"><g transform="translate(0 0)"><g transform="translate(0)"><path d="M.524,3.077C.235,3.077,0,2.9,0,2.692V.385C0,.172.235,0,.524,0s.524.172.524.385V2.692C1.048,2.9.813,3.077.524,3.077Z" fill="#fff"/></g></g><g transform="translate(0.058 2.063)"><path d="M4.827,1.048H.439A.487.487,0,0,1,0,.524.487.487,0,0,1,.439,0H4.827a.487.487,0,0,1,.439.524A.487.487,0,0,1,4.827,1.048Z" fill="#fff"/></g></g><g transform="translate(0 6.627)"><path d="M24.627,8.757H.524C.235,8.757,0,8.363,0,7.878S.235,7,.524,7h24.1c.289,0,.524.393.524.878S24.916,8.757,24.627,8.757Z" transform="translate(0 -7)" fill="#fb8181"/></g></g></g></g></svg>