<svg xmlns="http://www.w3.org/2000/svg" xmlns:xlink="http://www.w3.org/1999/xlink" width="35" height="35" viewBox="0 0 35 35"><defs><clipPath id="b"><rect width="35" height="35"/></clipPath></defs><g id="a" clip-path="url(#b)"><g transform="translate(-864 -631)"><path d="M513.359,294.644a12.769,12.769,0,0,1,4.916-1.372,15.357,15.357,0,0,1,10.519,2.538c.107.074.212.15.446.316-.069-.789-.231-1.614.9-1.492.475-.1.813-.2.91.555a20.83,20.83,0,0,1,.281,2.956c-.071.923-.325,1.168-1.239,1.173-.932.005-1.865-.018-2.8.01-.443.013-.668-.089-.61-.581.044-.371-.083-.821.087-1.1.186-.311.707-.022,1.1-.226a3.049,3.049,0,0,0-.935-.636,10.487,10.487,0,0,0-1.675-.739,17.307,17.307,0,0,0-1.987-.613,7.55,7.55,0,0,0-1.756-.316,11.5,11.5,0,0,0-3.559.1,22.739,22.739,0,0,0-3.073.768,12.379,12.379,0,0,0-6.972,7.555,12.516,12.516,0,0,0-.592,2.329,19.659,19.659,0,0,0-.248,3.407c.129,1.674-.048.6-.774.673-.155.016-.311.017-.465.042-.446.071-.679-.1-.672-.565a16.4,16.4,0,0,1,.7-6.089,19.329,19.329,0,0,1,2.428-4.746,18.607,18.607,0,0,1,2.239-2.092A20.617,20.617,0,0,1,513.359,294.644Z" transform="translate(1408.228 352.021) rotate(120)" fill="#fb8181"/><path d="M708.3,429.914a3.74,3.74,0,0,0,.284-.784c.075-.571.332-.794.9-.6,1.1.426,1.1.426.673,1.629-.067.189-.092.431-.224.551-.6.542-.992-.233-1.513-.283C708.044,430.392,708.092,430.144,708.3,429.914Z" transform="translate(1597.759 258.37) rotate(120)" fill="#fb8181"/><path d="M.232,1.308C.33,1.047.36.945.446.669c.113-.394.332-.794.9-.6,1.1.426,1.1.426.673,1.629-.067.189-.092.431-.224.551-.166.365-.746-.081-1.294-.262C.089,1.88.218,1.429.232,1.308Z" transform="matrix(-0.695, 0.719, -0.719, -0.695, 870.43, 654.414)" fill="#fb8181"/><path d="M717.235,399.212l-1.046.033c-.652,0-.879-.317-.725-.949a1.325,1.325,0,0,0,0-.595c-.124-.526.131-.629.591-.66,1.455-.1,1.167-.2,1.2,1.108C717.264,398.5,717.242,398.858,717.235,399.212Z" transform="translate(1577.299 239.277) rotate(120)" fill="#fb8181"/><path d="M613.268,503.089c-.012.61.332,1.216.023,1.829l-2.1,0c-.046-1.692-.046-1.692,1.62-1.81C612.959,503.1,613.114,503.095,613.268,503.089Z" transform="translate(1611.746 363.444) rotate(120)" fill="#fb8181"/><path d="M642.492,497.437c-.211-.573-.057-.9.594-.957a1.941,1.941,0,0,0,.54-.222c.443-.251.7-.126.886.353.484,1.234.734.977-.655,1.5C642.834,498.5,642.826,498.477,642.492,497.437Z" transform="translate(1620.054 337) rotate(120)" fill="#fb8181"/><path d="M711.247,366.208c-.276.045-.554.083-.827.139s-.514.019-.635-.281a11.582,11.582,0,0,0-.323-1.147c-.131-.338-.027-.487.288-.589,1.374-.447,1.147-.839,1.666.778C711.533,365.473,711.913,365.938,711.247,366.208Z" transform="translate(1549.898 229.471) rotate(120)" fill="#fb8181"/><path d="M673.78,480.868c.338.346.285.616-.128.87a10.32,10.32,0,0,0-1.016.743.371.371,0,0,1-.572-.039.236.236,0,0,0-.014-.064c-.729-1.345-.725-1.339.653-2.205a.316.316,0,0,1,.494.077C673.381,480.466,673.585,480.663,673.78,480.868Z" transform="translate(1620.65 308.171) rotate(120)" fill="#fb8181"/><path d="M526.982,462.088c-.209.485-.671.734-1.029,1.073s-.432-.217-.676-.267a6.279,6.279,0,0,0-.669-.9c-.41-.39-.274-.605.155-.8.058-.027.1-.086.156-.122.824-.52.823-.519,1.449.264C526.569,461.59,526.777,461.838,526.982,462.088Z" transform="translate(1542.349 410.219) rotate(120)" fill="#fb8181"/><path d="M509.468,430.243c-.1-.78.511.032.8-.248.507-.214.989-1.677,1.054-1.068A14.952,14.952,0,0,0,512,433.09c.16.624.217,1.034-.382,1.364a.839.839,0,0,1-1.116-.226A10.048,10.048,0,0,1,509.468,430.243Z" transform="translate(1514.807 408.613) rotate(120)" fill="#fb8181"/><path d="M551.166,483.739c.124.139.316.253.132.485a2.924,2.924,0,0,0-.231.394c-.479.854-.479.854-1.341.407a.8.8,0,0,0-.091-.094c-1.007-.743-.991-.729-.239-1.682.275-.348.471-.432.829-.116A6.979,6.979,0,0,0,551.166,483.739Z" transform="translate(1569.634 401.472) rotate(120)" fill="#fb8181"/><path d="M580.487,498.113c.081.408-.18.775-.144,1.178-.082.49-.341.665-.819.469a2.948,2.948,0,0,0-.32-.083c-1.334-.38-1.368-.48-.756-1.757.128-.266.256-.3.51-.219C579.462,497.853,579.976,497.977,580.487,498.113Z" transform="translate(1593.334 385.934) rotate(120)" fill="#fb8181"/><path d="M565.657,345a10.839,10.839,0,0,1-5.612,7.5c-.408.561-1.076.605-1.654.819a5.155,5.155,0,0,1-1.2.285,13.482,13.482,0,0,1-2.923.121,11,11,0,0,1-2.214-.485c-.383-.123-.749-.3-1.136-.413a12.8,12.8,0,0,1-2.533-1.674c-.3-.323-.619-.636-.941-.942a8.746,8.746,0,0,1-1.629-2.409,12.553,12.553,0,0,1-.62-1.4,10.628,10.628,0,0,1-.479-2.217c.034-.844-.083-1.69.026-2.533a12.326,12.326,0,0,1,1.11-3.4,10.632,10.632,0,0,1,7.6-5.653c.144-.029.284-.072.429-.1.844-.11,1.69,0,2.533-.031a10.562,10.562,0,0,1,2.239.479,3.821,3.821,0,0,1,1.384.751,11.2,11.2,0,0,1,4.655,4.684,13.321,13.321,0,0,1,1.085,3.541A10.534,10.534,0,0,1,565.657,345Z" transform="translate(326.104 305.36)" fill="#73ca7a"/><path d="M-5693.178,19.158a7.915,7.915,0,0,1-4.231-4.531,8.441,8.441,0,0,1,3.229-10.188,1.543,1.543,0,0,1,.857-.38,7.1,7.1,0,0,1,5.642-.812,8.376,8.376,0,0,1,6.648,8.736,8.52,8.52,0,0,1-8.472,8.064A8.021,8.021,0,0,1-5693.178,19.158Z" transform="translate(6570.959 636.914)" fill="#fcf7e2" stroke="rgba(0,0,0,0)" stroke-miterlimit="10" stroke-width="1"/><path d="M639.2,389.2c0-.865.028-1.731-.01-2.594-.023-.531.187-.657.681-.66.518,0,.72.179.661.682-.016.138.012.28,0,.418-.071.614.025.882.781.674a1.468,1.468,0,0,1,1.735,1.3c.076.943.034,1.895.047,2.843.006.459-.312.447-.631.449s-.611-.008-.62-.463a12.7,12.7,0,0,0-.074-2.17c-.073-.382-.171-.745-.654-.7-.449.043-.574.386-.577.785,0,.614-.03,1.229.005,1.841.032.545-.167.723-.716.726s-.653-.233-.638-.707c.026-.808.007-1.618.007-2.427Z" transform="translate(242.641 258.316)" fill="#999"/><path d="M3.231,5.9H3.173a.884.884,0,0,1-.649-.188.548.548,0,0,1-.08-.443.83.83,0,0,0-.113-.677A.658.658,0,0,0,1.8,4.4a2.127,2.127,0,0,0-.275.02,2.34,2.34,0,0,1-.317.019c-.09,0-.181,0-.27-.006L.776,4.432C.4,4.423.15,4.316.049,4.123A.763.763,0,0,1,.2,3.37c.394-.6.816-1.2,1.223-1.773.289-.409.588-.832.876-1.254A.731.731,0,0,1,2.953,0a2.51,2.51,0,0,1,.419.048l.142.023c.29.043.269.27.248.489a1.187,1.187,0,0,0-.008.213,5.728,5.728,0,0,1,.01.649c0,.091,0,.181,0,.272,0,.329,0,.67,0,1.005,0,.244,0,.436.333.571A.6.6,0,0,1,4.083,4.4c-.387.154-.357.406-.329.65a1.652,1.652,0,0,1,.015.182.756.756,0,0,1-.136.536A.546.546,0,0,1,3.231,5.9ZM2.487,2.227h0c-.581.33-.824.683-.787,1.143.014.176.2.2.275.2A.568.568,0,0,0,2.2,3.519c.476-.219.413-.565.339-.966-.019-.106-.039-.215-.051-.326Z" transform="translate(876.552 644.74)" fill="#999" stroke="rgba(0,0,0,0)" stroke-miterlimit="10" stroke-width="1"/></g></g></svg>