<svg xmlns="http://www.w3.org/2000/svg" xmlns:xlink="http://www.w3.org/1999/xlink" width="35" height="35" viewBox="0 0 35 35"><defs><clipPath id="b"><rect width="35" height="35"/></clipPath></defs><g id="a" clip-path="url(#b)"><g transform="translate(-863.707 -820.533)"><path d="M708.3,429.914a3.74,3.74,0,0,0,.284-.784c.075-.571.332-.794.9-.6,1.1.426,1.1.426.673,1.629-.067.189-.092.431-.224.551-.6.542-.992-.233-1.513-.283C708.044,430.392,708.092,430.144,708.3,429.914Z" transform="translate(1597.759 447.37) rotate(120)" fill="#fb8181"/><path d="M.161,1.453A3.74,3.74,0,0,0,.446.669c.075-.571.332-.794.9-.6,1.1.426,1.1.426.673,1.629-.067.189-.092.431-.224.551C1.19,2.791.8,2.015.277,1.966-.1,1.93-.048,1.682.161,1.453Z" transform="matrix(-0.695, 0.719, -0.719, -0.695, 870.43, 843.414)" fill="#fb8181"/><path d="M717.235,399.212l-1.046.033c-.652,0-.879-.317-.725-.949a1.325,1.325,0,0,0,0-.595c-.124-.526.131-.629.591-.66,1.455-.1,1.167-.2,1.2,1.108C717.264,398.5,717.242,398.858,717.235,399.212Z" transform="translate(1577.299 428.277) rotate(120)" fill="#fb8181"/><path d="M613.268,503.089c-.012.61.332,1.216.023,1.829l-2.1,0c-.046-1.692-.046-1.692,1.62-1.81C612.959,503.1,613.114,503.095,613.268,503.089Z" transform="translate(1611.747 552.444) rotate(120)" fill="#fb8181"/><path d="M642.492,497.437c-.211-.573-.057-.9.594-.957a1.941,1.941,0,0,0,.54-.222c.443-.251.7-.126.886.353.484,1.234.734.977-.655,1.5C642.834,498.5,642.826,498.477,642.492,497.437Z" transform="translate(1620.054 526) rotate(120)" fill="#fb8181"/><path d="M711.247,366.208c-.276.045-.554.083-.827.139s-.514.019-.635-.281a11.582,11.582,0,0,0-.323-1.147c-.131-.338-.027-.487.288-.589,1.374-.447,1.147-.839,1.666.778C711.533,365.473,711.913,365.938,711.247,366.208Z" transform="translate(1549.899 418.471) rotate(120)" fill="#fb8181"/><path d="M673.78,480.868c.338.346.285.616-.128.87a10.32,10.32,0,0,0-1.016.743.371.371,0,0,1-.572-.039.236.236,0,0,0-.014-.064c-.729-1.345-.725-1.339.653-2.205a.316.316,0,0,1,.494.077C673.381,480.466,673.585,480.663,673.78,480.868Z" transform="translate(1620.65 497.171) rotate(120)" fill="#fb8181"/><path d="M526.982,462.088c-.209.485-.671.734-1.029,1.073s-.432-.217-.676-.267a6.279,6.279,0,0,0-.669-.9c-.41-.39-.274-.605.155-.8.058-.027.1-.086.156-.122.824-.52.823-.519,1.449.264C526.569,461.59,526.777,461.838,526.982,462.088Z" transform="translate(1542.349 599.219) rotate(120)" fill="#fb8181"/><path d="M509.468,430.243c-.1-.78.511.032.8-.248.507-.214.989-1.677,1.054-1.068A14.952,14.952,0,0,0,512,433.09c.16.624.217,1.034-.382,1.364a.839.839,0,0,1-1.116-.226A10.048,10.048,0,0,1,509.468,430.243Z" transform="translate(1514.808 597.613) rotate(120)" fill="#fb8181"/><path d="M551.166,483.739c.124.139.316.253.132.485a2.924,2.924,0,0,0-.231.394c-.479.854-.479.854-1.341.407a.8.8,0,0,0-.091-.094c-1.007-.743-.991-.729-.239-1.682.275-.348.471-.432.829-.116A6.979,6.979,0,0,0,551.166,483.739Z" transform="translate(1569.634 590.472) rotate(120)" fill="#fb8181"/><path d="M580.487,498.113c.081.408-.18.775-.144,1.178-.082.49-.341.665-.819.469a2.948,2.948,0,0,0-.32-.083c-1.334-.38-1.368-.48-.756-1.757.128-.266.256-.3.51-.219C579.462,497.853,579.976,497.977,580.487,498.113Z" transform="translate(1593.335 574.934) rotate(120)" fill="#fb8181"/><path d="M565.657,345a10.839,10.839,0,0,1-5.612,7.5,4.262,4.262,0,0,1-1.654.819,5.155,5.155,0,0,1-1.2.285,13.482,13.482,0,0,1-2.923.121,11,11,0,0,1-2.214-.485c-.383-.123-.749-.3-1.136-.413a12.8,12.8,0,0,1-2.533-1.674c-.3-.323-.619-.636-.941-.942a8.746,8.746,0,0,1-1.629-2.409,12.553,12.553,0,0,1-.62-1.4,10.628,10.628,0,0,1-.479-2.217c.034-.844-.083-1.69.026-2.533a12.326,12.326,0,0,1,1.11-3.4,10.632,10.632,0,0,1,7.6-5.653c.144-.029.284-.072.429-.1.844-.11,1.69,0,2.533-.031a10.562,10.562,0,0,1,2.239.479,3.821,3.821,0,0,1,1.384.751,11.2,11.2,0,0,1,4.655,4.684,13.321,13.321,0,0,1,1.085,3.541A10.534,10.534,0,0,1,565.657,345Z" transform="translate(326.104 494.36)" fill="#73ca7a"/><path d="M569.331,347.864a7.1,7.1,0,0,1,5.642-.812,8.475,8.475,0,1,1-5.5,15.911C567.887,361.872,567.089,349.388,569.331,347.864Z" transform="translate(308.307 482.109)" fill="#fcf7e2" stroke="rgba(0,0,0,0)" stroke-miterlimit="10" stroke-width="1"/><path d="M564.087,354.018c-.482.679.646,1.565.144,2.235-1.424,1.9-1.158,3.531-1,5.88a3.451,3.451,0,0,1,.857,1.545c.218,1.566-.124,2.4.891,3.563.429.49-1.2,1.4-.747,1.875a7.917,7.917,0,0,1-4.231-4.53A8.442,8.442,0,0,1,563.23,354.4,1.537,1.537,0,0,1,564.087,354.018Z" transform="translate(313.551 475.955)" fill="#fcf7e2" stroke="rgba(0,0,0,0)" stroke-miterlimit="10" stroke-width="1"/><path d="M99.717,0H93.525V1.23h2.184a1.848,1.848,0,0,1,1.74,1.23H93.525v1.23h3.923a1.848,1.848,0,0,1-1.74,1.23H93.525v1.23L97.13,9.757l.87-.87L95.265,6.151h.444a3.081,3.081,0,0,0,3.014-2.46h.995V2.46h-.995a3.063,3.063,0,0,0-.555-1.23h1.55Z" transform="translate(784.476 833)" fill="#999"/><path d="M513.359,294.644a12.769,12.769,0,0,1,4.916-1.372,15.357,15.357,0,0,1,10.519,2.538c.107.074.212.15.446.316-.069-.789-.231-1.614.9-1.492.475-.1.813-.2.91.555a20.83,20.83,0,0,1,.281,2.956c-.071.923-.325,1.168-1.239,1.173-.932.005-1.865-.018-2.8.01-.443.013-.668-.089-.61-.581.044-.371-.083-.821.087-1.1.186-.311.707-.022,1.1-.226a3.049,3.049,0,0,0-.935-.636,10.487,10.487,0,0,0-1.675-.739,17.307,17.307,0,0,0-1.987-.613,7.55,7.55,0,0,0-1.756-.316,11.5,11.5,0,0,0-3.559.1,22.739,22.739,0,0,0-3.073.768,12.379,12.379,0,0,0-6.972,7.555,12.516,12.516,0,0,0-.592,2.329,19.659,19.659,0,0,0-.248,3.407c.129,1.674-.048.6-.774.673-.155.016-.311.017-.465.042-.446.071-.679-.1-.672-.565a16.4,16.4,0,0,1,.7-6.089,19.329,19.329,0,0,1,2.428-4.746,18.607,18.607,0,0,1,2.239-2.092A20.617,20.617,0,0,1,513.359,294.644Z" transform="translate(1408.228 541.021) rotate(120)" fill="#fb8181"/></g></g></svg>