<svg xmlns="http://www.w3.org/2000/svg" width="15" height="13" viewBox="0 0 15 13">
    <path fill="#FFF" d="M10.862 0c2.15 0 3.93 1.75 3.93 3.9v2.6c0 2.15-1.78 3.9-3.93 3.9H6.708l-2.473 2.473c-.125.125-.312.16-.472.094-.162-.067-.267-.225-.267-.4v-2.191C1.548 10.16 0 8.504 0 6.5V3.9C0 1.75 1.778 0 3.929 0h6.933zM7.4 1C5.14 1 2.943 3.517 2 4.887c.74 1.062 2.943 3.896 5.399 3.896 2.257 0 4.455-2.518 5.398-3.887C12.057 3.834 9.854 1 7.4 1zm0 6.226c-1.312 0-2.378-1.047-2.378-2.335 0-1.287 1.066-2.334 2.378-2.334 1.31 0 2.378 1.047 2.378 2.334 0 1.288-1.067 2.335-2.378 2.335zm0-1.556c.437 0 .792-.349.792-.779 0-.43-.355-.778-.792-.778-.438 0-.793.349-.793.778 0 .43.355.779.793.779z"/>
</svg>
