<svg xmlns="http://www.w3.org/2000/svg" xmlns:xlink="http://www.w3.org/1999/xlink" width="35" height="35" viewBox="0 0 35 35"><defs><clipPath id="b"><rect width="35" height="35"/></clipPath></defs><g id="a" clip-path="url(#b)"><g transform="translate(-705 -878)"><g transform="translate(684 857)"><path d="M83.587,80.823,72,89.513v16.95H95.174V89.513Z" transform="translate(-44.977 -53.245)" fill="#fcf7e2"/><path d="M39.228,24.206a1.031,1.031,0,0,0-1.237,0L24,34.7l1.237,1.649,13.373-10.03,13.373,10.03L53.219,34.7Z" fill="#b57a6a"/></g><g transform="translate(714 890.629)"><g transform="translate(0)"><path d="M4.594,16.49H2.121a.71.71,0,0,1-.559-.266.73.73,0,0,1-.148-.612A7.72,7.72,0,0,1,8.766,9.5c.059,0,.118,0,.178,0s.12,0,.18,0a7.653,7.653,0,0,1,2.524.486.7.7,0,0,0,.491-1.308q-.174-.065-.349-.123a4.751,4.751,0,1,0-5.688,0A9.086,9.086,0,0,0,.046,15.327a2.123,2.123,0,0,0,2.075,2.56H4.594a.7.7,0,1,0,0-1.4Zm1-11.738A3.354,3.354,0,1,1,9.107,8.1l-.163,0-.164,0A3.358,3.358,0,0,1,5.59,4.751Z" transform="translate(0)" fill="#fb8181"/></g></g><g transform="translate(725.84 897.824) rotate(45)"><g transform="translate(0.001 0)"><path d="M8.553.889A3.041,3.041,0,0,0,3.509,3.977L.082,7.4A.276.276,0,0,0,0,7.6V9.164a.276.276,0,0,0,.277.277H1.842a.276.276,0,0,0,.2-.081l.391-.391a.277.277,0,0,0,.079-.227l-.049-.42.582-.055a.276.276,0,0,0,.249-.249l.055-.582.42.049a.272.272,0,0,0,.216-.068.277.277,0,0,0,.093-.207V6.693h.506a.276.276,0,0,0,.2-.081l.709-.7a3,3,0,0,0,3.067-.72A3.046,3.046,0,0,0,8.553.889ZM7.77,2.845a.83.83,0,1,1,0-1.173A.83.83,0,0,1,7.77,2.845Z" transform="translate(-0.001 0)" fill="#999"/></g></g></g></g></svg>