<svg xmlns="http://www.w3.org/2000/svg" xmlns:xlink="http://www.w3.org/1999/xlink" width="35" height="35" viewBox="0 0 35 35"><defs><clipPath id="b"><rect width="35" height="35"/></clipPath></defs><g id="a" clip-path="url(#b)"><g transform="translate(-437 -782.444)"><circle cx="5.339" cy="5.339" r="5.339" transform="translate(450.309 794.458)" fill="#fcf7e2"/><g transform="translate(440 786.444)"><path d="M936.01,195.727l-1.322-.792c-6.041,10.38-10.078,16.427-16.123,26.814l1.312.771C920.021,222.293,936.01,195.727,936.01,195.727Z" transform="translate(-911.416 -194.935)" fill="#999" stroke="#999" stroke-width="1.5"/><path d="M980.537,418.135q-.41.695-.808,1.4c.082-.018.25-.034.25-.034s1.5-.382,2.27-.545a32.415,32.415,0,0,1,10.47-.922,1.173,1.173,0,0,0,.293-.065l-.194-1.629C988,416.284,985.248,417.33,980.537,418.135Z" transform="translate(-965.732 -397.513)" fill="#fb8181"/><path d="M1008.463,261l-4.444.089s-.653,1.157-.98,1.735c-.667,1.178-1.347,2.349-2.068,3.5l-.115.182a4.008,4.008,0,0,1-.091,4.09c-.821,1.584-1.745,2.368-3.487,2.15q-.818,1.286-1.61,2.587c.1-.024.211-.047.351-.074.5-.1.682-.174,1.182-.281,4.5-.965,7.673-1.889,12.326-1.583.06,0,.122-.049.229-.1Z" transform="translate(-980.457 -255.383)" fill="#fb8181"/><path d="M858.238,272.043c5.424.476,9.854-1.133,15.168-2.165-.5.861-.913,1.611-1.378,2.328a.78.78,0,0,1-.588.214c-2.371-.117-3.686,1.92-3.8,4.291-.045.911-.45,1.588.051,2.35a.778.778,0,0,1,.021.66c-.757,1.359-1.545,2.7-2.341,4.04a.76.76,0,0,1-.451.361,18.822,18.822,0,0,1-5.375.346C859.108,280.341,858.678,276.239,858.238,272.043Z" transform="translate(-856.217 -263.697)" fill="#fb8181"/><path d="M834.474,322.782l1.424.062c.154,1.43.309,2.829.455,4.229.2,1.94.41,3.879.594,5.822.042.444.184.66.668.656,1.922-.018,3.408-.356,5.368-.356-.328.938-.766,1.59-1.933,1.588-1.872,0-3.306.5-5.256.584Z" transform="translate(-834.474 -311.913)" fill="#fb8181"/></g></g></g></svg>