<svg xmlns="http://www.w3.org/2000/svg" xmlns:xlink="http://www.w3.org/1999/xlink" width="35" height="35" viewBox="0 0 35 35"><defs><clipPath id="b"><rect width="35" height="35"/></clipPath></defs><g id="a" clip-path="url(#b)"><g transform="translate(5.17 -0.379)"><path d="M86.943,257.566H79.6c-.182,0-.362.01-.54.025a3.013,3.013,0,0,0-1.352.413,4.37,4.37,0,0,0-1.342,1.117l-.456.622-1.677,2.6a7.454,7.454,0,0,0-1.1,3.447,5.454,5.454,0,0,0,.917,3s-5.1-.381-4.518.876,6.835,4.153,6.835,4.153l13.646-.49,1.762-4.878.493-2.464v-3.1a5.321,5.321,0,0,0-5.321-5.321Zm0,0" transform="translate(-67.398 -238.444)" fill="#73ca7a"/><path d="M156.734,205.094h-1.952a1.774,1.774,0,0,1-1.774-1.774v-4.755h6.208v4.046A2.482,2.482,0,0,1,156.734,205.094Zm0,0" transform="translate(-141.198 -183.805)" fill="#fcf7e2"/><path d="M80.586,257.566h-.7c-.182,0-.362.01-.54.025a3.013,3.013,0,0,0-1.352.413,4.37,4.37,0,0,0-1.342,1.117l-.456.622-1.677,2.6a5.359,5.359,0,0,0,.027,5.956l.616.939.26.626,6.549-1.3v-8.832Zm0,0" transform="translate(-67.686 -238.444)" fill="#e8e1c6"/><path d="M186.508,286.9l.894.469a.591.591,0,0,1,.309.614l-1.2,7.749Zm0,0" transform="translate(-172.222 -265.608)" fill="#589f5e"/><path d="M119.964,329.136a4.131,4.131,0,0,1-5.133,2.789l-5.923-1.752a4.131,4.131,0,1,1,2.344-7.923L117.174,324A4.131,4.131,0,0,1,119.964,329.136Zm0,0" transform="translate(-97.616 -298.19)" fill="#fb8181"/><path d="M74.027,52.1l13.3-1.163L88.5,64.4l-10.455.915a2.852,2.852,0,0,1-3.09-2.593Zm0,0" transform="translate(-68.055 -47.084)" fill="#999"/><path d="M159.867,291.04l.384-4.155.054-1.252a2.727,2.727,0,0,0-2.467-2.857,2.685,2.685,0,0,0-2.9,2.561l-.15,3.47-.025.591-.008.182a.3.3,0,0,1-.272.282l-5.38.459,4.23-.189,1.15,1.134.305,1.56-.305,1.938,3.119-.424a2.069,2.069,0,0,0,2.038-1.771Zm0,0" transform="translate(-134.71 -261.783)" fill="#fcf7e2"/><path d="M87.558,42.018a6.817,6.817,0,0,1-7.386-6.2L79.908,32.8a6.818,6.818,0,0,1,13.583-1.189l.264,3.019A6.817,6.817,0,0,1,87.558,42.018Zm0,0" transform="translate(-73.477 -23.427)" fill="#fcf7e2"/><g transform="translate(8.685 11.48)"><path d="M183.384,156.24a.517.517,0,0,1-.56-.47l-.09-1.031a.517.517,0,0,1,1.031-.09l.09,1.031A.517.517,0,0,1,183.384,156.24Zm0,0" transform="translate(-177.41 -154.176)" fill="#999"/><path d="M111.384,164.24a.517.517,0,0,1-.56-.47l-.09-1.031a.517.517,0,0,1,1.031-.09l.09,1.031A.517.517,0,0,1,111.384,164.24Zm0,0" transform="translate(-110.731 -161.585)" fill="#999"/><path d="M142.98,210.6a1.8,1.8,0,0,1-.721-.139.8.8,0,0,1-.523-.634.3.3,0,1,1,.589-.052c0,.028.051.09.174.145a1.329,1.329,0,0,0,.624.082c.48-.042.754-.272.747-.362a.3.3,0,1,1,.589-.051c.044.5-.508.935-1.284,1-.065.006-.13.008-.194.008Zm0,0" transform="translate(-139.443 -205.24)" fill="#999"/></g><path d="M63.042,19.973l-5.186.454a.587.587,0,0,1-.636-.533L56.933,16.6A5.573,5.573,0,0,1,62,10.567l1.907-.167a1.974,1.974,0,0,1,2.139,1.795l.333,3.8a3.669,3.669,0,0,1-3.335,3.975Zm0,0" transform="translate(-52.204 -9.539)" fill="#999"/><path d="M181.713,16.628a2.578,2.578,0,0,0-.053-.329L179.786,8.04a5.346,5.346,0,0,0-3.2-3.714,2.324,2.324,0,0,0-.264-.092,9.05,9.05,0,0,0-3.955-.071,2.429,2.429,0,0,0-.881.354,2.886,2.886,0,0,0-1.28,2.658l.1,1.127a5.236,5.236,0,0,0,3.108,4.338,2.554,2.554,0,0,1,1.509,2.1l.471,5.056A1.392,1.392,0,0,0,176.928,21l.945-.078a4.048,4.048,0,0,0,3.841-4.3Zm0,0" transform="translate(-157.117 -3.596)" fill="#999"/><path d="M216.556,141.922a1.774,1.774,0,1,1-1.774-1.774A1.774,1.774,0,0,1,216.556,141.922Zm0,0" transform="translate(-196.764 -129.704)" fill="#fcf7e2"/><path d="M35.273,270.308a4.379,4.379,0,0,1-6.192.127l-.208-.2a4.379,4.379,0,1,1,6.065-6.318l.208.2A4.379,4.379,0,0,1,35.273,270.308Zm0,0" transform="translate(-24.992 -243.196)" fill="#999"/><path d="M21.688,363.154a.948.948,0,0,0,.666-.759l.153-1.9a1.323,1.323,0,0,0-.706-1.043l-1.317-.581a1.182,1.182,0,0,0-.55-.1l-2.249.137-10.5-2.624a1.991,1.991,0,0,0-2.131.874l-.275.4a1.986,1.986,0,0,0-.187,1.837l.277.686a2.145,2.145,0,0,0,1.7,1.38l10.642,1.268,1.668.836a1.181,1.181,0,0,0,.823.088Zm0,0" transform="translate(-3.621 -329.818)" fill="#fcf7e2"/></g></g></svg>