<svg xmlns="http://www.w3.org/2000/svg" xmlns:xlink="http://www.w3.org/1999/xlink" width="35" height="35" viewBox="0 0 35 35"><defs><clipPath id="b"><rect width="35" height="35"/></clipPath></defs><g id="a" clip-path="url(#b)"><g transform="translate(-32.03 7.418)"><g transform="translate(36.03 -6.418)"><path d="M402.48,300.109l.006-.009C402.5,300.072,402.479,300.11,402.48,300.109Z" transform="translate(-380.219 -279.561)" fill="#fb8181"/><path d="M402.493,199.354l-.006-.01.012.022Z" transform="translate(-380.225 -184.936)" fill="#fb8181"/><path d="M405.969,55.013Z" transform="translate(-383.489 -43.492)" fill="#fb8181"/><g transform="translate(9.029 8.171)"><path d="M292.844,383.295Z" transform="translate(-286.272 -364.499)" fill="#999"/><path d="M196.962,1.927A8.072,8.072,0,0,0,194.74,4.12a5.254,5.254,0,0,0-.845,2.749,5.928,5.928,0,0,0,.179,1.431,7.577,7.577,0,0,0,.517,1.4c.141.33.362.635.517.961a4.124,4.124,0,0,1,.237.646,1.565,1.565,0,0,1,.039.637,1.226,1.226,0,0,1-.242.554,2.4,2.4,0,0,1-.532.484,5.887,5.887,0,0,1-.657.41,14.776,14.776,0,0,1-3.214,1.195l-.108.028-2.295,3.819.095-.025c.553-.148,1.1-.3,1.646-.474q.35-.109.7-.224l.064-.022s.03.06.044.084l.353.646.146.267.025.046-.2.074.021-.008-.027.01c-.912.337-1.845.64-2.788.915q-.509.149-1.023.287l-2.735,4.552c.415-.121.828-.247,1.239-.375q1.642-.512,3.241-1.107a41.069,41.069,0,0,0,6.214-2.855,15.067,15.067,0,0,0,4.757-3.977,6.454,6.454,0,0,0,1.159-2.634,5.221,5.221,0,0,0-.315-2.832,6.576,6.576,0,0,0-1.018-1.709c-.192-.234-.394-.459-.6-.682-.119-.126-.251-.246-.381-.365a5.027,5.027,0,0,1-.514-.586,2.993,2.993,0,0,1-.566-1.125,2.586,2.586,0,0,1,.081-1.458C198.253,3.934,197.819,1.327,196.962,1.927Zm.962,12.749s-.012.019-.031.044l-.006.007a8.936,8.936,0,0,1-1.808,1.664,17.291,17.291,0,0,1-2.113,1.236l-.654-.9a14.132,14.132,0,0,0,2.6-1.487,7.27,7.27,0,0,0,1.034-.952l.073-.077.9.463m-.037-4.9.006.008c.015.023.013.019.006.01a4.485,4.485,0,0,1,.885,2.516l-.956-.015a3.6,3.6,0,0,0-.5-1.917,9.813,9.813,0,0,0-.634-.96c-.193-.272-.361-.549-.524-.833l.372-.135.3-.111.02.034c.147.228.3.45.465.669C197.517,9.282,197.712,9.522,197.887,9.773Zm.218-7.07a6.982,6.982,0,0,0-1.4,1.687,3.711,3.711,0,0,0-.5,1.866l-.62-.007a4.366,4.366,0,0,1,.91-2.42,7.692,7.692,0,0,1,.953-1.044c.085-.079.176-.154.265-.23.032-.027.13-.115.13-.115l.291.226,0,0C198.13,2.68,198.118,2.691,198.105,2.7Z" transform="translate(-184.654 0)" fill="#999"/></g><path d="M51.531,90.277a7.751,7.751,0,1,0-14.672,3.484l6.922,14.274L50.7,93.758A7.7,7.7,0,0,0,51.531,90.277ZM43.78,94.566a4.289,4.289,0,1,1,4.289-4.289A4.294,4.294,0,0,1,43.78,94.566Z" transform="translate(-36.03 -75.214)" fill="#fb8181"/><path d="M43.035,86.029A3.5,3.5,0,1,0,36.4,87.6l3.128,6.451L42.661,87.6A3.481,3.481,0,0,0,43.035,86.029Zm-3.5,1.938a1.938,1.938,0,1,1,1.938-1.938A1.941,1.941,0,0,1,39.533,87.967Z" transform="translate(-14.676 -80.526)" fill="#73ca7a"/></g></g></g></svg>