<svg xmlns="http://www.w3.org/2000/svg" xmlns:xlink="http://www.w3.org/1999/xlink" width="35" height="35" viewBox="0 0 35 35"><defs><clipPath id="b"><rect width="35" height="35"/></clipPath></defs><g id="a" clip-path="url(#b)"><g transform="translate(-865.891 -290.891)"><g transform="translate(342 69)"><g transform="translate(502.891 200.891)"><circle cx="1.5" cy="1.5" r="1.5" transform="translate(37.109 43.109)" fill="#c7eff2"/><path d="M83.587,80.823,72,89.513v16.95H95.174V89.513Z" transform="translate(-44.977 -53.245)" fill="#fcf7e2"/></g><g transform="translate(502.891 200.891)"><path d="M39.228,24.206a1.031,1.031,0,0,0-1.237,0L24,34.7l1.237,1.649,13.373-10.03,13.373,10.03L53.219,34.7Z" fill="#b57a6a"/></g></g><path d="M-5952.872,10.076H-5970V9.068h17.128v1.007Zm-1.51-2.015h-14.106L-5969.5,0h16.12l-1.007,8.06Zm-7.118-6.08a1.5,1.5,0,0,0-1.5,1.5,1.5,1.5,0,0,0,1.5,1.5,1.5,1.5,0,0,0,1.5-1.5A1.5,1.5,0,0,0-5961.5,1.981Z" transform="translate(6845 311.019)" fill="#999"/><path d="M78.549,92.358a1.511,1.511,0,0,1,1.511-1.511h3.526a2.519,2.519,0,1,1,2.519-2.519,2.519,2.519,0,0,1-2.519,2.519h3.526a1.511,1.511,0,0,1,1.511,1.511v1.008H78.549Z" transform="translate(799.913 216.646)" fill="#fb8181"/></g></g></svg>