<svg xmlns="http://www.w3.org/2000/svg" width="35" height="34" viewBox="0 0 35 34">
  <g fill="#CCC" transform="translate(1 1)">
    <path stroke="#CCC" stroke-width="2" d="M31.8654501,15.2657391 L29.1089284,15.2657391 C28.7593632,8.91002899 23.6510733,3.80173913 17.2953632,3.45217391 L17.2953632,0.695652174 C17.2953632,0.311536232 16.9838269,2.30926389e-14 16.599711,2.30926389e-14 C16.215595,2.30926389e-14 15.9040588,0.311536232 15.9040588,0.695652174 L15.9040588,4.12811594 C15.9040588,4.51223188 16.215595,4.82376812 16.599711,4.82376812 C22.7410443,4.82376812 27.7373342,9.82005797 27.7373342,15.9613913 C27.7373342,22.1027246 22.7410443,27.0990145 16.599711,27.0990145 C10.4583776,27.0990145 5.46208779,22.1027246 5.46208779,15.9613913 C5.46208779,11.6966957 7.94927619,7.75072464 11.7984356,5.90875362 C12.1449863,5.74284058 12.2915371,5.32753623 12.125624,4.98098551 C11.9598269,4.63455072 11.5441747,4.488 11.1978559,4.6537971 C9.09571098,5.65971014 7.31692837,7.22968116 6.05397185,9.19385507 C4.88179793,11.0169275 4.21084141,13.1031884 4.09176895,15.2657391 L1.33397185,15.2657391 C0.949855904,15.2657391 0.638319672,15.5772754 0.638319672,15.9613913 C0.638319672,16.3455072 0.949855904,16.6570435 1.33397185,16.6570435 L4.09049359,16.6570435 C4.4400588,23.0127536 9.54834866,28.1210435 15.9040588,28.4706087 L15.9040588,31.2271304 C15.9040588,31.6112464 16.215595,31.9227826 16.599711,31.9227826 C16.9838269,31.9227826 17.2953632,31.6112464 17.2953632,31.2271304 L17.2953632,28.4706087 C23.6510733,28.1210435 28.7593632,23.0127536 29.1089284,16.6570435 L31.8654501,16.6570435 C32.249566,16.6570435 32.5611023,16.3455072 32.5611023,15.9613913 C32.5611023,15.5772754 32.249566,15.2657391 31.8654501,15.2657391 Z"/>
    <circle cx="17" cy="16" r="3"/>
  </g>
</svg>
