<?xml version="1.0" encoding="utf-8"?>
<!-- Generator: Adobe Illustrator 23.0.1, SVG Export Plug-In . SVG Version: 6.00 Build 0)  -->
<svg version="1.1" id="Layer_1" xmlns="http://www.w3.org/2000/svg" xmlns:xlink="http://www.w3.org/1999/xlink" x="0px" y="0px"
	 viewBox="0 0 32 32" style="enable-background:new 0 0 32 32;" xml:space="preserve">
<style type="text/css">
	.st0{fill:#CCCCCC;}
</style>
<g>
	<path class="st0" d="M17.16,7.26c-0.04-0.73-0.79-0.61-1.52-0.61C16.18,6.8,16.69,7,17.16,7.26z"/>
	<path class="st0" d="M9.35,5.42c-2.84,0-4.14,3.59-1.88,5.4c0.77-2.06,2.31-3.55,4.33-4.13C11.25,5.92,10.36,5.42,9.35,5.42z"/>
	<path class="st0" d="M3.48,10.26c0.12,0.37,0.27,0.73,0.44,1.06l-0.93,0.93c-0.25,0.25-0.25,0.66,0,0.91l1.64,1.64
		c0.12,0.12,0.28,0.19,0.45,0.19c0.17,0,0.33-0.07,0.45-0.19l0.93-0.93c0.14,0.07,0.29,0.12,0.44,0.18c0-0.01,0-0.02,0-0.03
		c0-0.76,0.09-1.48,0.24-2.16c-1.12-0.72-1.87-1.98-1.87-3.41c0-2.24,1.82-4.06,4.06-4.06c1.52,0,2.83,0.84,3.52,2.08
		c0.75-0.09,1.45-0.09,2.29,0.07c-0.11-0.33-0.24-0.65-0.4-0.95l0.93-0.93c0.12-0.12,0.19-0.28,0.19-0.45
		c0-0.17-0.07-0.33-0.19-0.45L14.06,2.1c-0.13-0.13-0.29-0.19-0.45-0.19s-0.33,0.06-0.45,0.19l-0.94,0.93
		c-0.34-0.18-0.69-0.33-1.06-0.44V1.28c0-0.35-0.29-0.64-0.64-0.64H8.18c-0.35,0-0.64,0.29-0.64,0.64V2.6
		C7.17,2.71,6.82,2.86,6.48,3.04L5.55,2.1C5.42,1.98,5.26,1.92,5.09,1.92c-0.16,0-0.33,0.06-0.45,0.19L2.99,3.75
		C2.88,3.87,2.81,4.03,2.81,4.2c0,0.17,0.07,0.33,0.19,0.45l0.93,0.93C3.75,5.92,3.6,6.28,3.49,6.65H2.17
		c-0.35,0-0.64,0.29-0.64,0.64v2.32c0,0.35,0.29,0.64,0.64,0.64h1.31V10.26z"/>
	<path class="st0" d="M23.61,22.69c1.03-0.56,1.73-1.64,1.73-2.89c0-1.83-1.49-3.31-3.31-3.31c-0.64,0-1.24,0.19-1.75,0.51
		c-0.3,1.21-0.78,2.37-1.41,3.38C20.65,20.71,22.29,21.52,23.61,22.69z"/>
	<path class="st0" d="M30.47,18.55c0-0.38-0.31-0.69-0.69-0.69h-1.42c-0.12-0.4-0.29-0.78-0.48-1.15l1.01-1.01
		c0.13-0.13,0.2-0.31,0.2-0.49c0-0.18-0.07-0.36-0.2-0.49l-1.77-1.77c-0.13-0.14-0.31-0.2-0.49-0.2s-0.35,0.07-0.49,0.2l-1.01,1.01
		c-0.36-0.19-0.75-0.35-1.15-0.48v-1.42c0-0.38-0.31-0.69-0.69-0.69h-2.51c-0.17,0-0.32,0.07-0.44,0.17
		c0.21,0.77,0.33,1.61,0.33,2.5c0,0.57-0.04,1.14-0.13,1.71c0.47-0.17,0.96-0.28,1.49-0.28c2.4,0,4.34,1.95,4.34,4.34
		c0,1.53-0.8,2.87-2,3.65c0.87,0.96,1.57,2.09,2.02,3.37c0.07,0.03,0.15,0.04,0.23,0.04c0.18,0,0.35-0.07,0.49-0.2l1.77-1.77
		c0.13-0.13,0.2-0.31,0.2-0.49s-0.07-0.36-0.2-0.49l-1.01-1.01c0.19-0.36,0.36-0.75,0.48-1.15h1.42c0.18,0,0.36-0.07,0.49-0.2
		c0.13-0.13,0.2-0.31,0.2-0.49L30.47,18.55z"/>
	<path class="st0" d="M24.98,27.44c-1.08-3.16-3.92-5.34-7.19-5.63c-1.1,1.16-2.46,1.9-4,1.9s-2.9-0.74-4-1.9
		c-3.28,0.3-6.12,2.47-7.2,5.64L2,29.2c-0.17,0.5-0.09,1.06,0.22,1.49s0.81,0.69,1.34,0.69h20.45c0.53,0,1.03-0.26,1.34-0.69
		s0.39-0.99,0.22-1.49L24.98,27.44z"/>
	<path class="st0" d="M8.46,14.03c0,3.92,2.39,8.13,5.33,8.13c2.95,0,5.33-4.21,5.33-8.13C19.13,5.89,8.46,5.88,8.46,14.03z"/>
</g>
</svg>
