<svg xmlns="http://www.w3.org/2000/svg" width="32" height="30" viewBox="0 0 32 30">
  <g fill="#CCC" fill-rule="evenodd">
    <path d="M19.2544774 5.01816058L8.58037888 5.01816058C7.7908768 5.01816058 7.15081211 5.65822527 7.15081211 6.44772734 7.15081211 7.23722942 7.7908768 7.87729411 8.58037888 7.87729411L19.2544774 7.87729411C20.0439795 7.87729411 20.6840442 7.23722942 20.6840442 6.44772734 20.6840442 5.65822527 20.0439795 5.01816058 19.2544774 5.01816058zM19.2544774 10.4505143L8.58037888 10.4505143C7.7908768 10.4505143 7.15081211 11.090579 7.15081211 11.8800811 7.15081211 12.6695831 7.7908768 13.3096478 8.58037888 13.3096478L19.2544774 13.3096478C20.0439795 13.3096478 20.6840442 12.6695831 20.6840442 11.8800811 20.6840442 11.090579 20.0439795 10.4505143 19.2544774 10.4505143zM19.2544774 15.882868L8.58037888 15.882868C7.7908768 15.882868 7.15081211 16.5229327 7.15081211 17.3124348 7.15081211 18.1019369 7.7908768 18.7420016 8.58037888 18.7420016L19.2544774 18.7420016C20.0439795 18.7420016 20.6840442 18.1019369 20.6840442 17.3124348 20.6840442 16.5229327 20.0439795 15.882868 19.2544774 15.882868zM19.2544774 21.3152217L8.58037888 21.3152217C7.7908768 21.3152217 7.15081211 21.9552864 7.15081211 22.7447885 7.15081211 23.5342906 7.7908768 24.1743553 8.58037888 24.1743553L19.2544774 24.1743553C20.0439795 24.1743553 20.6840442 23.5342906 20.6840442 22.7447885 20.6840442 21.9552864 20.0439795 21.3152217 19.2544774 21.3152217z"/>
    <path d="M31.0327733,18.6181058 C30.919361,18.4000492 30.6847215,18.2654793 30.4050982,18.2654793 L27.3553558,18.2654793 L27.3553558,2.18285315 C27.3553558,0.993739513 26.4344289,0.0623291111 25.2586578,0.0623291111 L2.6715029,0.0623291111 C1.46275654,0.0623291111 0.47950052,1.01356284 0.47950052,2.18285315 L0.47950052,27.0573149 C0.47950052,28.2326094 1.48334231,29.2254912 2.6715029,29.2254912 L21.923002,29.2254912 C22.5808887,29.2254912 23.1143077,28.6920722 23.1143077,28.0341855 C23.1143077,27.3762989 22.5808887,26.8428799 21.923002,26.8428799 L2.8621118,26.8428799 L2.8621118,2.44494039 L24.9727445,2.44494039 L24.9727445,18.2654793 L21.9401569,18.2654793 C21.6605336,18.2654793 21.425894,18.4002398 21.3123864,18.6182964 C21.1988788,18.836353 21.2269936,19.105588 21.387391,19.334414 L25.5633462,25.2962793 C25.7110681,25.5072833 25.9331274,25.6287965 26.1724369,25.6287965 C26.4117464,25.6287965 26.6338058,25.5081411 26.7814324,25.2972323 L30.9579593,19.3339375 C31.1182614,19.1051115 31.1461856,18.836067 31.0327733,18.6181058 Z"/>
  </g>
</svg>
