<svg xmlns="http://www.w3.org/2000/svg" width="32" height="32" viewBox="0 0 32 32">
  <path fill="#CCC" fill-rule="evenodd" d="M31.323234,16.3234043 C31.323234,19.8420426 28.4595745,22.706383 24.9402553,22.706383 C23.2483404,22.706383 21.8764255,21.3337872 21.8764255,19.6425532 L21.8764255,13.0042553 C21.8764255,11.7569362 22.6246809,10.6886809 23.6949787,10.2100426 C22.7499574,6.6893617 19.5411064,4.08510638 15.7276596,4.08510638 C11.9142128,4.08510638 8.7053617,6.6893617 7.76102128,10.2100426 C8.8306383,10.688 9.57889362,11.7562553 9.57889362,13.0042553 L9.57889362,19.6425532 C9.57889362,21.0750638 8.59097872,22.2692766 7.2612766,22.6049362 C8.43914894,24.7884255 10.4381277,26.4653617 12.8401702,27.2224681 C13.2929362,26.0670638 14.4129362,25.2425532 15.7276596,25.2425532 C17.4406809,25.2425532 18.834383,26.6362553 18.834383,28.3485957 C18.834383,30.0609362 17.4406809,31.4553191 15.7276596,31.4553191 C14.0949787,31.4553191 12.7659574,30.1841702 12.6454468,28.580766 C9.59591489,27.6868085 7.09923404,25.5026383 5.77702128,22.660766 C2.60561702,22.2931064 0.132085106,19.5928511 0.132085106,16.3227234 C0.132085106,13.8893617 1.50195745,11.7705532 3.51114894,10.6941277 C4.31931915,4.66723404 9.48221277,2.13162821e-14 15.7276596,2.13162821e-14 C21.9724255,2.13162821e-14 27.136,4.66723404 27.9441702,10.6948085 C29.9540426,11.7705532 31.323234,13.8893617 31.323234,16.3234043 Z"/>
</svg>
