<svg xmlns="http://www.w3.org/2000/svg" width="32" height="32" viewBox="0 0 32 32">
    <g fill="#D2D2D2" fill-rule="evenodd">
        <path d="M4.112 0h23.776a4.112 4.112 0 0 1 0 8.225H4.112a4.112 4.112 0 1 1 0-8.225zm.386 6.426a2.313 2.313 0 1 0 0-4.627 2.313 2.313 0 0 0 0 4.627zM4.112 11.952h23.776a4.112 4.112 0 0 1 0 8.225H4.112a4.112 4.112 0 0 1 0-8.225zm.386 6.426a2.313 2.313 0 1 0 0-4.627 2.313 2.313 0 0 0 0 4.627zM4.112 23.775h23.776a4.112 4.112 0 0 1 0 8.225H4.112a4.112 4.112 0 0 1 0-8.225zm.386 6.426a2.313 2.313 0 1 0 0-4.627 2.313 2.313 0 0 0 0 4.627z"/>
    </g>
</svg>
