<svg xmlns="http://www.w3.org/2000/svg" width="32" height="32" viewBox="0 0 32 32">
  <g fill="#CCC" fill-rule="evenodd">
    <path d="M11.9605106 10.8514043L10.0139574 9.01174468C10.2406809 8.59982979 10.3809362 8.13344681 10.3809362 7.63029787 10.3809362 6.03574468 9.0893617 4.74417021 7.49412766 4.74417021 5.89889362 4.74417021 4.6052766 6.03506383 4.6052766 7.63029787 4.6052766 9.22553191 5.89889362 10.5177872 7.49412766 10.5177872 8.05651064 10.5177872 8.57668085 10.3502979 9.02059574 10.0725106L10.9644255 11.9101277C11.2585532 11.5213617 11.5901277 11.1652766 11.9605106 10.8514043zM20.1940426 10.6212766L22.7805957 6.26859574C23.035234 6.34144681 23.2994043 6.39387234 23.5765106 6.39387234 25.1744681 6.39387234 26.4660426 5.10161702 26.4660426 3.50638298 26.4660426 1.91182979 25.1744681.620255319 23.5765106.620255319 21.9812766.620255319 20.690383 1.91114894 20.690383 3.50638298 20.690383 4.29821277 21.0097021 5.01378723 21.5257872 5.536L18.9474043 9.87642553C19.3906383 10.0772766 19.8086809 10.3278298 20.1940426 10.6212766zM29.1145532 14.2651915C27.8726809 14.2651915 26.820766 15.0542979 26.4129362 16.1545532L22.8194043 15.7998298C22.8194043 15.8270638 22.8234894 15.8529362 22.8234894 15.8794894 22.8234894 16.3479149 22.7717447 16.8054468 22.6784681 17.2473191L26.2706383 17.6020426C26.4878298 18.9800851 27.6745532 20.036766 29.1145532 20.036766 30.7091064 20.036766 32 18.7458723 32 17.1513191 32 15.5574468 30.7091064 14.2651915 29.1145532 14.2651915zM19.1979574 25.6163404L18.3945532 22.1058723C17.9411064 22.2638298 17.4692766 22.3768511 16.9770213 22.4333617L17.7817872 25.9445106C16.859234 26.427234 16.2226383 27.3811064 16.2226383 28.4949787 16.2226383 30.0895319 17.5135319 31.3797447 19.1114894 31.3797447 20.7060426 31.3797447 21.9969362 30.0888511 21.9969362 28.4949787 21.9989787 26.9297021 20.7516596 25.6626383 19.1979574 25.6163404zM9.77497872 17.2731915L5.30178723 18.7717447C4.78570213 17.9833191 3.89719149 17.4604255 2.88612766 17.4604255 1.29089362 17.4604255 3.55271368e-15 18.752 3.55271368e-15 20.3465532 3.55271368e-15 21.9431489 1.29089362 23.2347234 2.88612766 23.2347234 4.48 23.2347234 5.77429787 21.9431489 5.77429787 20.3465532 5.77429787 20.2798298 5.76 20.2185532 5.75455319 20.1531915L10.2420426 18.6505532C10.0398298 18.2141277 9.87914894 17.7545532 9.77497872 17.2731915z"/>
    <circle cx="16.225" cy="15.879" r="4.95"/>
  </g>
</svg>
