<svg xmlns="http://www.w3.org/2000/svg" width="31" height="32" viewBox="0 0 31 32">
  <g fill="#CCC" fill-rule="evenodd">
    <path d="M16.9188125,26.078625 C16.86875,25.89175 16.6866875,25.77225 16.4953125,25.8008125 C9.876,26.79025 3.814875,21.6356875 3.814875,14.865625 C3.814875,8.7705 8.7736875,3.8116875 14.8688125,3.8116875 C22.3204375,3.8116875 27.683125,11.0943125 25.39825,18.2266875 C25.331625,18.4345625 25.4506875,18.6559375 25.6615625,18.7124375 L28.168375,19.3840625 C28.2974375,19.4186875 28.4225625,19.462875 28.543,19.5158125 C28.751625,19.6074375 28.9946875,19.500625 29.0624375,19.2830625 C32.054,9.672625 24.8144375,0 14.8688125,0 C6.671875,0 0.0031875,6.66875 0.0031875,14.865625 C0.0031875,24.3144375 8.6073125,31.0858125 17.412375,29.5224375 C17.6326875,29.4833125 17.7725,29.26375 17.714625,29.047625 L16.9188125,26.078625 Z"/>
    <path d="M14.9194375 10.8796875C15.8294375 10.8796875 16.2998125 11.503125 16.290125 12.108875 16.2798125 12.754125 16.804125 13.2794375 17.448875 13.2709375 18.099375 13.262375 18.5911875 12.694375 18.576 12.044 18.53925 10.4679375 17.4654375 9.1445625 16.01225 8.729125L16.01225 8.22325C16.01225 7.6075 15.5390625 7.07775 14.924 7.0488125 14.2673125 7.017875 13.72525 7.541125 13.72525 8.191L13.72525 8.790375C12.2066875 9.3003125 11.1295 10.717125 11.1611875 12.3729375 11.1995625 14.3780625 12.86275 16.0093125 14.86875 16.0093125 15.4388125 16.0093125 15.9365625 16.353 16.16175 16.84375 16.2501875 17.036375 16.4864375 17.1121875 16.6750625 17.0155 17.085375 16.80525 17.5424375 16.7076875 17.995875 16.7265625 18.2669375 16.7378125 18.4581875 16.4643125 18.36775 16.2085 17.8594375 14.770625 16.4829375 13.73 14.8864375 13.72225 14.25375 13.7191875 13.68225 13.302875 13.5044375 12.6956875 13.2283125 11.7520625 13.9939375 10.8796875 14.9194375 10.8796875zM15.739375 22.2800625C15.818 22.1874375 15.84175 22.06 15.810375 21.942625 15.2810625 19.9676875 15.1960625 19.7999375 15.226375 19.2523125 15.2375625 19.049125 15.0864375 18.8515625 14.8181875 18.8515625 13.9081875 18.8515625 13.4378125 18.2280625 13.4475 17.622375 13.4578125 16.977125 12.9335 16.4518125 12.28875 16.4603125 11.63825 16.4689375 11.1464375 17.036875 11.161625 17.68725 11.198375 19.263375 12.2721875 20.5866875 13.725375 21.002125L13.725375 21.50875C13.7253125 22.600625 15.050125 23.0920625 15.739375 22.2800625zM30.161875 27.2684375L26.975625 24.081375 28.286625 22.7699375C28.9076875 22.1485 28.6234375 21.0845 27.77375 20.8569375L18.1851875 18.287875C17.3365625 18.060625 16.5569375 18.8386875 16.7846875 19.6884375 16.80525 19.76525 19.2808125 29.0015 19.311625 29.1165 19.62175 30.2759375 20.7114375 30.346 21.267625 29.789625L22.5786875 28.4785625 25.7651875 31.665C26.21175 32.111625 26.9358125 32.1115 27.3823125 31.665L30.1618125 28.8855C30.608375 28.439 30.6085 27.715125 30.161875 27.2684375z"/>
  </g>
</svg>
