<svg xmlns="http://www.w3.org/2000/svg" width="29" height="32" viewBox="0 0 29 32">
  <g fill="#CCC" fill-rule="evenodd">
    <path d="M14.1525879 21.6047363C16.7424316 21.6047363 18.8493653 19.4978028 18.8493653 16.907959 18.8493653 14.3183594 16.7424316 12.2114258 14.1525879 12.2114258 11.5629883 12.2114258 9.45605469 14.3183594 9.45605469 16.907959 9.45605469 19.4978028 11.5629883 21.6047363 14.1525879 21.6047363zM14.1525879 5.63598631C15.706543 5.63598631 16.9707031 4.37182619 16.9707031 2.81811525 16.9707031 1.26416013 15.706543 1.42108547e-14 14.1525879 1.42108547e-14 12.5988769 1.42108547e-14 11.3347168 1.26416013 11.3347168 2.81811525 11.3347168 4.37182619 12.5988769 5.63598631 14.1525879 5.63598631zM6.63793944 9.39331056C8.1918945 9.39331056 9.45605469 8.12915038 9.45605469 6.57543944 9.45605469 5.02148438 8.1918945 3.75732425 6.63793944 3.75732425 5.0842285 3.75732425 3.82006837 5.02148438 3.82006837 6.57543944 3.82006837 8.12915038 5.0842285 9.39331056 6.63793944 9.39331056zM21.6672363 9.39331056C23.2211914 9.39331056 24.4853516 8.12915038 24.4853516 6.57543944 24.4853516 5.02148438 23.2211914 3.75732425 21.6672363 3.75732425 20.1135254 3.75732425 18.8493653 5.02148438 18.8493653 6.57543944 18.8493653 8.12915038 20.1135254 9.39331056 21.6672363 9.39331056L21.6672363 9.39331056zM6.2231445 14.2419434C6.248291 14.0905762 6.262207 13.9353027 6.262207 13.7768555 6.262207 12.2231445 4.99804687 10.9589844 3.44433594 10.9589844 2.05346681 10.9589844.895751937 11.9716797.667724625 13.2983399 1.3125 12.9645996 2.04321287 12.7749024 2.81811525 12.7749024 4.15747069 12.7749024 5.36669925 13.3395996 6.2231445 14.2419434z"/>
    <path d="M25.4873047,14.6535644 C23.9333496,14.6535644 22.6691894,15.9177246 22.6691894,17.4716797 L22.6691894,17.5341797 C22.6691894,18.7426758 21.6860351,19.7260742 20.4775391,19.7260742 L20.0927734,19.7260742 C19.0354004,21.9455566 16.7702637,23.4833984 14.1525879,23.4833984 C11.5349121,23.4833984 9.26977538,21.9455566 8.2126465,19.7260742 L7.82788088,19.7260742 C6.61914063,19.7260742 5.63598631,18.7426758 5.63598631,17.5341797 L5.63598631,17.4716797 C5.63598631,15.9177246 4.37182619,14.6535644 2.81811525,14.6535644 C1.26416013,14.6535644 0,15.9177246 0,17.4716797 L0,17.5341797 C0,21.8505859 3.51147463,25.3620606 7.82788088,25.3620606 L8.20361325,25.3620606 L8.20361325,32 L20.1018066,32 L20.1018066,25.3620606 L20.4775391,25.3620606 C24.7937012,25.3620606 28.3051758,21.8505859 28.3051758,17.5341797 L28.3051758,17.4716797 C28.3051758,15.9177246 27.0410156,14.6535644 25.4873047,14.6535644 Z"/>
  </g>
</svg>
