<svg xmlns="http://www.w3.org/2000/svg" width="31" height="32" viewBox="0 0 31 32">
  <g fill="#CCC" fill-rule="evenodd">
    <path d="M17.1533639,25.333718 C17.1533639,21.1087738 20.5783082,17.6840393 24.8030426,17.6840393 C25.6923279,17.6840393 26.2676984,17.7902164 26.8708721,17.9684721 C27.2770098,18.1406426 27.4323934,17.8014426 27.4747803,17.6432262 C27.7511344,16.6109377 27.9060984,15.5581902 27.9060984,14.4975738 C27.9060984,14.4265443 27.8664393,5.3975082 27.8664393,5.28598033 C27.8664393,4.39554098 27.356223,4.39763934 27.1284459,4.39879344 C25.4940328,4.40655738 23.8280393,4.4072918 22.0754885,3.90211148 C18.4344131,2.85230164 15.197377,-2.84217094e-14 13.9667934,-2.84217094e-14 C12.7748197,-2.84217094e-14 10.3713574,2.85240656 6.73017705,3.90211148 C4.67693115,4.49405902 2.70793443,4.38420984 0.865888525,4.29880656 C0.649442623,4.28883934 0.304891803,4.23144918 0.195567213,4.98161311 C0.16797377,5.17067541 0.0274885246,14.3960131 0.0274885246,14.4975738 C0.0274885246,23.509823 11.1772328,31.9749246 13.9665836,31.9749246 C14.8591213,31.9749246 16.2972328,31.2581246 18.2327607,29.8177049 C18.4906492,29.5949639 18.3524721,29.4472393 18.2761967,29.3228066 C17.5646426,28.1613639 17.1533639,26.7958557 17.1533639,25.333718 Z"/>
    <path d="M24.8510951,29.2342557 C24.5934164,29.5119738 24.1334557,29.5549902 23.8288787,29.3297311 L18.9844984,25.7475148 C18.6800262,25.5223607 18.6171803,25.090518 18.8449574,24.7879344 L19.4665967,23.9627541 C19.6943738,23.6601705 20.130623,23.5959607 20.4360393,23.8200656 L23.5425574,26.0997246 C23.8478689,26.3237246 24.308459,26.2798689 24.5660328,26.0020459 L28.9505574,21.4127213 C29.2081311,21.1348984 29.6457443,21.118741 29.9230426,21.3768393 L30.6791869,22.0806295 C30.9564852,22.3387279 30.9726426,22.7770754 30.7150689,23.0547934 L24.8510951,29.2342557 Z"/>
  </g>
</svg>
