<svg xmlns="http://www.w3.org/2000/svg" width="34" height="34" viewBox="0 0 34 34">
  <path fill="#CCC" stroke="#CCC" d="M290.31375,153.68625 C288.571062,151.943625 286.496812,150.653562 284.233687,149.872625 C286.657562,148.203188 288.25,145.40925 288.25,142.25 C288.25,137.149563 284.100437,133 279,133 C273.899563,133 269.75,137.149563 269.75,142.25 C269.75,145.40925 271.342438,148.203188 273.766375,149.872625 C271.50325,150.653562 269.429,151.943625 267.686312,153.68625 C264.664312,156.708313 263,160.72625 263,165 L265.5,165 C265.5,157.556062 271.556062,151.5 279,151.5 C286.443938,151.5 292.5,157.556062 292.5,165 L295,165 C295,160.72625 293.335688,156.708313 290.31375,153.68625 Z M279,149 C275.278062,149 272.25,145.972 272.25,142.25 C272.25,138.528 275.278062,135.5 279,135.5 C282.721938,135.5 285.75,138.528 285.75,142.25 C285.75,145.972 282.721938,149 279,149 Z" transform="translate(-262 -132)"/>
</svg>
