<svg xmlns="http://www.w3.org/2000/svg" width="26" height="32" viewBox="0 0 26 32">
  <g fill="#CCC" fill-rule="evenodd">
    <path d="M7.52333333 14.864L8.22333333 14.86 8.576 14.2553333C8.75 13.9566667 8.97866667 13.7 9.24266667 13.4886667L12.2033333 7.98733333 8.66 1.40533333C8.32733333.787333333 7.59066667.51 6.934.754666667L1.27666667 2.86133333C.88 3.00933333.571333333 3.328.436 3.72866667.300666667 4.12866667.353333333 4.56933333.58 4.92733333L6.90933333 14.942C7.108 14.8953333 7.31133333 14.866 7.52333333 14.864zM25.564 3.728C25.4286667 3.32666667 25.12 3.008 24.7233333 2.86066667L19.0666667.754666667C18.408.51 17.6726667.787333333 17.3413333 1.40533333L11.168 12.874C11.598 12.9 12.0186667 13.0186667 12.3946667 13.2333333L13 13.58 13.6053333 13.234C14.03 12.9913333 14.51 12.8633333 14.998 12.8633333 15.994 12.8633333 16.9246667 13.3973333 17.426 14.2566667L17.7773333 14.8606667 18.476 14.864C18.6873333 14.8653333 18.8926667 14.8946667 19.0913333 14.9413333L25.42 4.92733333C25.6473333 4.56933333 25.6993333 4.12866667 25.564 3.728z"/>
    <path fill-rule="nonzero" d="M21.1693333,19.922 L19.8726667,19.166 L19.8646667,17.6653333 C19.8606667,16.896 19.2386667,16.2733333 18.468,16.2686667 L16.968,16.2606667 L16.212,14.9646667 C15.824,14.2993333 14.972,14.0706667 14.302,14.4533333 L13,15.1973333 L11.698,14.4526667 C11.028,14.07 10.176,14.2986667 9.78866667,14.964 L9.032,16.26 L7.532,16.2686667 C6.76266667,16.2733333 6.14,16.8953333 6.13533333,17.6653333 L6.12733333,19.166 L4.83133333,19.922 C4.16533333,20.3106667 3.93733333,21.1626667 4.32,21.832 L5.064,23.134 L4.31933333,24.4353333 C3.93666667,25.1046667 4.16533333,25.956 4.83066667,26.3453333 L6.12733333,27.102 L6.13533333,28.602 C6.13933333,29.3713333 6.762,29.9946667 7.532,29.9993333 L9.032,30.0073333 L9.788,31.3033333 C10.176,31.9686667 11.028,32.1966667 11.698,31.8146667 L13,31.07 L14.302,31.8146667 C14.522,31.94 14.762,32 14.9973333,32 C15.4806667,32 15.9506667,31.75 16.2106667,31.3033333 L16.968,30.0066667 L18.4686667,29.9986667 C19.238,29.9946667 19.8606667,29.372 19.8646667,28.6013333 L19.8726667,27.1013333 L21.1686667,26.3453333 C21.8346667,25.9566667 22.0626667,25.1053333 21.68,24.4353333 L20.9353333,23.134 L21.68,21.832 C22.064,21.1626667 21.8346667,20.31 21.1693333,19.922 Z M18.3453333,22.068 L15.67,24.0133333 L16.6913333,27.156 C16.78,27.4273333 16.6833333,27.726 16.452,27.8946667 C16.336,27.9786667 16.2,28.02 16.064,28.02 C15.9273333,28.02 15.7906667,27.9786667 15.6746667,27.8946667 L13,25.9506667 L10.3253333,27.8946667 C10.094,28.0626667 9.78,28.0626667 9.548,27.8946667 C9.31666667,27.7266667 9.22,27.4273333 9.30866667,27.156 L10.33,24.0133333 L7.65533333,22.068 C7.42333333,21.9006667 7.32666667,21.6013333 7.416,21.3293333 C7.504,21.0586667 7.75866667,20.8726667 8.044,20.8726667 L11.35,20.8726667 L12.372,17.7286667 C12.4606667,17.4566667 12.7146667,17.2726667 13.0006667,17.2726667 C13.2866667,17.2726667 13.5406667,17.456 13.6286667,17.7286667 L14.6506667,20.8726667 L17.9553333,20.8726667 C18.2406667,20.8726667 18.496,21.0573333 18.5833333,21.3293333 C18.6726667,21.6006667 18.5753333,21.9006667 18.3453333,22.068 Z"/>
  </g>
</svg>
