<?xml version="1.0" encoding="utf-8"?>
<!-- Generator: Adobe Illustrator 23.0.1, SVG Export Plug-In . SVG Version: 6.00 Build 0)  -->
<svg version="1.1" id="Layer_1" xmlns="http://www.w3.org/2000/svg" xmlns:xlink="http://www.w3.org/1999/xlink" x="0px" y="0px"
	 viewBox="0 0 32 32" style="enable-background:new 0 0 32 32;" xml:space="preserve">
<style type="text/css">
	.st0{fill:#D2D2D2;}
</style>
<g>
	<path class="st0" d="M31,26.2l-3.9-3.9c-1.2,1.9-2.9,3.6-4.8,4.8l3.9,3.9c1.3,1.3,3.5,1.3,4.8,0C32.3,29.7,32.3,27.5,31,26.2z"/>
	<g>
		<path class="st0" d="M2.5,13.4c1.8,0,3.4,0.9,4.5,2.2l4.3-2.5c-0.1-0.3-0.1-0.6-0.1-1c0-3.2,2.6-5.8,5.8-5.8s5.8,2.6,5.8,5.8
			c0,0.4-0.1,0.9-0.2,1.3l4.5,2.6c0.1-0.8,0.2-1.5,0.2-2.3C27.3,6.1,21.2,0,13.7,0S0,6.1,0,13.7c0,0.1,0,0.2,0,0.4
			C0.8,13.7,1.6,13.4,2.5,13.4z"/>
		<circle class="st0" cx="17" cy="12.1" r="2.9"/>
		<path class="st0" d="M21.8,15.3c-1,1.6-2.8,2.6-4.8,2.6c-2.1,0-3.9-1.1-4.9-2.8L8,17.4c0.2,0.6,0.3,1.2,0.3,1.8
			c0,2.2-1.3,4.2-3.2,5.1c2.3,1.9,5.3,3,8.5,3c6,0,11.1-3.9,12.9-9.3L21.8,15.3z"/>
		<path class="st0" d="M2.5,16.3c-0.8,0-1.5,0.3-2.1,0.9C1,19,1.8,20.6,2.9,22c1.4-0.2,2.6-1.3,2.6-2.8C5.4,17.6,4.1,16.3,2.5,16.3z
			"/>
	</g>
</g>
</svg>
