<svg xmlns="http://www.w3.org/2000/svg" xmlns:xlink="http://www.w3.org/1999/xlink" width="101" height="101" viewBox="0 0 101 101"><defs><filter id="a" x="0" y="0" width="101" height="101" filterUnits="userSpaceOnUse"><feOffset input="SourceAlpha"/><feGaussianBlur stdDeviation="3" result="b"/><feFlood flood-opacity="0.161"/><feComposite operator="in" in2="b"/><feComposite in="SourceGraphic"/></filter></defs><g transform="translate(-3576 -3669)"><g transform="matrix(1, 0, 0, 1, 3576, 3669)" filter="url(#a)"><g transform="translate(9 9)" fill="#fff" stroke="#bacfe8" stroke-width="1"><circle cx="41.5" cy="41.5" r="41.5" stroke="none"/><circle cx="41.5" cy="41.5" r="41" fill="none"/></g></g><g transform="translate(3600 3693)"><path d="M57.4,12.308A.833.833,0,0,0,56.754,12h-.733V2.833A.833.833,0,0,0,55.188,2H38.521a.833.833,0,0,0-.833.833V12h-.733a.833.833,0,0,0-.642.308.824.824,0,0,0-.167.7l.725,3.333a.833.833,0,0,0,.817.658H56.021a.833.833,0,0,0,.817-.658l.725-3.333a.824.824,0,0,0-.167-.7ZM39.354,3.667h15V12H48.521a.833.833,0,0,0-.833.833H46.021A.833.833,0,0,0,45.188,12H39.354Zm16,11.667h-17L38,13.667h6.358a.833.833,0,0,0,.833.833h3.333a.833.833,0,0,0,.833-.833h6.358Z" transform="translate(-5.688 0)" fill="#4077a7"/><path d="M17.833,42H4.5A2.507,2.507,0,0,0,2,44.5v8.333a2.508,2.508,0,0,0,2.5,2.5H7.658l-.558,2.3a.818.818,0,0,0,.15.717.833.833,0,0,0,.658.317h6.517a.833.833,0,0,0,.658-.317.818.818,0,0,0,.15-.717l-.558-2.3h3.158a2.508,2.508,0,0,0,2.5-2.5V44.5a2.508,2.508,0,0,0-2.5-2.5ZM8.967,57l.408-1.667h3.583L13.367,57Zm9.7-4.167a.833.833,0,0,1-.833.833H4.5a.833.833,0,0,1-.833-.833V52h15Zm0-2.5h-15V44.5a.833.833,0,0,1,.833-.833H17.833a.833.833,0,0,1,.833.833Z" transform="translate(0 -6.667)" fill="#4077a7"/><path d="M57.167,40H50.5A2.507,2.507,0,0,0,48,42.5V55.833a2.507,2.507,0,0,0,2.5,2.5h6.667a2.508,2.508,0,0,0,2.5-2.5V42.5a2.508,2.508,0,0,0-2.5-2.5ZM55.5,41.667a.833.833,0,0,1-.833.833H53a.833.833,0,0,1-.833-.833ZM58,55.833a.833.833,0,0,1-.833.833H50.5a.833.833,0,0,1-.833-.833V42.5a.833.833,0,0,1,.833-.833,2.508,2.508,0,0,0,2.5,2.5h1.667a2.507,2.507,0,0,0,2.5-2.5A.833.833,0,0,1,58,42.5Z" transform="translate(-7.667 -6.333)" fill="#4077a7"/><path d="M14.5,2H4.5A2.507,2.507,0,0,0,2,4.5V17.833a2.508,2.508,0,0,0,2.5,2.5h10a2.508,2.508,0,0,0,2.5-2.5V4.5A2.507,2.507,0,0,0,14.5,2Zm.833,15.833a.833.833,0,0,1-.833.833H4.5a.833.833,0,0,1-.833-.833V4.5A.833.833,0,0,1,4.5,3.667h10a.833.833,0,0,1,.833.833Z" fill="#4077a7"/><rect width="3.23" height="1.077" transform="translate(8.155 15.691)" fill="#4077a7"/><path d="M38.6,27.75l-2-.25,1.242-1.592a.828.828,0,0,0-.075-1.1l-2.242-2.242a.833.833,0,0,0-1.1-.075l-1.592,1.242-.25-2A.844.844,0,0,0,31.75,21H28.583a.844.844,0,0,0-.833.733l-.25,2-1.592-1.242a.833.833,0,0,0-1.1.075l-2.242,2.242a.828.828,0,0,0-.075,1.1L23.733,27.5l-2,.25a.844.844,0,0,0-.733.833V31.75a.844.844,0,0,0,.733.833l2,.25-1.242,1.592a.828.828,0,0,0,.075,1.1l2.242,2.242a.833.833,0,0,0,1.1.075L27.5,36.6l.25,2a.844.844,0,0,0,.833.733H31.75a.844.844,0,0,0,.833-.733l.25-2,1.592,1.242a.833.833,0,0,0,1.1-.075l2.242-2.242a.828.828,0,0,0,.075-1.1L36.6,32.833l2-.25a.844.844,0,0,0,.733-.833V28.583A.844.844,0,0,0,38.6,27.75Zm-.933,3.267-1.975.25a.82.82,0,0,0-.683.558c-.075.2-.158.4-.25.592a.816.816,0,0,0,.092.875l1.225,1.575-1.208,1.208L33.292,34.85a.816.816,0,0,0-.875-.092,6.465,6.465,0,0,1-.6.25.824.824,0,0,0-.55.683l-.25,1.975h-1.7l-.25-1.975a.824.824,0,0,0-.55-.683,6.465,6.465,0,0,1-.6-.25.816.816,0,0,0-.875.092l-1.575,1.225-1.208-1.208,1.225-1.575a.816.816,0,0,0,.092-.875c-.092-.192-.175-.392-.25-.592a.82.82,0,0,0-.683-.558l-1.975-.25v-1.7l1.975-.25a.82.82,0,0,0,.683-.558c.075-.2.158-.4.25-.592a.816.816,0,0,0-.092-.875l-1.225-1.575,1.208-1.208,1.575,1.225a.816.816,0,0,0,.875.092c.192-.092.392-.175.592-.25a.82.82,0,0,0,.558-.683l.25-1.975h1.7l.25,1.975a.82.82,0,0,0,.558.683c.2.075.4.158.592.25a.816.816,0,0,0,.875-.092l1.575-1.225,1.208,1.208L34.85,27.042a.816.816,0,0,0-.092.875c.092.192.175.392.25.592a.82.82,0,0,0,.683.558l1.975.25Z" transform="translate(-3.167 -3.167)" fill="#ff5969"/><path d="M35.333,31.167a4.167,4.167,0,1,0-4.167,4.167,4.167,4.167,0,0,0,4.167-4.167Zm-4.167,2.5a2.5,2.5,0,1,1,2.5-2.5A2.5,2.5,0,0,1,31.167,33.667Z" transform="translate(-4.167 -4.167)" fill="#ff5969"/><path d="M45,28.667v1.667h3.333a.833.833,0,0,0,.833-.833V22H47.5v6.667Z" transform="translate(-7.167 -3.333)" fill="#4077a7"/><path d="M11,31.833V38.5h1.667V32.667h5V31H11.833A.833.833,0,0,0,11,31.833Z" transform="translate(-1.5 -4.833)" fill="#4077a7"/><path d="M29.5,17.833h1.667v-5A.833.833,0,0,0,30.333,12H22v1.667h7.5Z" transform="translate(-3.333 -1.667)" fill="#4077a7"/><path d="M32.667,45H31v6.667a.833.833,0,0,0,.833.833H43.5V50.833H32.667Z" transform="translate(-4.833 -7.167)" fill="#4077a7"/></g></g></svg>