<svg xmlns="http://www.w3.org/2000/svg" xmlns:xlink="http://www.w3.org/1999/xlink" width="101" height="101" viewBox="0 0 101 101"><defs><filter id="a" x="0" y="0" width="101" height="101" filterUnits="userSpaceOnUse"><feOffset input="SourceAlpha"/><feGaussianBlur stdDeviation="3" result="b"/><feFlood flood-opacity="0.161"/><feComposite operator="in" in2="b"/><feComposite in="SourceGraphic"/></filter></defs><g transform="translate(-3181 -3669)"><g transform="matrix(1, 0, 0, 1, 3181, 3669)" filter="url(#a)"><g transform="translate(9 9)" fill="#fff" stroke="#bacfe8" stroke-width="1"><circle cx="41.5" cy="41.5" r="41.5" stroke="none"/><circle cx="41.5" cy="41.5" r="41" fill="none"/></g></g><g transform="translate(3123.428 3637.116)"><g transform="translate(83.572 57.883)"><path d="M133.161,70.472l-24.286-12.51a.706.706,0,0,0-.648,0l-24.286,12.5a.674.674,0,0,0-.29.918.7.7,0,0,0,.859.319,1.979,1.979,0,0,0-.032.3v2.057a2.041,2.041,0,0,0,1.35,1.9v3.027a1.92,1.92,0,0,0,1.849,1.894V98.359a1.921,1.921,0,0,0-1.849,1.894v3.018a2.064,2.064,0,0,0-1.35,1.921V107.2a.687.687,0,0,0,.694.679h46.769a.687.687,0,0,0,.693-.679v-2.012a2.063,2.063,0,0,0-1.35-1.921v-3.035a1.92,1.92,0,0,0-1.849-1.894V80.875a1.92,1.92,0,0,0,1.849-1.894V75.954a2.041,2.041,0,0,0,1.35-1.9V72.008a1.935,1.935,0,0,0-.032-.3.7.7,0,0,0,.911-.344A.671.671,0,0,0,133.161,70.472Zm-24.61-11.15L129.2,69.96H87.9ZM87.206,78.981v-.489h8v.494a.549.549,0,0,1-.555.544h-6.9A.549.549,0,0,1,87.206,78.981Zm33.306-2.9v2.891a1.92,1.92,0,0,0,1.849,1.9l.009,0v17.48a1.921,1.921,0,0,0-1.85,1.894v2.891H96.591v-2.891a1.921,1.921,0,0,0-1.849-1.894V80.875a1.92,1.92,0,0,0,1.849-1.894v-2.9Zm-25.3,1.038-8,.009V76.086h8ZM93.355,80.9V98.351h-4.3V80.888Zm-6.149,19.365a.549.549,0,0,1,.555-.544h6.889a.549.549,0,0,1,.555.544v.494h-8Zm0,1.839h8v1.037h-8Zm44.041,3.1v1.346H85.856V105.22a.71.71,0,0,1,.717-.7H130.53A.71.71,0,0,1,131.247,105.206Zm-1.341-2.062H121.9v-1.037h8.007Zm-.009-2.891v.508h-8v-.494a.549.549,0,0,1,.555-.544h6.9A.549.549,0,0,1,129.9,100.253Zm-6.149-1.889V80.888h4.3V98.351ZM129.9,79a.549.549,0,0,1-.555.544h-6.884A.549.549,0,0,1,121.9,79v-.508h8Zm.009-1.876-8,.009V76.086h8Zm1.341-3.058a.687.687,0,0,1-.693.679h-44a.687.687,0,0,1-.693-.679V72.008a.687.687,0,0,1,.693-.679h44a.687.687,0,0,1,.693.679Z" transform="translate(-83.572 -57.884)" fill="#4077a7"/></g><g transform="translate(101.331 79.017)"><path d="M279.6,325.755a.483.483,0,0,0-.171-.006,1.121,1.121,0,0,1-1-1.1.5.5,0,0,0-1,0,2.1,2.1,0,0,0,1.571,2.016v.489a.5.5,0,0,0,1,0v-.46a2.1,2.1,0,0,0,1.684-2.26,2.117,2.117,0,0,0-2.121-1.874,1.111,1.111,0,1,1,1.134-1.111.5.5,0,0,0,1,0,2.1,2.1,0,0,0-1.7-2.046v-.445a.5.5,0,0,0-1,0v.475a2.091,2.091,0,0,0-1.552,2.294,2.118,2.118,0,0,0,2.113,1.812,1.11,1.11,0,1,1,.041,2.22Z" transform="translate(-272.315 -309.473)" fill="#ff5969"/><path d="M234.119,304.128a7.242,7.242,0,1,0,7.241-7.1A7.17,7.17,0,0,0,234.119,304.128Zm7.241-6.117a6.119,6.119,0,1,1-6.242,6.117A6.181,6.181,0,0,1,241.36,298.011Z" transform="translate(-234.119 -290.518)" fill="#ff5969"/><path d="M292.266,245.824v-4.649a.5.5,0,0,0-1,0v4.649a.5.5,0,0,0,1,0Z" transform="translate(-284.526 -240.686)" fill="#ff5969"/><path d="M324.013,264.542v-2.2a.5.5,0,0,0-1,0v2.2a.5.5,0,0,0,1,0Z" transform="translate(-312.528 -259.403)" fill="#ff5969"/><path d="M260.52,264.542v-2.2a.5.5,0,0,0-1,0v2.2a.5.5,0,0,0,1,0Z" transform="translate(-256.524 -259.403)" fill="#ff5969"/></g></g></g></svg>