<svg xmlns="http://www.w3.org/2000/svg" xmlns:xlink="http://www.w3.org/1999/xlink" width="101" height="101" viewBox="0 0 101 101"><defs><style>.a,.b{fill:#fff;}.a{stroke:#bacfe8;}.c{fill:#4077a7;}.d{fill:#f16051;}.e{stroke:none;}.f{fill:none;}.g{filter:url(#a);}</style><filter id="a" x="0" y="0" width="101" height="101" filterUnits="userSpaceOnUse"><feOffset input="SourceAlpha"/><feGaussianBlur stdDeviation="3" result="b"/><feFlood flood-opacity="0.161"/><feComposite operator="in" in2="b"/><feComposite in="SourceGraphic"/></filter></defs><g transform="translate(-648 -264)"><g class="g" transform="matrix(1, 0, 0, 1, 648, 264)"><g class="a" transform="translate(9 9)"><circle class="e" cx="41.5" cy="41.5" r="41.5"/><circle class="f" cx="41.5" cy="41.5" r="41"/></g></g><g transform="translate(676 292)"><rect class="b" width="32.217" height="43.422" rx="3" transform="translate(0.703 0.703)"/><g transform="translate(10.224 5.985)"><path class="b" d="M97.387,257.164l-3.918,2.453-3.222,8.334,8.334-3.223,2.453-3.991Z" transform="translate(-90.246 -234.016)"/><rect class="b" width="7.631" height="15.057" transform="translate(16.953 11.613) rotate(45)"/><path class="b" d="M241.436,70.378l-6.511-6.511,9.667-9.667a4.558,4.558,0,0,1,6.511,0h0a4.558,4.558,0,0,1,0,6.511Z" transform="translate(-218.534 -52.832)"/></g><path class="c" d="M43.283,6.862A5.289,5.289,0,0,0,39.5,5.324a5.557,5.557,0,0,0-3.779,1.538L33.616,9.037V0H0V44.821H33.616v-20.8l9.667-9.667a5.331,5.331,0,0,0,0-7.492ZM32.217,43.422H1.4V1.4H32.217v9.037L25.633,17.02l.557.557L15.475,28.226l.769.769-3.222,1.963a.7.7,0,0,0-.278.352L9.594,39.57a1.012,1.012,0,0,0,.139.769.651.651,0,0,0,.769.139l8.261-3.149a.74.74,0,0,0,.352-.278l1.963-3.222.769.769L32.21,24.3V43.422h.007Zm-14.706-15.2,9.667-9.667,4.409,4.409L21.92,32.634ZM20.1,32.847l-2.029,3.288-6.584,2.519L14,32.07l3.288-2.029,2.593,2.593ZM42.3,13.373,33.125,22.55,27.6,17.02l9.169-9.177a3.933,3.933,0,0,1,5.529,0A4.051,4.051,0,0,1,42.3,13.373Z"/><rect class="d" width="1.121" height="1.399" transform="matrix(0.707, 0.707, -0.707, 0.707, 27.72, 21.68)"/><rect class="d" width="1.399" height="1.121" transform="matrix(-0.707, 0.707, -0.707, -0.707, 26.301, 24.611)"/><rect class="d" width="1.399" height="1.121" transform="matrix(-0.707, 0.707, -0.707, -0.707, 24.136, 26.8)"/><rect class="c" width="19.679" height="1.399" transform="translate(7.001 6.936)"/><rect class="c" width="19.679" height="1.399" transform="translate(7.001 11.623)"/><rect class="c" width="7.28" height="1.399" transform="translate(7.001 16.251)"/><path class="d" d="M279.75,78.017h0a1.781,1.781,0,0,0-2.519,0l-7.719,7.719,2.519,2.519,7.712-7.712A1.784,1.784,0,0,0,279.75,78.017Z" transform="translate(-238.979 -68.716)"/></g></g></svg>