<svg xmlns="http://www.w3.org/2000/svg" xmlns:xlink="http://www.w3.org/1999/xlink" width="101" height="101" viewBox="0 0 101 101"><defs><filter id="a" x="0" y="0" width="101" height="101" filterUnits="userSpaceOnUse"><feOffset input="SourceAlpha"/><feGaussianBlur stdDeviation="3" result="b"/><feFlood flood-opacity="0.161"/><feComposite operator="in" in2="b"/><feComposite in="SourceGraphic"/></filter></defs><g transform="translate(-3277 -3669)"><g transform="matrix(1, 0, 0, 1, 3277, 3669)" filter="url(#a)"><g transform="translate(9 9)" fill="#fff" stroke="#bacfe8" stroke-width="1"><circle cx="41.5" cy="41.5" r="41.5" stroke="none"/><circle cx="41.5" cy="41.5" r="41" fill="none"/></g></g><g transform="translate(3269.803 3695)"><g transform="translate(33.197 0)"><g transform="translate(0 0)"><path d="M82.755,10.215a3.194,3.194,0,0,0-2.138-2.386L59.546.235a3.987,3.987,0,0,0-2.7,0L35.778,7.829a3.194,3.194,0,0,0-2.138,2.386,35.615,35.615,0,0,0,1.476,17.117A34.536,34.536,0,0,0,42.006,39,46.14,46.14,0,0,0,56.485,49.615a4,4,0,0,0,3.426,0A46.14,46.14,0,0,0,74.389,39a34.537,34.537,0,0,0,6.89-11.672,35.615,35.615,0,0,0,1.476-17.117ZM79.669,26.909c-3.161,9.117-10.084,16.326-20.579,21.428a2.086,2.086,0,0,1-1.786,0c-10.495-5.1-17.419-12.311-20.579-21.428A34.287,34.287,0,0,1,35.3,10.43a1.671,1.671,0,0,1,1.118-1.249L57.492,1.587a2.083,2.083,0,0,1,1.41,0L79.974,9.181a1.671,1.671,0,0,1,1.118,1.249A34.287,34.287,0,0,1,79.669,26.909Z" transform="translate(-33.197 0)" fill="#4077a7"/><path d="M113.89,58.023,105.654,55.1a.888.888,0,0,0-1.1.4.7.7,0,0,0,.461.954l8.236,2.925a1.173,1.173,0,0,1,.794.87,26.615,26.615,0,0,1-1.136,12.973c-2.525,7.177-8.058,12.853-16.447,16.872a1.518,1.518,0,0,1-1.282,0C86.794,86.073,81.26,80.4,78.735,73.22A26.613,26.613,0,0,1,77.6,60.247a1.173,1.173,0,0,1,.794-.87l16.924-6.011a1.54,1.54,0,0,1,1.014,0l5.083,1.805a.888.888,0,0,0,1.1-.4.7.7,0,0,0-.461-.954l-5.083-1.805a3.424,3.424,0,0,0-2.284,0L77.758,58.023a2.7,2.7,0,0,0-1.821,2.007,27.944,27.944,0,0,0,1.191,13.619,27.4,27.4,0,0,0,5.564,9.289,37.2,37.2,0,0,0,11.68,8.436,3.436,3.436,0,0,0,2.9,0,37.19,37.19,0,0,0,11.68-8.436,27.4,27.4,0,0,0,5.564-9.289,27.942,27.942,0,0,0,1.191-13.619,2.7,2.7,0,0,0-1.821-2.007Z" transform="translate(-70.823 -46.755)" fill="#4077a7"/><path d="M173.1,185.725h3.351a2.181,2.181,0,0,0,2.175-2.182V179.8a.491.491,0,0,1,.494-.488h3.745a2.181,2.181,0,0,0,2.175-2.182v-3.35a2.181,2.181,0,0,0-2.175-2.182h-3.745a.491.491,0,0,1-.494-.488v-3.744a2.181,2.181,0,0,0-2.175-2.182H173.1a2.181,2.181,0,0,0-2.175,2.182v3.744a.492.492,0,0,1-.494.488h-3.745a2.181,2.181,0,0,0-2.175,2.182v3.35a2.184,2.184,0,0,0,1.892,2.163.847.847,0,0,0,.217-1.68.49.49,0,0,1-.427-.483v-3.35a.492.492,0,0,1,.494-.488h3.745a2.181,2.181,0,0,0,2.175-2.182v-3.744a.492.492,0,0,1,.494-.488h3.351a.491.491,0,0,1,.494.488v3.744a2.181,2.181,0,0,0,2.175,2.182h3.745a.491.491,0,0,1,.494.488v3.35a.492.492,0,0,1-.494.488h-3.745a2.181,2.181,0,0,0-2.175,2.182v3.744a.491.491,0,0,1-.494.488H173.1a.491.491,0,0,1-.494-.488V179.8a2.181,2.181,0,0,0-2.175-2.182.847.847,0,0,0,0,1.694.491.491,0,0,1,.494.488v3.744A2.181,2.181,0,0,0,173.1,185.725Z" transform="translate(-149.778 -150.453)" fill="#ff5969"/></g></g></g></g></svg>