<svg xmlns="http://www.w3.org/2000/svg" width="32" height="32" viewBox="0 0 32 32"><defs><style>.a{fill:#4077a7;}.b{fill:#ff5969;}</style></defs><g transform="translate(-8117.888 -11799.888)"><path class="a" d="M49.739,8.6a.533.533,0,0,0-.411-.2h-.469V2.533A.533.533,0,0,0,48.326,2H37.659a.533.533,0,0,0-.533.533V8.4h-.469a.533.533,0,0,0-.411.2.527.527,0,0,0-.107.448l.464,2.133a.533.533,0,0,0,.523.421H48.859a.533.533,0,0,0,.523-.421l.464-2.133a.527.527,0,0,0-.107-.448ZM38.192,3.067h9.6V8.4H44.059a.533.533,0,0,0-.533.533H42.459a.533.533,0,0,0-.533-.533H38.192Zm10.24,7.467H37.552l-.229-1.067h4.069a.533.533,0,0,0,.533.533h2.133a.533.533,0,0,0,.533-.533h4.069Z" transform="translate(8099.961 11797.888)"/><path class="a" d="M12.133,42H3.6A1.6,1.6,0,0,0,2,43.6v5.333a1.6,1.6,0,0,0,1.6,1.6H5.621l-.357,1.472a.524.524,0,0,0,.1.459.533.533,0,0,0,.421.2H9.952a.533.533,0,0,0,.421-.2.524.524,0,0,0,.1-.459l-.357-1.472h2.021a1.6,1.6,0,0,0,1.6-1.6V43.6A1.6,1.6,0,0,0,12.133,42ZM6.459,51.6l.261-1.067H9.013L9.275,51.6Zm6.208-2.667a.533.533,0,0,1-.533.533H3.6a.533.533,0,0,1-.533-.533V48.4h9.6Zm0-1.6h-9.6V43.6a.533.533,0,0,1,.533-.533h8.533a.533.533,0,0,1,.533.533Z" transform="translate(8115.888 11779.221)"/><path class="a" d="M53.867,40H49.6A1.6,1.6,0,0,0,48,41.6v8.533a1.6,1.6,0,0,0,1.6,1.6h4.267a1.6,1.6,0,0,0,1.6-1.6V41.6a1.6,1.6,0,0,0-1.6-1.6ZM52.8,41.067a.533.533,0,0,1-.533.533H51.2a.533.533,0,0,1-.533-.533Zm1.6,9.067a.533.533,0,0,1-.533.533H49.6a.533.533,0,0,1-.533-.533V41.6a.533.533,0,0,1,.533-.533,1.6,1.6,0,0,0,1.6,1.6h1.067a1.6,1.6,0,0,0,1.6-1.6.533.533,0,0,1,.533.533Z" transform="translate(8094.421 11780.154)"/><path class="a" d="M10,2H3.6A1.6,1.6,0,0,0,2,3.6v8.533a1.6,1.6,0,0,0,1.6,1.6H10a1.6,1.6,0,0,0,1.6-1.6V3.6A1.6,1.6,0,0,0,10,2Zm.533,10.133a.533.533,0,0,1-.533.533H3.6a.533.533,0,0,1-.533-.533V3.6A.533.533,0,0,1,3.6,3.067H10a.533.533,0,0,1,.533.533Z" transform="translate(8115.888 11797.888)"/><rect class="a" width="2.067" height="0.689" transform="translate(8121.827 11808.649)"/><path class="b" d="M32.264,25.32l-1.28-.16.795-1.019a.53.53,0,0,0-.048-.7L30.3,22a.533.533,0,0,0-.7-.048l-1.019.795-.16-1.28A.54.54,0,0,0,27.88,21H25.853a.54.54,0,0,0-.533.469l-.16,1.28-1.019-.795a.533.533,0,0,0-.7.048L22,23.437a.53.53,0,0,0-.048.7l.795,1.019-1.28.16a.54.54,0,0,0-.469.533V27.88a.54.54,0,0,0,.469.533l1.28.16-.795,1.019a.53.53,0,0,0,.048.7l1.435,1.435a.533.533,0,0,0,.7.048l1.019-.795.16,1.28a.54.54,0,0,0,.533.469H27.88a.54.54,0,0,0,.533-.469l.16-1.28,1.019.795a.533.533,0,0,0,.7-.048L31.731,30.3a.53.53,0,0,0,.048-.7l-.795-1.019,1.28-.16a.54.54,0,0,0,.469-.533V25.853A.54.54,0,0,0,32.264,25.32Zm-.6,2.091-1.264.16a.525.525,0,0,0-.437.357c-.048.128-.1.256-.16.379a.522.522,0,0,0,.059.56l.784,1.008-.773.773-1.008-.784a.522.522,0,0,0-.56-.059,4.138,4.138,0,0,1-.384.16.527.527,0,0,0-.352.437l-.16,1.264H26.323l-.16-1.264a.527.527,0,0,0-.352-.437,4.138,4.138,0,0,1-.384-.16.522.522,0,0,0-.56.059l-1.008.784-.773-.773.784-1.008a.522.522,0,0,0,.059-.56c-.059-.123-.112-.251-.16-.379a.525.525,0,0,0-.437-.357l-1.264-.16V26.323l1.264-.16a.525.525,0,0,0,.437-.357c.048-.128.1-.256.16-.379a.522.522,0,0,0-.059-.56l-.784-1.008.773-.773,1.008.784a.522.522,0,0,0,.56.059c.123-.059.251-.112.379-.16a.525.525,0,0,0,.357-.437l.16-1.264h1.088l.16,1.264a.525.525,0,0,0,.357.437c.128.048.256.1.379.16a.522.522,0,0,0,.56-.059l1.008-.784.773.773-.784,1.008a.522.522,0,0,0-.059.56c.059.123.112.251.16.379a.525.525,0,0,0,.437.357l1.264.16Z" transform="translate(8107.021 11789.021)"/><path class="b" d="M32.333,29.667a2.667,2.667,0,1,0-2.667,2.667,2.667,2.667,0,0,0,2.667-2.667Zm-2.667,1.6a1.6,1.6,0,1,1,1.6-1.6A1.6,1.6,0,0,1,29.667,31.267Z" transform="translate(8104.221 11786.221)"/><path class="a" d="M45,26.267v1.067h2.133a.533.533,0,0,0,.533-.533V22H46.6v4.267Z" transform="translate(8095.821 11788.555)"/><path class="a" d="M11,31.533V35.8h1.067V32.067h3.2V31H11.533A.533.533,0,0,0,11,31.533Z" transform="translate(8111.688 11784.354)"/><path class="a" d="M26.8,15.733h1.067v-3.2A.533.533,0,0,0,27.333,12H22v1.067h4.8Z" transform="translate(8106.554 11793.221)"/><path class="a" d="M32.067,45H31v4.267a.533.533,0,0,0,.533.533H39V48.733H32.067Z" transform="translate(8102.354 11777.821)"/></g></svg>