<svg xmlns="http://www.w3.org/2000/svg" width="40" height="40" viewBox="0 0 40 40"><g transform="translate(-303 -504)"><circle cx="20" cy="20" r="20" transform="translate(303 504)" fill="#fcf7e2"/><path d="M-5966.988,30.561a.8.8,0,0,1,.068-.489,10.654,10.654,0,0,1,1-1.826,12.3,12.3,0,0,1,8.573-5.4,1.631,1.631,0,0,1,1.262.306,10.48,10.48,0,0,0,6.264,2.045,10.485,10.485,0,0,0,6.266-2.045,1.839,1.839,0,0,1,1.263-.306,12.384,12.384,0,0,1,8.57,5.4,9.217,9.217,0,0,1,1,1.826l0,0A19.992,19.992,0,0,1-5950,40,19.986,19.986,0,0,1-5966.988,30.561Zm7.2-18.416a9.991,9.991,0,0,1,9.963-9.964,9.99,9.99,0,0,1,9.964,9.964,9.989,9.989,0,0,1-9.964,9.965A9.99,9.99,0,0,1-5959.785,12.145Z" transform="translate(6273 504)" fill="#cbdecc"/></g></svg>