<svg xmlns="http://www.w3.org/2000/svg" xmlns:xlink="http://www.w3.org/1999/xlink" width="35" height="35" viewBox="0 0 35 35"><defs><clipPath id="b"><rect width="35" height="35"/></clipPath></defs><g id="a" clip-path="url(#b)"><g transform="translate(5.85 5.849)"><path d="M-.4.026,12.611-.541,23.1.026l.455,4.531L-.4,5.122l-.54-.36V3.008Z" transform="translate(0.937 3.118)" fill="#fb8181"/><g transform="translate(0)"><g transform="translate(0 0)"><path d="M0,0H25a0,0,0,0,1,0,0V16a2,2,0,0,1-2,2H2a2,2,0,0,1-2-2V0A0,0,0,0,1,0,0Z" transform="translate(0.151 7.151)" fill="#fcf7e2"/><g transform="translate(0 2.096)"><path d="M22.531,25.055H2.62A2.623,2.623,0,0,1,0,22.435V4.62A2.623,2.623,0,0,1,2.62,2H22.531a2.623,2.623,0,0,1,2.62,2.62V22.435A2.623,2.623,0,0,1,22.531,25.055ZM2.62,3.048A1.574,1.574,0,0,0,1.048,4.62V22.435A1.574,1.574,0,0,0,2.62,24.007H22.531A1.574,1.574,0,0,0,24.1,22.435V4.62a1.574,1.574,0,0,0-1.572-1.572Z" transform="translate(0 -2)" fill="#fb8181"/></g><g transform="translate(0 6.696)"><path d="M24.627,8.687H.524C.235,8.687,0,8.309,0,7.844S.235,7,.524,7h24.1c.289,0,.524.378.524.844S24.916,8.687,24.627,8.687Z" transform="translate(0 -7)" fill="#fb8181"/></g><g transform="translate(5.24)"><path d="M5.733,5.24C5.328,5.24,5,5,5,4.716V.524C5,.235,5.328,0,5.733,0s.733.235.733.524V4.716C6.467,5,6.138,5.24,5.733,5.24Z" transform="translate(-5)" fill="#fbab81"/></g><g transform="translate(18.336)"><path d="M18.787,5.24C18.353,5.24,18,5,18,4.716V.524c0-.289.353-.524.787-.524s.787.235.787.524V4.716C19.574,5,19.222,5.24,18.787,5.24Z" transform="translate(-18)" fill="#fbab81"/></g></g><g transform="translate(2.096 11.437)"><g transform="translate(0 0)"><path d="M438.252,283.751h.573a.545.545,0,0,0,0-1.09h-.573a.545.545,0,0,0,0,1.09Z" transform="translate(-418.331 -278.752)" fill="#73ca7a"/><g transform="translate(5.555 0)"><path d="M182.079,221.485l-2.546-.751-1.5-2.19a.6.6,0,0,0-.982,0l-1.5,2.19-2.547.751a.6.6,0,0,0-.3.934l1.619,2.1-.073,2.654a.6.6,0,0,0,.794.577l2.5-.89,2.5.89a.6.6,0,0,0,.794-.577l-.073-2.654,1.619-2.1a.6.6,0,0,0-.3-.934Z" transform="translate(-172.576 -218.286)" fill="#73ca7a"/><path d="M413.788,218.74a.545.545,0,0,0-.771,0l-.405.405a.545.545,0,1,0,.771.771l.405-.405A.545.545,0,0,0,413.788,218.74Z" transform="translate(-400.007 -218.164)" fill="#73ca7a"/></g><path d="M413.016,340.641a.545.545,0,0,0,.771-.771l-.405-.405a.545.545,0,0,0-.771.771Z" transform="translate(-394.452 -332.309)" fill="#73ca7a"/><path d="M44.323,283.751H44.9a.545.545,0,0,0,0-1.09h-.573a.545.545,0,0,0,0,1.09Z" transform="translate(-43.778 -278.752)" fill="#73ca7a"/><path d="M72.676,339.465l-.405.405a.545.545,0,0,0,.771.771l.405-.405a.545.545,0,0,0-.771-.771Z" transform="translate(-70.567 -332.309)" fill="#73ca7a"/><path d="M72.675,219.916a.545.545,0,1,0,.771-.771l-.405-.405a.545.545,0,1,0-.771.771Z" transform="translate(-70.566 -218.164)" fill="#73ca7a"/></g></g></g></g></g></svg>